SplineFontDB: 3.0
FontName: LinLibertineOZ
FullName: Linux Libertine O Semibold
FamilyName: Linux Libertine O
Weight: Semibold
Copyright: Linux Libertine by Philipp H. Poll,\nOpen Font under Terms of following Free Software Licenses:\nGPL (General Public License) with font-exception and OFL (Open Font License).\nCreated with FontForge (http://fontforge.sf.net)\nSept 2003, 2004, 2005, 2006, 2007, 2008, 2009, 2010, 2011,2012
UComments: "2003-08-29: Created.+AAoA-2004-07-25: v(1.0) release candidate+AAoA-2005-12-28: v(1.1.0) stable+AAoA-2006-01-01: v(2.0.0) stable+AAoA-2006-09-05: v(2.2.0) stable+AAoA-2006-12-04: v(2.3.0) stable+AAoA-2007-03-11: v(2.4.0) stable+AAoA-2007-06-11: v(2.6.0) stable+AAoA-2007-12-00: v(2.7.0) stable+AAoA-2008-06-00: v(2.8.14) stable+AAoA" 
Version: 5.1.2
ItalicAngle: 0
UnderlinePosition: -98
UnderlineWidth: 40
Ascent: 754
Descent: 246
LayerCount: 2
Layer: 0 0 "Back"  1
Layer: 1 0 "Fore"  0
XUID: [1021 993 1524925707 4740893]
FSType: 0
OS2Version: 3
OS2_WeightWidthSlopeOnly: 0
OS2_UseTypoMetrics: 0
CreationTime: 1156455862
ModificationTime: 1346320241
PfmFamily: 17
TTFWeight: 600
TTFWidth: 5
LineGap: 0
VLineGap: 0
OS2TypoAscent: 894
OS2TypoAOffset: 0
OS2TypoDescent: -246
OS2TypoDOffset: 0
OS2TypoLinegap: 0
OS2WinAscent: 894
OS2WinAOffset: 0
OS2WinDescent: 246
OS2WinDOffset: 0
HheadAscent: 894
HheadAOffset: 0
HheadDescent: -246
HheadDOffset: 0
OS2FamilyClass: 261
OS2Vendor: 'PfEd'
Lookup: 1 0 0 "'sups' Hochgestellte"  {"LinLibertine-'sups' Hochgestellte 1" ("superior" ) } ['sups' ('DFLT' <'dflt' > 'cyrl' <'dflt' > 'grek' <'dflt' > 'latn' <'AZE ' 'CRT ' 'DEU ' 'MOL ' 'ROM ' 'TRK ' 'dflt' > ) ]
Lookup: 1 0 0 "'sinf' Tiefgestellte"  {"LinLibertine-'sinf' Wissenschaftliche Indices 1" ("inferior" ) } ['sinf' ('DFLT' <'dflt' > 'cyrl' <'dflt' > 'grek' <'dflt' > 'latn' <'AZE ' 'CRT ' 'DEU ' 'MOL ' 'ROM ' 'TRK ' 'dflt' > ) ]

StartChar: u1D400
Encoding: 119808 119808 0
Width: 699
Flags: W
HStem: -1 34<10 60.0229 142.897 211 414 482.841 622.594 692> 241 47<234.168 403> 638 20G<348.5 364.5>
DStem2: 89 91 148 79 0.384126 0.923281<-23.1403 196.063 246.684 479.281> 399 627 320 514 0.352654 -0.935754<77.8806 318.631 368.607 561.264>
LayerCount: 2
Fore
SplineSet
253 288 m 2
 403 288 l 1
 320 514 l 1
 234 300 l 1
 234 291 235 288 253 288 c 2
148 79 m 2
 137 50 136 33 195 33 c 0
 211 33 216 31 216 23 c 2
 216 3 l 1
 211 -1 l 1
 211 -1 119 1 95 1 c 0
 70 1 10 -1 10 -1 c 1
 2 2 l 1
 2 23 l 2
 2 33 10 33 22 33 c 0
 42 33 72 50 89 91 c 2
 312 627 l 2
 322 651 343 658 354 658 c 0
 375 658 391 648 399 627 c 2
 601 91 l 2
 615 54 629 33 654 33 c 2
 682 33 l 2
 697 33 697 31 697 23 c 2
 697 3 l 1
 692 -1 l 1
 692 -1 596 1 558 1 c 0
 522 1 414 -1 414 -1 c 1
 406 4 l 1
 406 23 l 2
 406 31 414 33 432 33 c 2
 459 33 l 2
 476 33 484 44 484 59 c 0
 484 64 484 70 482 73 c 2
 420 241 l 1
 236 241 l 2
 216 241 211 240 205 227 c 2
 148 79 l 2
EndSplineSet
EndChar

StartChar: u1D401
Encoding: 119809 119809 1
Width: 620
Flags: W
HStem: 0 40<225.077 375.965> 0 33<23 96.4211> 334 42<221 356.422> 605 42<224.143 359.733> 613 34<24 96.3856>
VStem: 99 122<45.449 334 376 599.529> 403 120<424.816 565.405> 450 127<106.58 268.4>
LayerCount: 2
Fore
SplineSet
221 562 m 2
 221 376 l 1
 277 376 l 2
 348 376 403 409 403 489 c 0
 403 587 337 605 291 605 c 0
 226 605 221 591 221 562 c 2
221 334 m 1
 221 84 l 2
 221 55 227 40 287 40 c 0
 419 40 450 127 450 187 c 0
 450 273 395 334 292 334 c 2
 221 334 l 1
22 21 m 2
 22 28 25 33 40 33 c 2
 69 33 l 2
 92 33 99 42 99 74 c 2
 99 572 l 2
 99 602 93 613 69 613 c 2
 36 613 l 2
 25 613 22 616 22 623 c 2
 22 645 l 1
 24 647 l 1
 24 647 124.7 645 154.7 645 c 0
 184.7 645 234 647 284 647 c 0
 485.8 647 523 560 523 491 c 0
 523 440 481 385 427 361 c 1
 427 359 l 1
 533 331 577 264 577 176 c 0
 577 89 511 0 306 0 c 2
 23 0 l 1
 22 1 l 1
 22 21 l 2
EndSplineSet
EndChar

StartChar: u1D402
Encoding: 119810 119810 2
Width: 666
Flags: W
HStem: -10 44<290.062 474.801> 437 21G<558.5 612> 617 41<295.135 462.38>
VStem: 34 130<195.747 434.804> 574 38<443.526 484.717>
LayerCount: 2
Fore
SplineSet
371 -10 m 0
 143 -10 34 154 34 315 c 0
 34 512 187 658 372 658 c 0
 505 658 539 614 590 614 c 1
 594 556 602 500 612 445 c 1
 574 437 l 1
 543 532 500 617 372 617 c 0
 275 617 164 532 164 334 c 0
 164 192 231 34 370 34 c 0
 451 34 524 66 601 153 c 1
 631 129 l 1
 563 39 477 -10 371 -10 c 0
EndSplineSet
EndChar

StartChar: u1D403
Encoding: 119811 119811 3
Width: 718
Flags: W
HStem: 0 40<222.92 424.983> 0 33<24 92.1445> 606 40<223.637 384.847> 613 33<24 92.1445>
VStem: 99 122<44.4801 601.64> 549 132<185.589 421.599>
LayerCount: 2
Fore
SplineSet
221 75 m 2
 221 46 230 40 308 40 c 0
 436 40 549 88 549 284 c 0
 549 435 480 606 283 606 c 0
 247 606 221 603 221 571 c 2
 221 75 l 2
24 0 m 1
 22 2 l 1
 22 24 l 2
 22 30 26 33 30 33 c 2
 44 33 l 2
 84 33 99 45 99 77 c 2
 99 569 l 2
 99 601 84 613 44 613 c 2
 30 613 l 2
 26 613 22 616 22 621 c 2
 22 644 l 1
 24 646 l 1
 320 646 l 2
 523 646 681 494 681 309 c 0
 681 63 487 0 338 0 c 2
 24 0 l 1
EndSplineSet
EndChar

StartChar: u1D404
Encoding: 119812 119812 4
Width: 562
Flags: W
HStem: 0 46<224.232 442.935> 0 33<27 94.1445> 323 42<224 361.625> 427 20G<383 415> 600 46<224.232 421.482> 613 33<27 94.1445>
VStem: 101 123<46.578 323 365 599.422> 372 36<251.814 315.565 372.621 436.233> 474 40<482.425 531.807> 499 43<118.211 170.628>
LayerCount: 2
Fore
SplineSet
27 0 m 1
 24 2 l 1
 24 24 l 2
 24 30 28 33 32 33 c 2
 46 33 l 2
 86 33 101 45 101 77 c 2
 101 569 l 2
 101 601 86 613 46 613 c 2
 32 613 l 2
 28 613 24 616 24 621 c 2
 24 644 l 1
 27 646 l 1
 493 646 l 1
 497 588 504 535 514 484 c 1
 474 475 l 1
 460 526 435 600 368 600 c 2
 238 600 l 2
 229 600 224 592 224 571 c 2
 224 365 l 1
 337 365 l 2
 362 365 366 396 372 436 c 0
 372 440 378 447 388 447 c 2
 409 447 l 1
 415 437 l 1
 413 421 408 381 408 344 c 0
 408 308 413 268 415 251 c 1
 409 242 l 1
 388 242 l 2
 378 242 372 248 372 252 c 0
 366 293 362 323 337 323 c 2
 224 323 l 1
 224 75 l 2
 224 52 229 46 238 46 c 2
 391 46 l 2
 446 46 482 105 499 179 c 1
 542 169 l 1
 532 116 522 54 515 0 c 1
 27 0 l 1
EndSplineSet
EndChar

StartChar: u1D405
Encoding: 119813 119813 5
Width: 513
Flags: W
HStem: -2 34<26 94.7241 230.184 298> 323 42<223 360.625> 427 20G<382 414> 600 46<223.232 420.482> 613 33<27 94.1445>
VStem: 101 122<37.5094 323 365 599.422> 371 36<251.813 315.565 372.621 436.232> 473 40<482.425 531.807>
LayerCount: 2
Fore
SplineSet
223 76 m 2
 223 48 237 32 278 32 c 2
 292 32 l 2
 297 32 300 29 300 23 c 2
 300 0 l 1
 298 -2 l 1
 298 -2 198 0 162 0 c 0
 123 0 26 -2 26 -2 c 1
 24 0 l 1
 24 23 l 2
 24 29 28 32 32 32 c 2
 46 32 l 2
 86 32 101 44 101 76 c 2
 101 569 l 2
 101 601 86 613 46 613 c 2
 32 613 l 2
 28 613 24 616 24 621 c 2
 24 644 l 1
 27 646 l 1
 492 646 l 1
 496 588 503 535 513 484 c 1
 473 475 l 1
 459 526 434 600 367 600 c 2
 237 600 l 2
 228 600 223 592 223 571 c 2
 223 365 l 1
 336 365 l 2
 361 365 365 396 371 436 c 0
 371 440 377 447 387 447 c 2
 408 447 l 1
 414 437 l 1
 412 421 407 380.4 407 344 c 0
 407 307.6 412 268 414 251 c 1
 408 242 l 1
 387 242 l 2
 377 242 371 248 371 252 c 0
 365 293 361 323 336 323 c 2
 223 323 l 1
 223 76 l 2
EndSplineSet
EndChar

StartChar: u1D406
Encoding: 119814 119814 6
Width: 727
Flags: W
HStem: -10 44<306.541 502.262> 272 34<440 520.715 652.798 706> 437 21G<571 624> 617 41<300.747 473.546>
VStem: 29 130<202 430.82> 532 117<85.3282 262.125> 585 39<443.564 488.517>
LayerCount: 2
Fore
SplineSet
649 229 m 2
 649 114 l 2
 649 99 653 92 661 85 c 1
 591 26 512 -10 386 -10 c 0
 173 -10 29 134 29 308 c 0
 29 528 205 658 383 658 c 0
 518 658 551 614 602 614 c 1
 605 556 614 500 624 445 c 1
 585 437 l 1
 557 531 509 617 382 617 c 0
 261 617 159 498 159 327 c 0
 159 176 243 34 404 34 c 0
 447 34 498 46 532 74 c 1
 532 229 l 2
 532 260 500 272 460 272 c 2
 446 272 l 2
 442 272 438 275 438 281 c 2
 438 304 l 1
 440 306 l 1
 440 306 537 304 576 304 c 0
 612 304 706 306 706 306 c 1
 708 304 l 1
 708 281 l 2
 708 275 705 272 700 272 c 2
 694 272 l 2
 653 272 649 256 649 229 c 2
EndSplineSet
EndChar

StartChar: u1D407
Encoding: 119815 119815 7
Width: 723
Flags: W
HStem: -2 34<24 92.7241 229.184 297 427 495.724 632.184 700> 321 46<222 502> 613 34<24 92.7241 229.184 297 427 495.724 632.184 700>
VStem: 99 123<37.5094 321 367 607.491> 502 123<37.5094 321 367 607.491>
LayerCount: 2
Fore
SplineSet
502 569 m 2
 502 601 487 613 447 613 c 2
 433 613 l 2
 429 613 425 616 425 621 c 2
 425 645 l 1
 427 647 l 1
 427 647 524 645 563 645 c 0
 599 645 700 647 700 647 c 1
 702 645 l 1
 702 621 l 2
 702 616 699 613 694 613 c 2
 680 613 l 2
 639 613 625 597 625 569 c 2
 625 76 l 2
 625 48 639 32 680 32 c 2
 694 32 l 2
 699 32 702 29 702 23 c 2
 702 0 l 1
 700 -2 l 1
 700 -2 599 0 563 0 c 0
 524 0 427 -2 427 -2 c 1
 425 0 l 1
 425 23 l 2
 425 29 429 32 433 32 c 2
 447 32 l 2
 487 32 502 44 502 76 c 2
 502 321 l 1
 222 321 l 1
 222 76 l 2
 222 48 236 32 277 32 c 2
 291 32 l 2
 296 32 299 29 299 23 c 2
 299 0 l 1
 297 -2 l 1
 297 -2 196 0 160 0 c 0
 121 0 24 -2 24 -2 c 1
 22 0 l 1
 22 23 l 2
 22 29 26 32 30 32 c 2
 44 32 l 2
 84 32 99 44 99 76 c 2
 99 569 l 2
 99 601 84 613 44 613 c 2
 30 613 l 2
 26 613 22 616 22 621 c 2
 22 645 l 1
 24 647 l 1
 24 647 121 645 160 645 c 0
 196 645 297 647 297 647 c 1
 299 645 l 1
 299 621 l 2
 299 616 296 613 291 613 c 2
 277 613 l 2
 236 613 222 597 222 569 c 2
 222 367 l 1
 502 367 l 1
 502 569 l 2
EndSplineSet
EndChar

StartChar: u1D408
Encoding: 119816 119816 8
Width: 319
Flags: W
HStem: -2 34<24 92.7241 228.184 296> 613 34<24 92.7241 228.184 296>
VStem: 99 122<37.5094 607.491>
LayerCount: 2
Fore
SplineSet
221 76 m 2
 221 48 235 32 276 32 c 2
 290 32 l 2
 295 32 298 29 298 23 c 2
 298 0 l 1
 296 -2 l 1
 296 -2 196 0 160 0 c 0
 121 0 24 -2 24 -2 c 1
 22 0 l 1
 22 23 l 2
 22 29 26 32 30 32 c 2
 44 32 l 2
 84 32 99 44 99 76 c 2
 99 569 l 2
 99 601 84 613 44 613 c 2
 30 613 l 2
 26 613 22 616 22 621 c 2
 22 645 l 1
 24 647 l 1
 24 647 121 645 160 645 c 0
 196 645 296 647 296 647 c 1
 298 645 l 1
 298 621 l 2
 298 616 295 613 290 613 c 2
 276 613 l 2
 235 613 221 597 221 569 c 2
 221 76 l 2
EndSplineSet
EndChar

StartChar: u1D409
Encoding: 119817 119817 9
Width: 380
Flags: W
HStem: -182 60<0 111.118> 613 34<46 132.495 274.067 343>
VStem: 144 122<-31.7167 602.99>
LayerCount: 2
Fore
SplineSet
70 -122 m 0
 103 -122 144 -99 144 81 c 2
 144 554 l 2
 144 603 124 609 73 612 c 2
 53 613 l 2
 48 613 44 616 44 621 c 2
 44 645 l 1
 46 647 l 1
 93 646 145 645 184 645 c 0
 224 645 296 646 343 647 c 1
 345 645 l 1
 345 621 l 2
 345 616 342 613 337 613 c 2
 320 612 l 2
 279 610 266 597 266 569 c 2
 266 103 l 2
 266 -25 224 -92 166 -138 c 1
 121 -176 52 -182 27 -182 c 0
 -27 -182 -83 -167 -83 -119 c 0
 -83 -90 -51 -71 -32 -71 c 0
 9 -71 24 -89 37 -107 c 0
 47 -120 56 -122 70 -122 c 0
EndSplineSet
EndChar

StartChar: u1D40A
Encoding: 119818 119818 10
Width: 660
Flags: W
HStem: -2 34<24 92.7241 228.184 296 592.702 655> 613 34<24 92.7241 227.845 295 394 449>
VStem: 99 122<37.5094 294 368 607.491>
DStem2: 221 368 351 404 0.729537 0.683941<50.9707 327.506> 324 331 221 294 0.685275 -0.728284<-31.7083 302.124>
LayerCount: 2
Fore
SplineSet
221 76 m 2
 221 48 235 32 276 32 c 2
 290 32 l 2
 295 32 298 29 298 23 c 2
 298 0 l 1
 296 -2 l 1
 296 -2 196 0 160 0 c 0
 121 0 24 -2 24 -2 c 1
 22 0 l 1
 22 23 l 2
 22 29 26 32 30 32 c 2
 44 32 l 2
 84 32 99 44 99 76 c 2
 99 569 l 2
 99 601 84 613 44 613 c 2
 30 613 l 2
 26 613 22 616 22 621 c 2
 22 645 l 1
 24 647 l 1
 24 647 121 645 160 645 c 0
 196 645 295 647 295 647 c 1
 297 645 l 1
 297 621 l 2
 297 616 294 613 290 613 c 2
 275 613 l 2
 234 613 221 597 221 569 c 2
 221 368 l 1
 429 563 l 2
 443 576 468 611 430 611 c 0
 409 611 390 613 390 623 c 2
 390 644 l 1
 394 647 l 1
 394 647 489 645 528 645 c 0
 563 645 645 647 645 647 c 1
 650 644 l 1
 650 623 l 2
 650 614 637 612 620 611 c 1
 589 606 551 587 506 544 c 1
 351 404 l 2
 308 364 303.6 352.7 324 331 c 2
 563 77 l 2
 588 51 607 34 624 34 c 2
 642 34 l 2
 657 34 658 30 658 22 c 2
 658 0 l 1
 655 -2 l 1
 655 -2 563 0 525 0 c 0
 489 0 446 -2 446 -2 c 1
 442 2 l 1
 442 28 l 2
 442 47 442 57 427 72 c 2
 221 294 l 1
 221 76 l 2
EndSplineSet
EndChar

StartChar: u1D40B
Encoding: 119819 119819 11
Width: 538
Flags: W
HStem: 0 46<226.022 406.689> 0 32<26 97.3856> 613 34<24 93.4759 228.845 296>
VStem: 100 122<48.2759 607.491> 473 39<128.382 174.436>
LayerCount: 2
Fore
SplineSet
100 569 m 2
 100 601 84 613 45 613 c 2
 31 613 l 2
 26 613 22 616 22 621 c 2
 22 645 l 1
 24 647 l 1
 24 647 122 645 161 645 c 0
 196 645 296 647 296 647 c 1
 298 645 l 1
 298 621 l 2
 298 616 295 613 291 613 c 2
 276 613 l 2
 235 613 222 597 222 569 c 2
 222 92 l 2
 222 62 235 46 256 46 c 2
 342 46 l 2
 421 46 457 120 473 181 c 1
 512 173 l 1
 501 119 490 56 488 0 c 1
 144.8 0 l 2
 104.8 0 26 -2 26 -2 c 1
 22 0 l 1
 22 20 l 2
 22 27 26 32 38 32 c 2
 70 32 l 2
 94 32 100 41 100 72 c 2
 100 569 l 2
EndSplineSet
EndChar

StartChar: u1D40C
Encoding: 119820 119820 12
Width: 853
Flags: W
HStem: -12 21G<399.5 412> -2 34<26 95.4822 172.259 240 573 639.045 762.489 829> 613 33<67 130.252 717.755 786>
DStem2: 105 76 168 76 0.0567038 0.998391<-34.2015 377.163> 236 646 189 449 0.387297 -0.921955<163.422 529.31> 711 569 612 446 0.0868912 -0.996218<113.933 521.686>
LayerCount: 2
Fore
SplineSet
711 569 m 2
 754 76 l 2
 757 48 768 32 809 32 c 2
 823 32 l 2
 828 32 831 29 831 23 c 2
 831 0 l 1
 829 -2 l 1
 829 -2 730 0 695 0 c 0
 656 0 573 -2 573 -2 c 1
 571 0 l 1
 571 23 l 2
 571 29 575 32 579 32 c 2
 593 32 l 2
 633 32 646 45 643 76 c 2
 612 446 l 1
 552 300 433 7 433 7 c 2
 428 -3 420 -12 404 -12 c 0
 395 -12 379 -7 374 7 c 2
 374 7 262 278 189 449 c 1
 168 76 l 2
 166 44 179 32 220 32 c 2
 234 32 l 2
 239 32 242 29 242 23 c 2
 242 0 l 1
 240 -2 l 1
 240 -2 167 0 132 0 c 0
 93 0 26 -2 26 -2 c 1
 24 0 l 1
 24 23 l 2
 24 29 28 32 32 32 c 2
 42 32 l 2
 82 32 103 44 105 76 c 2
 133 569 l 2
 134.9 602 127 613 88 613 c 2
 74 613 l 2
 69 613 65 616 65 621 c 2
 65 645 l 1
 67 646 l 1
 67 646 197 646 236 646 c 1
 441 158 l 1
 504 315 569 491 631 646 c 1
 786 646 l 1
 788 645 l 1
 788 621 l 2
 788 616 785 613 780 613 c 2
 766 613 l 2
 725 613 708.6 597 711 569 c 2
EndSplineSet
EndChar

StartChar: u1D40D
Encoding: 119821 119821 13
Width: 710
Flags: W
HStem: -12 21G<559.5 586.5> -2 34<29 103.367 182.184 250> 613 33<25 81.1901 471 539.197 617.803 685>
VStem: 112 63<39.0858 470> 546 64<168 607.491>
DStem2: 170 646 112 560 0.60397 -0.797007<0 33.5123 143.293 608.062>
LayerCount: 2
Fore
SplineSet
546 569 m 2
 546 601 531 613 492 613 c 2
 478 613 l 2
 473 613 469 616 469 621 c 2
 469 645 l 1
 471 646 l 1
 471 646 539 645 578 645 c 0
 613 645 685 646 685 646 c 1
 687 645 l 1
 687 621 l 2
 687 616 684 613 679 613 c 2
 665 613 l 2
 624 613 610 597 610 569 c 2
 610 25 l 2
 610 3 601 -12 572 -12 c 0
 547 -12 535 2 525 15 c 2
 175 470 l 1
 175 76 l 2
 175 48 189 32 230 32 c 2
 244 32 l 2
 249 32 252 29 252 23 c 2
 252 0 l 1
 250 -2 l 1
 250 -2 177 0 142 0 c 0
 103 0 29 -2 29 -2 c 1
 27 0 l 1
 27 23 l 2
 27 29 31 32 35 32 c 2
 49 32 l 2
 89 32 112 44 112 76 c 2
 112 560 l 1
 94 585 74 613 42 613 c 0
 25 613 22 617 22 624 c 2
 22 643 l 1
 25 646 l 1
 170 646 l 1
 546 168 l 1
 546 569 l 2
EndSplineSet
EndChar

StartChar: u1D40E
Encoding: 119822 119822 14
Width: 730
Flags: W
HStem: -10 41<303.11 453.742> 617 41<284.435 429.841>
VStem: 37 131<190.561 438.95> 562 132<199.461 449.883>
LayerCount: 2
Fore
SplineSet
351 617 m 0
 266 617 168 532 168 328 c 0
 168 140 266 31 384 31 c 0
 485 31 562 136 562 310 c 0
 562 513 464 617 351 617 c 0
694 329 m 0
 694 129 566 -10 364 -10 c 0
 182 -10 37 113 37 311 c 0
 37 507 173 658 363 658 c 0
 540 658 694 528 694 329 c 0
EndSplineSet
EndChar

StartChar: u1D40F
Encoding: 119823 119823 15
Width: 550
Flags: W
HStem: -2 34<24 44 281 306> 279 40<221 346.677> 611 36<24 93.1927> 613 41<126.947 352.681>
VStem: 99 122<44.5532 282 319.949 606.701> 406 127<391.868 561.741>
LayerCount: 2
Fore
SplineSet
221 558 m 2
 221 322 l 1
 235 320 256 319 271 319 c 0
 353 319 406 363 406 467 c 0
 406 589 339 613 281 613 c 0
 228 613 221 593 221 558 c 2
99 89 m 2
 99 560 l 2
 99 595 87 610 65 611 c 2
 33 613 l 2
 25 613 22 617 22 621 c 2
 22 645 l 1
 24 647 l 1
 83 647 208 654 289 654 c 0
 490 654 533 548 533 484 c 0
 533 388 473 279 276 279 c 0
 252 279 235 280 221 282 c 1
 221 89 l 2
 221 51 241.2 38.2 281 34 c 2
 300 32 l 2
 306 31.4 308 29 308 23 c 2
 308 0 l 1
 306 -2 l 1
 269 -1 198 0 160 0 c 0
 122 0 61 -1 24 -2 c 1
 22 0 l 1
 22 23 l 2
 22 29 26.1 31.4 30 32 c 2
 44 34 l 2
 84.7 39.8 99 51 99 89 c 2
EndSplineSet
EndChar

StartChar: u1D410
Encoding: 119824 119824 16
Width: 730
VWidth: 999
Flags: W
HStem: -219 67<491.283 620.202> -124 54<243.5 328.318> -10 41<303.11 453.742> -2 30<382.451 415.1> 617 41<284.435 429.841>
VStem: 37 131<190.561 438.95> 562 132<199.461 449.883>
AnchorPoint: "top_punkt" 346 719 basechar 0
LayerCount: 2
Fore
SplineSet
351 617 m 0xee
 266 617 168 532 168 328 c 0
 168 140 266 31 384 31 c 0
 485 31 562 136 562 310 c 0
 562 513 464 617 351 617 c 0xee
156.6 -129.9 m 0
 192.9 -86.3 249.5 -38.3 311.2 -6.4 c 1
 154.7 15.1 37 132.6 37 311 c 0
 37 507 173 658 363 658 c 0
 540 658 694 528 694 329 c 0
 694 141.1 580.9 7 399.7 -8.5 c 1
 370 -19 329.7 -39.5 288.3 -70.4 c 1
 291.7 -70.1 294.9 -70 298 -70 c 0
 408 -70 489 -152 577 -152 c 0
 606 -152 642 -142 664 -115 c 1
 681 -137 l 1
 642 -193 600 -219 537 -219 c 0
 407 -219 344 -124 251 -124 c 0
 243.1 -124 228.8 -127.6 214.2 -137.7 c 1
 201.5 -151.7 189.4 -166.8 178 -183 c 1
 139 -153 l 1
 143.8 -144.7 149.8 -137 156.6 -129.9 c 0
EndSplineSet
EndChar

StartChar: u1D411
Encoding: 119825 119825 17
Width: 609
VWidth: 999
Flags: W
HStem: -1 34<24 91.8165 227.855 296> 5 35<552.269 614> 276 46<221 307.856> 613 41<223.352 363.21>
VStem: 99 122<38.748 276 322 603.215> 412 120<379.798 560.258>
DStem2: 418 294 316 247 0.465188 -0.885212<-0.580335 264.662>
AnchorPoint: "unten_punkt" 292 -111 basechar 0
AnchorPoint: "top_punkt" 302 725 basechar 0
LayerCount: 2
Fore
SplineSet
412 468 m 0x3c
 412 567 362 613 302 613 c 0
 266 613 245 610 221 605 c 1
 221 322 l 1
 270 322 l 2
 367 322 412 368 412 468 c 0x3c
532 482 m 0
 532 381 489 332 418 294 c 1
 521 98 l 2
 543 54 574 35 614 40 c 1
 618 5 l 1x7c
 589 -4 551 -6 536 -6 c 0
 477 -6 432 32 406 79 c 2
 316 247 l 2
 302 272 273 276 221 276 c 1
 221 77 l 2
 221 46 236 33 276 33 c 2
 290 33 l 2
 294 33 298 30 298 24 c 2
 298 1 l 1
 296 -1 l 1
 296 -1 222 1 183 1 c 0
 147 1 24 -1 24 -1 c 1
 22 1 l 1
 22 24 l 2
 22 30 25 33 30 33 c 2
 44 33 l 2xbc
 85 33 99 49 99 77 c 2
 99 559 l 2
 99 587 95 604 69 604 c 0
 66 604 64 604 62 604 c 2
 32 601 l 2
 27 601 24 604 24 608 c 2
 24 642 l 1
 45 647 180 654 297 654 c 0
 417 654 532 604 532 482 c 0
EndSplineSet
EndChar

StartChar: u1D412
Encoding: 119826 119826 18
Width: 475
VWidth: 999
Flags: W
HStem: -10 41<154.843 292.988> 0 21G<52 61.5> 619 39<169.278 290.653>
VStem: 34 40<123.525 175.525> 42 95<458.92 571.246> 334 107<83.8232 221.701> 363 40<478.125 529.967>
AnchorPoint: "unten_punkt" 234 -111 basechar 0
AnchorPoint: "top_punkt" 251 719 basechar 0
LayerCount: 2
Fore
SplineSet
382 631 m 1
 386 578 394 528 403 479 c 1
 363 474 l 1
 345 540 312 619 227 619 c 0
 161 619 137 573 137 517 c 0
 137 453 216 403 258 388 c 0
 342 358 441 305 441 184 c 0
 441 51 355 -10 241 -10 c 0
 143 -10 123 5 99 5 c 0
 79 5 70 0 53 0 c 1
 51 51 44 99 34 175 c 1
 74 178 l 1
 94 87 153 31 220 31 c 0
 296 31 334 71 334 145 c 0
 334 203 304 254 243 278 c 0
 171 306 42 368 42 485 c 0
 42 605 142 658 228 658 c 0
 321 658 327 639 382 631 c 1
EndSplineSet
EndChar

StartChar: u1D413
Encoding: 119827 119827 19
Width: 597
VWidth: 999
Flags: W
HStem: -2 34<151 230.816 366.855 447> 599 46<70.4923 235.855 362.438 526.846>
VStem: 8 39<518.103 570.778> 30 36<645.204 669> 238 122<37.748 595.906> 532 36<647.479 669> 550 40<518.125 570.778>
AnchorPoint: "unten_punkt" 301 -107 basechar 0
AnchorPoint: "top_punkt" 296 719 basechar 0
LayerCount: 2
Fore
SplineSet
87 645 m 2
 510 645 l 2
 531 645 532 663 532 669 c 1
 568 673 l 1
 572 624 579 572 590 519 c 1
 550 514 l 1
 530 594 517 599 462 599 c 2
 408 599 l 2
 372 599 360 590 360 557 c 2
 360 76 l 2
 360 45 375 32 415 32 c 2
 441 32 l 2
 445 32 449 29 449 23 c 2
 449 0 l 1
 447 -2 l 1
 447 -2 328 0 289 0 c 0
 253 0 151 -2 151 -2 c 1
 149 0 l 1
 149 23 l 2
 149 29 152 32 157 32 c 2
 183 32 l 2
 224 32 238 48 238 76 c 2
 238 560 l 2
 238 590 226 599 189 599 c 2
 136 599 l 2
 81 599 67 594 47 514 c 1
 8 519 l 1
 19 572 26 624 30 673 c 1
 66 669 l 1
 66 663 66 645 87 645 c 2
EndSplineSet
EndChar

StartChar: u1D414
Encoding: 119828 119828 20
Width: 678
Flags: W
HStem: -10 41<290.084 433.392> 613 32<9 76.5971 215.067 281 445 513.259 602.451 669>
VStem: 84 123<130.61 607.491> 521 73<132.604 607.491>
LayerCount: 2
Fore
SplineSet
521 569 m 2
 521 601 505 613 466 613 c 2
 452 613 l 2
 447 613 443 616 443 621 c 2
 443 645 l 1
 445 646 l 1
 445 646 518 645 557 645 c 0
 593 645 669 646 669 646 c 1
 671 645 l 1
 671 621 l 2
 671 616 668 613 663 613 c 2
 649 613 l 2
 608 613 594 597 594 569 c 2
 594 295 l 2
 594 117 555 -10 334 -10 c 0
 237 -10 84 47 84 237 c 2
 84 569 l 2
 84 601 69 613 30 613 c 2
 16 613 l 2
 11 613 7 616 7 621 c 2
 7 645 l 1
 9 646 l 1
 9 646 106 645 146 645 c 0
 181 645 281 646 281 646 c 1
 283 645 l 1
 283 621 l 2
 283 616 280 613 275 613 c 2
 261 613 l 2
 220 613 207 597 207 569 c 2
 207 270 l 2
 207 204 207 127 253 80 c 1
 282 52 318 31 355 31 c 0
 502 31 521 170 521 278 c 2
 521 569 l 2
EndSplineSet
EndChar

StartChar: u1D415
Encoding: 119829 119829 21
Width: 636
VWidth: 999
Flags: W
HStem: -12 21G<305.5 316> 613 32<2 64.874 205.414 282 421 489.135 569.977 635>
DStem2: 205 572 88 554 0.330273 -0.943885<-28.2337 410.201> 341 185 345 11 0.349978 0.936758<0 442.237>
AnchorPoint: "unten_punkt" 303 -108 basechar 0
AnchorPoint: "top_punkt" 329 722 basechar 0
LayerCount: 2
Fore
SplineSet
427 613 m 0
 423 613 419 616 419 621 c 2
 419 645 l 1
 421 646 l 1
 421 646 508 645 547 645 c 0
 583 645 635 646 635 646 c 1
 637 645 l 1
 637 621 l 2
 637 616 634 613 629 613 c 0
 573 613 566 602 546 549 c 2
 345 11 l 2
 339 -4 321 -12 311 -12 c 0
 300 -12 283 -4 278 11 c 2
 88 554 l 2
 71 600 59 613 8 613 c 0
 4 613 0 616 0 621 c 2
 0 645 l 1
 2 646 l 1
 2 646 99 645 138 645 c 0
 174 645 282 646 282 646 c 1
 284 645 l 1
 284 621 l 2
 284 616 281 613 276 613 c 0
 213 613 194 603 205 572 c 2
 330 216 l 1
 341 185 l 1
 353 213 l 1
 483 562 l 2
 499 604 492 613 427 613 c 0
EndSplineSet
EndChar

StartChar: u1D416
Encoding: 119830 119830 22
Width: 998
VWidth: 999
Flags: W
HStem: -12 21G<295.5 324.5 642 677> 613 33<2 59.625 200.357 254 344 408.201 550.683 610 769 832.647 908.656 976>
DStem2: 204 572 80 562 0.313524 -0.94958<-31.8815 448.415> 344 146 368 33 0.312844 0.949805<0 265.721> 553 554 443 508 0.313554 -0.94957<-47.1214 36.9442 143.308 436.401> 688 139 720 44 0.314572 0.949234<0 485.022>
AnchorPoint: "unten_punkt" 470 -107 basechar 0
AnchorPoint: "top_punkt" 491 722 basechar 0
LayerCount: 2
Fore
SplineSet
312 -12 m 0
 279 -12 265 5 254 35 c 1
 80 562 l 2
 71 587 53 613 25 613 c 2
 12 613 l 2
 5 613 0 616 0 621 c 2
 0 644 l 1
 2 646 l 1
 2 646 75 645 113 645 c 0
 164 645 254 646 254 646 c 1
 257 644 l 1
 257 622 l 2
 257 616 253 613 248 613 c 0
 209 613 191 609 204 572 c 2
 321 218 l 1
 344 146 l 1
 367 216 l 1
 441 442 l 2
 445 454 448 467 448 480 c 0
 448 489 447 498 443 508 c 2
 422 572 l 2
 414 599 396 613 357 613 c 2
 354 613 l 2
 347 613 342 616 342 621 c 2
 342 644 l 1
 344 646 l 1
 344 646 400 645 440 645 c 0
 489 645 610 646 610 646 c 1
 612 644 l 1
 612 620 l 2
 612 615 607 613 604 613 c 0
 568 613 534 611 553 554 c 2
 667 207 l 1
 688 139 l 1
 714 215 l 1
 832 569 l 2
 844 605 822 613 774 613 c 0
 770 613 766 617 766 620 c 2
 766 644 l 1
 769 646 l 1
 769 646 850 645 892 645 c 0
 924 645 976 646 976 646 c 1
 978 645 l 1
 978 621 l 2
 978 613 967 613 966 613 c 2
 955 613 l 2
 916 613 905 601 891 560 c 2
 720 44 l 2
 707 4 691 -12 663 -12 c 0
 621 -12 608 7 598 39 c 2
 489 367 l 2
 486 376 485 380 483 380 c 0
 482 380 480 375 479 370 c 2
 368 33 l 2
 359 4 337 -12 312 -12 c 0
EndSplineSet
EndChar

StartChar: u1D417
Encoding: 119831 119831 23
Width: 708
VWidth: 999
Flags: W
HStem: -2 34<6 77.2637 175.139 221 431 479.696 642.975 703> 613 32<24 81.6763 243.172 295 464 510.913 615.064 682>
DStem2: 253 572 129 549 0.578967 -0.815351<-30.4141 207.826 286.619 564.202> 388 412 565 552 0.640675 0.767812<-16.6551 209.908>
AnchorPoint: "unten_punkt" 318 -107 basechar 0
AnchorPoint: "top_punkt" 363 721 basechar 0
LayerCount: 2
Fore
SplineSet
24 620 m 2
 24 645 l 1
 29 646 l 1
 55 646 119 645 130 645 c 0
 135 645 260 646 291 646 c 1
 291 646 294 645 295 645 c 1
 295 620 l 2
 295 615 293 613 290 613 c 0
 239 613 233 603 253 572 c 2
 360 414 l 2
 373 396 375 397 388 412 c 0
 428 461 479 524 506 572 c 0
 526 609 492 613 469 613 c 0
 466 613 462 615 462 620 c 2
 462 645 l 1
 464 646 l 1
 486 646 573 645 584 645 c 0
 589 645 664 646 682 646 c 1
 684 645 l 1
 684 620 l 2
 684 617 684 613 675 613 c 0
 624 613 594 586 565 552 c 2
 421 383 l 2
 403 362 404 358 438 312 c 2
 591 102 l 2
 619 63 653 32 697 32 c 0
 702 32 704 28 704 24 c 2
 704 0 l 1
 703 -2 l 1
 675 -1 609 0 597 0 c 0
 591 0 431 -2 431 -2 c 1
 428 0 l 1
 428 25 l 2
 428 29 431 32 434 32 c 0
 494 32 492 38 467 73 c 2
 345 246 l 2
 324 277 321 277 307 258 c 0
 263 201 219 136 183 77 c 0
 158 35 195 32 218 32 c 0
 222 32 224 28 224 24 c 2
 224 0 l 1
 221 -2 l 1
 221 -2 104 0 90 0 c 0
 85 0 6 -2 6 -2 c 1
 5 0 l 1
 5 25 l 2
 5 30 10 32 16 32 c 0
 75 32 100 65 131 104 c 2
 277 291 l 1
 294 311 293 316 273 344 c 2
 129 549 l 2
 90 605 52 613 35 613 c 0
 28 613 24 615 24 620 c 2
EndSplineSet
EndChar

StartChar: u1D418
Encoding: 119832 119832 24
Width: 617
VWidth: 999
Flags: W
HStem: -1 34<167 249.271 380.901 464> 613 34<2 65.7637 188.987 243 417 464.721 539.845 615>
VStem: 254 122<37.166 281>
DStem2: 197 576 97 553 0.499906 -0.86608<-27.9379 279.078> 336 334 376 293 0.468465 0.883482<0 295.737>
AnchorPoint: "unten_punkt" 316 -109 basechar 0
AnchorPoint: "top_punkt" 315 722 basechar 0
LayerCount: 2
Fore
SplineSet
254 72 m 2
 254 281 l 1
 97 553 l 2
 63 610 50 613 23 613 c 2
 11 613 l 2
 5 613 0 615 0 620 c 2
 0 645 l 1
 2 647 l 1
 2 647 116 645 129 645 c 0
 135 645 243 647 243 647 c 1
 245 645 l 1
 245 621 l 2
 245 617 243 613 238 613 c 0
 187 613 177 609 197 576 c 2
 336 334 l 1
 464 576 l 2
 475 596 457 613 421 613 c 0
 416 613 415 617 415 620 c 2
 415 645 l 1
 417 647 l 1
 417 647 496 645 508 645 c 0
 517 645 615 647 615 647 c 1
 617 645 l 1
 617 621 l 2
 617 615 613 613 607 613 c 2
 586 613 l 2
 556 613 542 606 525 574 c 2
 376 293 l 1
 376 72 l 2
 376 41 392 33 431 33 c 2
 458 33 l 2
 462 33 466 30 466 24 c 2
 466 1 l 1
 464 -1 l 1
 464 -1 355 1 316 1 c 0
 280 1 167 -1 167 -1 c 1
 166 1 l 1
 166 24 l 2
 166 30 168 33 173 33 c 2
 200 33 l 2
 241 33 254 44 254 72 c 2
EndSplineSet
EndChar

StartChar: u1D419
Encoding: 119833 119833 25
Width: 624
VWidth: 999
Flags: W
HStem: 0 44<188.684 499.676> 602 43<134.566 417.995> 638 20G<66 86.5>
VStem: 46 39<490.103 537.024> 557 41<114.968 165.854>
DStem2: 28 38 193 72 0.583791 0.811904<105.537 679.919>
AnchorPoint: "unten_punkt" 308 -107 basechar 0
AnchorPoint: "top_punkt" 319 720 basechar 0
LayerCount: 2
Fore
SplineSet
572 0 m 1
 39 0 l 2
 25 0 20 5 20 15 c 0
 20 22 22 30 28 38 c 2
 417 579 l 2
 424 589 433 602 415 602 c 2
 200 602 l 2
 125 602 107 555 85 486 c 1
 46 491 l 1
 54 532 64 604 68 658 c 1
 105 655 102 645 149 645 c 2
 506 645 l 1
 537 648 556 650 569 650 c 0
 588 650 591 647 591 640 c 0
 591 629 587 619 567 591 c 2
 193 72 l 2
 180 53 178 44 209 44 c 2
 432 44 l 2
 508 44 537 98 557 170 c 1
 598 165 l 1
 587 113 576 56 572 0 c 1
EndSplineSet
EndChar

StartChar: u1D41A
Encoding: 119834 119834 26
Width: 476
Flags: W
HStem: -10 55<110.871 229.853 351 447.215> 406 38<148.426 256.61>
VStem: 36 105<56.7004 159.155> 48 93<295.994 379.736> 282 108<69.6589 219 257 374.929>
DStem2: 210 236 225 202 0.96 0.28<-70.2096 64.36>
LayerCount: 2
Fore
SplineSet
281 48 m 1xd8
 242.5 14.5 198 -10 156 -10 c 0
 69 -10 36 26 36 95 c 0xe8
 36 174 106.9 205.9 210 236 c 2
 282 257 l 1
 282 384 254 406 212 406 c 0
 174 406 141 393 141 371 c 0
 141 351 147 340 147 328 c 0
 147 314 123 290 95 290 c 0
 59 290 48 306 48 332 c 0
 48 392 153 444 226 444 c 0
 308 444 390 415 390 271 c 2
 390 126 l 2
 390 80 391 42 430 42 c 0
 454.2 42 455.2 58 461 58 c 0
 465 58 474 45 474 38 c 0
 474 33 436 -10 381 -10 c 0
 321 -10 295 9.5 283 48 c 1
 281 48 l 1xd8
282 85 m 1
 282 219 l 1
 225 202 l 2
 154.7 181 141 151 141 110 c 0
 141 75 156 45 204 45 c 0
 222 45 257 65 282 85 c 1
EndSplineSet
Substitution2: "LinLibertine-'sinf' Wissenschaftliche Indices 1" u1D41A.inferior
Substitution2: "LinLibertine-'sups' Hochgestellte 1" u1D41A.superior
EndChar

StartChar: u1D41B
Encoding: 119835 119835 27
Width: 505
Flags: W
HStem: -10 41<188.988 292.544> 393 51<215.683 304.122> 638 34<6.01603 44> 678 20G<158.465 175.5>
VStem: 74 110<40.573 375.172 402 635.227> 353 115<135.572 330.968>
LayerCount: 2
Fore
SplineSet
184 56 m 1
 201 37 216 31 234 31 c 0
 313 31 353 109 353 220 c 0
 353 318 310 393 261 393 c 0
 237.5 393 217 383.5 184 362 c 1
 184 56 l 1
74 563 m 2
 74 628 64 636 44 636 c 1
 12 638 l 2
 8.8 638.2 6.3 640 6 643 c 2
 3 672 l 1
 43.5 675 145.9 688 171 698 c 1
 180 698 187 695 187 688 c 2
 187 688 184 648 184 583 c 2
 184 402 l 1
 213 423 248 444 286 444 c 0
 384 444 468 366 468 243 c 0
 468 83 350 -10 239 -10 c 0
 195 -10 158 12 134 40 c 1
 104 -13 l 1
 70 -7 l 1
 73 17 74 36 74 74 c 2
 74 563 l 2
EndSplineSet
Substitution2: "LinLibertine-'sinf' Wissenschaftliche Indices 1" b.inferior
Substitution2: "LinLibertine-'sups' Hochgestellte 1" u1D41B.superior
EndChar

StartChar: u1D41C
Encoding: 119836 119836 28
Width: 435
Flags: W
HStem: -10 51<217.015 335.943> 402 42<202.671 287.291>
VStem: 37 114<121.53 309.251> 304 107<294.396 387.973>
LayerCount: 2
Fore
SplineSet
406 87 m 1
 376 26 320 -10 249 -10 c 0
 107 -10 37 71 37 201 c 0
 37 344 135 444 253 444 c 0
 362 444 411 394 411 340 c 0
 411 309 393 284 361 284 c 0
 329 284 307 304 304 331 c 0
 301 363 287 402 249 402 c 0
 196 402 151 337 151 226 c 0
 151 118 209 41 275 41 c 0
 312 41 343 58 386 106 c 1
 406 87 l 1
EndSplineSet
Substitution2: "LinLibertine-'sinf' Wissenschaftliche Indices 1" c.inferior
Substitution2: "LinLibertine-'sups' Hochgestellte 1" u1D41C.superior
EndChar

StartChar: u1D41D
Encoding: 119837 119837 29
Width: 527
Flags: W
HStem: -10 50<201.993 305.84> 28 31<462.031 508> 402 42<202.292 301.893> 638 34<266.016 304> 678 20G<418.466 435.5>
VStem: 37 115<105.179 315.346> 334 110<71.0411 371.307 419 635.227>
LayerCount: 2
Fore
SplineSet
334 343 m 1
 312 376 286 402 255 402 c 0
 214 402 152 367 152 222 c 0
 152 96 199 40 256 40 c 0
 276 40 298 50 334 84 c 1
 334 343 l 1
444 583 m 2
 444 115 l 2
 444 85 455 64 508 59 c 1
 510 28 l 1
 444 21 401 5 368 -12 c 1
 334 -12 l 1
 336 35 l 1
 298 2 273 -10 231 -10 c 0
 125 -10 37 81 37 205 c 0
 37 276 59 338 105 384 c 1
 146 422 192 444 269 444 c 0
 285 444 320 433 334 419 c 1
 334 563 l 2
 334 628 324 636 304 636 c 1
 272 638 l 2
 268.8 638.2 266.3 640 266 643 c 2
 263 672 l 1
 303.5 675 405.9 688 431 698 c 1
 440 698 447 695 447 688 c 2
 447 688 444 648 444 583 c 2
EndSplineSet
Substitution2: "LinLibertine-'sinf' Wissenschaftliche Indices 1" d.inferior
Substitution2: "LinLibertine-'sups' Hochgestellte 1" u1D41D.superior
EndChar

StartChar: u1D41E
Encoding: 119838 119838 30
Width: 461
Flags: W
HStem: -10 56<218.732 346.305> 245 40<154 316> 402 42<199.114 288.493>
VStem: 34 115<124.669 245 285 306.603> 316 115<259 363.973>
LayerCount: 2
Fore
SplineSet
154 285 m 1
 314 285 l 1
 316 287 316 290 316 296 c 0
 316 376 275 402 248 402 c 0
 227 402 168 387 154 285 c 1
397 109 m 1
 422 88 l 1
 385 13 315 -10 246 -10 c 0
 94 -10 34 88 34 198 c 0
 34 351 144 444 249 444 c 0
 396 444 431 351 431 266 c 0
 431 252 416 245 392 245 c 2
 149 245 l 1
 149 240 149 226 149 219 c 0
 149 121 207 46 285 46 c 0
 323 46 360 64 397 109 c 1
EndSplineSet
Substitution2: "LinLibertine-'sinf' Wissenschaftliche Indices 1" u1D41E.inferior
Substitution2: "LinLibertine-'sups' Hochgestellte 1" u1D41E.superior
EndChar

StartChar: u1D41F
Encoding: 119839 119839 31
Width: 336
Flags: W
HStem: -2 34<31 51 263 287> 387 47<26.0674 99 209 325> 656 42<236.761 302.441>
VStem: 99 110<43.1437 387 434 564.894>
AnchorPoint: "unten_punkt" 132 -111 basechar 0
LayerCount: 2
Fore
SplineSet
99 75 m 2
 99 387 l 1
 53 387 l 2
 30 387 26 390 26 397 c 2
 26 411 l 2
 26 419 36 434 70 434 c 2
 99 434 l 1
 99 444 l 2
 99 609 145 698 248 698 c 0
 354 698 387 641 387 624 c 0
 387 599 370 574 341 574 c 0
 310 574 288.588506588 589.015253562 280 614 c 0
 269 646 244.9765625 658.809570312 229 653 c 0
 207 645 209 634 209 485 c 2
 209 434 l 1
 305 434 l 2
 324 434 325 430 325 424 c 2
 325 404 l 2
 325 392 308 387 290 387 c 2
 209 387 l 1
 209 78 l 2
 209 50 231.8 37.5 263 34 c 2
 281 32 l 2
 285 31 289 29 289 23 c 2
 289 0 l 1
 287 -2 l 1
 287 -2 191 0 152 0 c 0
 116 0 31 -2 31 -2 c 1
 29 0 l 1
 29 23 l 2
 29 29 32 31 37 32 c 2
 51 34 l 2
 84 39 99 47 99 75 c 2
EndSplineSet
Substitution2: "LinLibertine-'sinf' Wissenschaftliche Indices 1" f.inferior
Substitution2: "LinLibertine-'sups' Hochgestellte 1" u1D41F.superior
EndChar

StartChar: u1D420
Encoding: 119840 119840 32
Width: 508
Flags: MW
HStem: -238 42<178.622 331.027> -12 68<200.45 373.262> 135 37<205.129 289.171> 409 35<196.474 280.87> 424 43<370.607 460>
VStem: 38 94<-154.282 -55.8943> 62 106<210.3 365.373> 71 84<55.4643 131.752> 316 108<211.187 370.331> 406 91<-121.914 -39.1241>
AnchorPoint: "unten_punkt" 229 -319 basechar 0
LayerCount: 2
Fore
SplineSet
312 284 m 0xf0
 312 363 280 409 233 409 c 0
 194 409 164 375 164 301 c 0
 164 250 184 172 246 172 c 0
 272 172 312 188 312 284 c 0xf0
183 -15 m 0
 171 -15 160 -15 150 -11 c 1
 129 -33 128 -62 128 -96 c 0
 128 -167 203 -196 231 -196 c 0
 306 -196 402 -156 402 -81 c 0
 402 -15 301 -12 256 -12 c 0
 247 -12 238 -13 225 -14 c 0
 210 -15 194 -15 183 -15 c 0
447 383 m 0
 422 383 414 399 410 412 c 1
 407 418 404 424 395 424 c 0xe8
 385 424 374 416 366 406 c 1
 400 378 420 343 420 287 c 0
 420 189 335 135 241 135 c 0
 210 135 178.5 140 157.5 150 c 1
 152.5 138 151 117 151 101 c 0
 151 61 178 49 196 49 c 0
 205 49 252 56 290 56 c 0
 453 56 493 -17 493 -55 c 0
 493 -165 342 -238 203 -238 c 0
 121 -238 34 -205 34 -116 c 0
 34 -77 63 -34 115 1 c 1
 87 18 67 42 67 74 c 0
 67 105 89 138.5 119 166.5 c 1
 82 192 58 243 58 292 c 0
 58 385 146 444 242 444 c 0xf0
 287 444 318 435 336 425 c 1
 365 451 410 467 437 467 c 0xe8
 475 467 491 442 491 423 c 0
 491 399 475 383 447 383 c 0
EndSplineSet
Substitution2: "LinLibertine-'sinf' Wissenschaftliche Indices 1" g.inferior
Substitution2: "LinLibertine-'sups' Hochgestellte 1" u1D420.superior
EndChar

StartChar: u1D421
Encoding: 119841 119841 33
Width: 550
Flags: W
HStem: -2 34<19 37 517 534> 390 55<268.267 393> 638 34<17.016 55> 678 20G<169.465 186.5>
VStem: 85 110<43.2797 355.227 381 635.227> 358 110<43.1478 384.199>
LayerCount: 2
Fore
SplineSet
468 77 m 2
 468 49 484.4 39.9 517 34 c 2
 528 32 l 2
 531.9 31.3 536 29 536 23 c 2
 536 0 l 1
 534 -2 l 1
 534 -2 450 0 411 0 c 0
 376 0 297 -2 297 -2 c 1
 295 0 l 1
 295 23 l 2
 295 29 298.1 31.2 303 32 c 2
 310 34 l 2
 340.8 42.8 358 49 358 77 c 2
 358 295 l 2
 358 373 348 390 308 390 c 0
 290 390 241 374 195 341 c 1
 195 77 l 2
 195 49 212.1 43.1 244 34 c 2
 251 32 l 2
 254.9 31.3 259 29 259 23 c 2
 259 0 l 1
 257 -2 l 1
 257 -2 177 0 138 0 c 0
 103 0 19 -2 19 -2 c 1
 17 0 l 1
 17 23 l 2
 17 29 20.1 31.2 25 32 c 2
 37 34 l 2
 68.6 39.3 85 49 85 77 c 2
 85 563 l 2
 85 628 75 636 55 636 c 1
 23 638 l 2
 19.8 638.2 17.3 640 17 643 c 2
 14 672 l 1
 54.5 675 156.9 688 182 698 c 1
 191 698 198 695 198 688 c 2
 198 688 195 648 195 583 c 2
 195 381 l 1
 250 422 313 445 350 445 c 0
 436 445 468 389 468 284 c 2
 468 77 l 2
EndSplineSet
Substitution2: "LinLibertine-'sinf' Wissenschaftliche Indices 1" h.inferior
Substitution2: "LinLibertine-'sups' Hochgestellte 1" u1D421.superior
EndChar

StartChar: u1D422
Encoding: 119842 119842 34
Width: 286
VWidth: 999
Flags: W
HStem: -2 34<37 54 258 274> 387 30<38 79> 427 20G<191.25 208.219> 511 120<108.745 201.255>
VStem: 101 110<41.5278 383 522.108 619.892>
AnchorPoint: "unten_punkt" 136 -107 basechar 0
LayerCount: 2
Fore
SplineSet
211 321.3 m 2
 211 77 l 2
 211 49 228.4 39.9 258 34 c 2
 268 32 l 2
 271.9 31.1 276 29 276 23 c 2
 276 0 l 1
 274 -2 l 1
 274 -2 193 0 154 0 c 0
 118 0 37 -2 37 -2 c 1
 35 0 l 1
 35 23 l 2
 35 29 38.1 31.3 42 32 c 2
 54 34 l 2
 85 39.2 101 49 101 77 c 2
 101 321 l 2
 101 371 93 382 79 383 c 2
 38 387 l 1
 36 417 l 1
 105.5 426.5 175.5 437 207 447 c 0
 209.4 447 214 446.4 214 444 c 2
 214 444 211 371.3 211 321.3 c 2
95 571 m 0
 95 604 122 631 155 631 c 0
 188 631 215 604 215 571 c 0
 215 538 188 511 155 511 c 0
 122 511 95 538 95 571 c 0
EndSplineSet
Substitution2: "LinLibertine-'sinf' Wissenschaftliche Indices 1" i.inferior
Substitution2: "LinLibertine-'sups' Hochgestellte 1" u1D422.superior
EndChar

StartChar: u1D423
Encoding: 119843 119843 35
Width: 289
VWidth: 999
Flags: W
HStem: -227.7 42.1<35.3144 87.2183> 383 34<34 85> 427 20<196.25 213.219> 511 120<101.745 194.255>
VStem: 88 120<524.745 617.255> 107 110<-103.394 379>
LayerCount: 2
Fore
SplineSet
217 321.3 m 2
 217 70 l 2
 217 -97.7 181.3 -227.7 38.3 -227.7 c 0
 -8.3 -227.7 -63 -201.4 -63 -158 c 0
 -63 -130.3 -44 -120.9 -25.5 -120.9 c 0
 37.4 -120.9 28.1 -185.6 56.2 -185.6 c 0
 122.9 -185.6 107 0 107 80 c 2
 107 321 l 2
 107 371 99 378 85 379 c 2
 34 383 l 1
 32 417 l 1
 101.5 426.5 180.5 437 212 447 c 0
 214.4 447 219 445.4 219 443 c 2
 219 443 217 371.3 217 321.3 c 2
86 571 m 0
 86 605 114 633 148 633 c 0
 182 633 210 605 210 571 c 0
 210 537 182 509 148 509 c 0
 114 509 86 537 86 571 c 0
EndSplineSet
Substitution2: "LinLibertine-'sinf' Wissenschaftliche Indices 1" j.inferior
Substitution2: "LinLibertine-'sups' Hochgestellte 1" u1D423.superior
EndChar

StartChar: u1D424
Encoding: 119844 119844 36
Width: 523
Flags: W
HStem: -2 34<17 35 474 508> 402 34<273 302 453 490> 638 34<15.016 53> 678 20G<167.465 184.5>
VStem: 83 110<43.2797 209 249 635.227>
LayerCount: 2
Fore
SplineSet
83 77 m 2
 83 563 l 2
 83 628 73 636 53 636 c 1
 21 638 l 2
 17.8 638.2 15.3 640 15 643 c 2
 12 672 l 1
 52.5 675 154.9 688 180 698 c 1
 189 698 196 695 196 688 c 2
 196 688 193 648 193 583 c 2
 193 249 l 1
 214 252 236.3 266.2 249 277.2 c 0
 269 294.5 290 319.5 313 349 c 0
 336.9 379.7 316.9 398.6 302 400 c 2
 281 402 l 2
 270 403 268 406 268 412 c 2
 268 434 l 1
 273 436 l 1
 273 436 340 434 375 434 c 0
 414 434 490 436 490 436 c 1
 493 434 l 1
 493 412 l 2
 493 404 492 402.6 483 402 c 2
 453 400 l 2
 434.6 398.8 398 375 374 351 c 1
 350 324 299 269 299 269 c 2
 295 264 297 256 302 249 c 2
 418 78 l 2
 435 52 459.1 36.5 474 35 c 2
 503 32 l 2
 508 31.5 511 30 511 26 c 2
 511 0 l 1
 508 -2 l 1
 508 -2 438 0 399 0 c 0
 364 0 315 -2 315 -2 c 1
 313 0 l 1
 313 26 l 2
 313 41 310 50 297 78 c 0
 280.1 114.5 252 156 229 190 c 0
 218.5 205.5 209 208 193 209 c 1
 193 77 l 2
 193 49 210.1 43.1 242 34 c 2
 249 32 l 2
 252.9 31.3 257 29 257 23 c 2
 257 0 l 1
 255 -2 l 1
 255 -2 175 0 136 0 c 0
 101 0 17 -2 17 -2 c 1
 15 0 l 1
 15 23 l 2
 15 29 18.1 31.2 23 32 c 2
 35 34 l 2
 66.6 39.3 83 49 83 77 c 2
EndSplineSet
Substitution2: "LinLibertine-'sinf' Wissenschaftliche Indices 1" k.inferior
Substitution2: "LinLibertine-'sups' Hochgestellte 1" u1D424.superior
EndChar

StartChar: u1D425
Encoding: 119845 119845 37
Width: 289
Flags: W
HStem: -2 34<29 47 254 271> 638 34<27.016 65> 678 20G<179.465 196.5>
VStem: 95 110<41.8692 635.227>
LayerCount: 2
Fore
SplineSet
95 563 m 2
 95 628 85 636 65 636 c 1
 33 638 l 2
 29.8 638.2 27.3 640 27 643 c 2
 24 672 l 1
 64.5 675 166.9 688 192 698 c 1
 201 698 208 695 208 688 c 2
 208 688 205 648 205 583 c 2
 205 77 l 2
 205 49 221.4 39.9 254 34 c 2
 265 32 l 2
 268.9 31.3 273 29 273 23 c 2
 273 0 l 1
 271 -2 l 1
 271 -2 187 0 148 0 c 0
 113 0 29 -2 29 -2 c 1
 27 0 l 1
 27 23 l 2
 27 29 30.1 31.2 35 32 c 2
 47 34 l 2
 78.6 39.3 95 49 95 77 c 2
 95 563 l 2
EndSplineSet
Substitution2: "LinLibertine-'sinf' Wissenschaftliche Indices 1" l.inferior
Substitution2: "LinLibertine-'sups' Hochgestellte 1" u1D425.superior
EndChar

StartChar: u1D426
Encoding: 119846 119846 38
Width: 801
Flags: W
HStem: -2 34<298 344.733 470.48 517 555 601.666> 383 34<34 75> 389 55<266.378 370.767 516.713 653.824>
VStem: 97 110<41.5 357.143> 352 110<38.8418 339.378> 609 110<42.703 381.625>
AnchorPoint: "top_punkt" 397 550 basechar 0
AnchorPoint: "unten_punkt" 396 -105 basechar 0
LayerCount: 2
Fore
SplineSet
205 381 m 1
 207 381 l 1
 242 412 292 444 347 444 c 0
 400 444 435 417 450 378 c 1
 496 418 551 444 604 444 c 0
 709 444 719 371 719 281 c 2
 719 76 l 2
 719 48 737 42 768 34 c 2
 776 32 l 2
 780 31 784 29 784 23 c 2
 784 0 l 1
 782 -2 l 1
 782 -2 701 0 662 0 c 0
 627 0 555 -2 555 -2 c 1
 553 0 l 1
 553 23 l 2
 553 28 555 31 561 32 c 0
 595 35 609 48 609 76 c 2
 609 303 l 2
 609 363 593 389 569 389 c 0
 535 389 499 373 460 340 c 1
 461 327 462 296 462 282 c 2
 462 76 l 2
 462 41 487 35 511 32 c 0
 515 32 519 29 519 23 c 2
 519 0 l 1
 517 -2 l 1
 517 -2 445 0 406 0 c 0
 370 0 298 -2 298 -2 c 1
 296 0 l 1
 296 23 l 2
 296 28 299 31 305 32 c 0
 338 35 352 48 352 76 c 2
 352 301 l 2
 352 364 336 389 311 389 c 0
 282 389 249 376 207 341 c 1
 207 75 l 2
 207 40 232 35 255 32 c 0
 260 31 264 29 264 23 c 2
 264 0 l 1
 262 -2 l 1
 262 -2 190 0 150 0 c 0
 115 0 34 -2 34 -2 c 1
 32 0 l 1
 32 23 l 2
 32 29 35 31 40 32 c 2
 49 34 l 2
 82 41 97 47 97 75 c 2
 97 321 l 2
 97 371 89 378 75 379 c 2
 34 383 l 1
 32 417 l 1
 102 426 168 437 200 447 c 0
 202 447 207 446 207 444 c 2
 205 381 l 1
EndSplineSet
Substitution2: "LinLibertine-'sinf' Wissenschaftliche Indices 1" m.inferior
Substitution2: "LinLibertine-'sups' Hochgestellte 1" u1D426.superior
EndChar

StartChar: u1D427
Encoding: 119847 119847 39
Width: 563
Flags: W
HStem: -2 21G<33 151 151 268 311 425 425 546> 383 34<35 76> 388 56<274.496 414.161>
VStem: 98 110<41.8215 353.185> 371 110<42.6477 382.953>
AnchorPoint: "unten_punkt" 265 -111 basechar 0
AnchorPoint: "top_punkt" 265 550 basechar 0
LayerCount: 2
Fore
SplineSet
208 381 m 1
 259 420 311 444 359 444 c 0
 466 444 481 374 481 283 c 2
 481 76 l 2
 481 48 499.3 41.7 530 34 c 2
 538 32 l 2
 541.9 31 546 29 546 23 c 2
 546 0 l 1
 544 -2 l 1
 544 -2 464 0 425 0 c 0
 389 0 313 -2 313 -2 c 1
 311 0 l 1
 311 23 l 2
 311 29 314.1 30.8 319 32 c 2
 323 33 l 2
 354.2 40.8 371 48 371 76 c 2
 371 290 l 2
 371 358 365 388 329 388 c 0
 299 388 257.5 372 208 341 c 1
 208 76 l 2
 208 49 225.8 40.5 256 33 c 2
 260 32 l 2
 263.9 31 268 29 268 23 c 2
 268 0 l 1
 266 -2 l 1
 266 -2 190 0 151 0 c 0
 116 0 35 -2 35 -2 c 1
 33 0 l 1
 33 23 l 2
 33 29 36.1 30.9 41 32 c 2
 50 34 l 2
 82.2 41.2 98 48 98 76 c 2
 98 321 l 2
 98 371 90 378 76 379 c 2
 35 383 l 1
 33 417 l 1
 103 426 169 437 201 447 c 0
 203 447 208 446 208 444 c 2
 206 381 l 1
 208 381 l 1
EndSplineSet
Substitution2: "LinLibertine-'sinf' Wissenschaftliche Indices 1" n.inferior
Substitution2: "LinLibertine-'sups' Hochgestellte 1" u1D427.superior
EndChar

StartChar: u1D428
Encoding: 119848 119848 40
Width: 519
Flags: W
HStem: -10 43<223.814 325.852> 403 41<203.326 303.665>
VStem: 34 122<119.406 317.729> 364 121<118.762 320.282>
LayerCount: 2
Fore
SplineSet
250 403 m 0
 186 403 156 314 156 229 c 0
 156 155 193 33 275 33 c 0
 311 33 364 57 364 184 c 0
 364 327 318 403 250 403 c 0
34 207 m 0
 34 344 115 444 260 444 c 0
 423 444 485 321 485 216 c 0
 485 115 414 -10 259 -10 c 0
 112 -10 34 104 34 207 c 0
EndSplineSet
Substitution2: "LinLibertine-'sinf' Wissenschaftliche Indices 1" u1D428.inferior
Substitution2: "LinLibertine-'sups' Hochgestellte 1" u1D428.superior
EndChar

StartChar: u1D429
Encoding: 119849 119849 41
Width: 523
Flags: W
HStem: -234 21G<20 138 138 259> -10 42<207.971 316.107> 383 34<22 63> 392 52<243.979 331.849>
VStem: 85 110<-189.042 7 46.1131 361.062> 373 115<127.964 339.778>
LayerCount: 2
Fore
SplineSet
195 341 m 1
 195 65 l 1
 220 38 245 32 256 32 c 0
 343 32 373 126 373 210 c 0
 373 327 343 392 284 392 c 0
 260 392 224 373 195 341 c 1
195 381 m 1
 227.5 418.5 272.5 444 316 444 c 0
 425 444 488 343 488 237 c 0
 488 159 460 96 411 47 c 0
 372 8 323 -10 262 -10 c 0
 238 -10 216.5 -4 195 7 c 1
 195 -154 l 2
 195 -182 211.9 -190.2 243 -198 c 2
 251 -200 l 2
 255.9 -201.2 259 -203 259 -208 c 2
 259 -232 l 1
 258 -234 l 1
 258 -234 177 -232 138 -232 c 0
 102 -232 22 -234 22 -234 c 1
 20 -232 l 1
 20 -208 l 2
 20 -203 23.1 -201.1 28 -200 c 2
 37 -198 l 2
 70.1 -190.6 85 -182 85 -154 c 2
 85 321 l 2
 85 371 77 378 63 379 c 2
 22 383 l 1
 20 417 l 1
 90 426 156 437 188 447 c 0
 190 447 195 446 195 444 c 2
 193 381 l 1
 195 381 l 1
EndSplineSet
Substitution2: "LinLibertine-'sinf' Wissenschaftliche Indices 1" p.inferior
Substitution2: "LinLibertine-'sups' Hochgestellte 1" u1D429.superior
EndChar

StartChar: u1D42A
Encoding: 119850 119850 42
Width: 518
Flags: W
HStem: -234 34<272 288> -10 51<215.666 334.078> 402 42<203.119 307.884> 427 20G<426 438.833>
VStem: 36 113<116.234 312.456> 335 110<-189.341 8 50.1764 376.654>
LayerCount: 2
Fore
SplineSet
335 349 m 1
 309 389 283 402 255 402 c 0
 190 402 149 329 149 229 c 0
 149 82 228 41 278 41 c 0
 290 41 313 48 335 61 c 1
 335 349 l 1
335 -155 m 2
 335 8 l 1
 318 0 279 -10 244 -10 c 0
 89 -10 36 115 36 208 c 0
 36 341 125 444 258 444 c 0
 312 444 349 418 369 401 c 1
 397.3 434 415 447 437 447 c 0
 440.7 447 447 444 447 436 c 2
 447 436 445 355 445 321 c 2
 445 -155 l 2
 445 -183 463.2 -190.3 494 -198 c 2
 502 -200 l 2
 505.9 -201 510 -203 510 -209 c 2
 510 -232 l 1
 508 -234 l 1
 508 -234 428 -232 389 -232 c 0
 353 -232 272 -234 272 -234 c 1
 270 -232 l 1
 270 -209 l 2
 270 -203 273.1 -201 278 -200 c 2
 288 -198 l 2
 320.9 -191.4 335 -183 335 -155 c 2
EndSplineSet
Substitution2: "LinLibertine-'sinf' Wissenschaftliche Indices 1" q.inferior
Substitution2: "LinLibertine-'sups' Hochgestellte 1" u1D42A.superior
EndChar

StartChar: u1D42B
Encoding: 119851 119851 43
Width: 401
Flags: W
HStem: -2 34<34 49> 371 73<257.924 353> 383 34<34 75>
VStem: 97 110<42.7535 353.807>
LayerCount: 2
Fore
SplineSet
207 381 m 1
 257 432.5 300 444 335 444 c 0
 371 444 393 414 393 388 c 0
 393 356 372 331 343 331 c 0
 303.7 331 287.6 371 269.7 371 c 0
 253.7 371 245.2 366.5 233 358 c 0
 218 347.5 207 323.5 207 288 c 2
 207 77 l 2
 207 49 224.4 41.7 255 34 c 2
 263 32 l 2
 266.9 31 271 29 271 23 c 2
 271 0 l 1
 269 -2 l 1
 269 -2 189 0 150 0 c 0
 114 0 34 -2 34 -2 c 1
 32 0 l 1
 32 23 l 2
 32 29 35.1 31.2 39 32 c 2
 49 34 l 2
 80.5 40.3 97 50 97 77 c 2
 97 321 l 2
 97 371 89 378 75 379 c 2
 34 383 l 1
 32 417 l 1
 102 426 168 437 200 447 c 0
 202 447 207 446 207 444 c 2
 205 381 l 1
 207 381 l 1
EndSplineSet
Substitution2: "LinLibertine-'sinf' Wissenschaftliche Indices 1" r.inferior
Substitution2: "LinLibertine-'sups' Hochgestellte 1" u1D42B.superior
EndChar

StartChar: u1D42C
Encoding: 119852 119852 44
Width: 401
Flags: W
HStem: -10 39<123.862 237.641> 402 42<164.912 266.612>
VStem: 37 40<84.8964 146> 50 103<291.417 385.51> 254 111<51.744 149.588> 306 39<313.103 355.283>
LayerCount: 2
Fore
SplineSet
37 146 m 1
 77 148 l 1
 95 62 120 29 195 29 c 0
 222 29 254 48 254 94 c 0
 254 133 243 153 188 172 c 0
 138 190 50 241 50 321 c 0
 50 390 115 444 206 444 c 0
 261 444 295 435 334 416 c 1
 338 386 342 350 345 314 c 1
 306 309 l 1
 286 379 254 402 209 402 c 0
 182 402 153 385 153 345 c 0
 153 310 167 287 208 272 c 0
 294.1 240.5 365 197 365 119 c 0
 365 24 269 -10 192 -10 c 0
 144 -10 101 3 49 2 c 1
 49 50 44 94 37 146 c 1
EndSplineSet
Substitution2: "LinLibertine-'sinf' Wissenschaftliche Indices 1" s.inferior
Substitution2: "LinLibertine-'sups' Hochgestellte 1" u1D42C.superior
EndChar

StartChar: u1D42D
Encoding: 119853 119853 45
Width: 331
Flags: MW
HStem: -12 62<163 254> 387 46<25 88 199 299>
VStem: 89 110<51 387>
AnchorPoint: "unten_punkt" 163 -107 basechar 0
LayerCount: 2
Fore
SplineSet
199 387 m 1
 199 135 l 2
 199 69 212 62 225 62 c 0
 245 62 263.5 63.5 293 87 c 1
 316 64 l 1
 279 15 230 -10 175 -10 c 0
 125 -10 89 19 89 92 c 2
 89 387 l 1
 38 387 l 2
 22 387 20 389 20 395 c 2
 20 426 l 2
 20 432 38 434 58 434 c 0
 108 434 118 483 118 564 c 1
 199 595 l 1
 199 434 l 1
 294 434 l 2
 313 434 316 430 316 424 c 2
 316 404 l 2
 316 392 298 387 279 387 c 2
 199 387 l 1
EndSplineSet
Substitution2: "LinLibertine-'sinf' Wissenschaftliche Indices 1" t.inferior
Substitution2: "LinLibertine-'sups' Hochgestellte 1" u1D42D.superior
EndChar

StartChar: u1D42E
Encoding: 119854 119854 46
Width: 550
Flags: W
HStem: -10 50<215.254 312.397> 28 31<479.262 526> 402 34<29 58 293 346.026>
VStem: 87 110<56.8091 398.969> 352 110<69.9839 399.25>
AnchorPoint: "top_punkt" 264 550 basechar 0
AnchorPoint: "unten_punkt" 248 -111 basechar 0
LayerCount: 2
Fore
SplineSet
462 115 m 2
 462 85 472 62 526 59 c 1
 527 28 l 1
 436 16 412 3 386 -12 c 1
 352 -12 l 1
 355 35 l 1
 308 5 263 -10 226 -10 c 0
 110 -10 87 58 87 128 c 2
 87 352 l 2
 87 382 81.4 398.5 58 400 c 2
 27 402 l 1
 24 404 l 1
 24 434 l 1
 29 436 l 1
 29 436 108 434 140 434 c 0
 154 434 198 436 198 436 c 1
 198 436 197 391 197 354 c 2
 197 142 l 2
 197 58 230 40 251 40 c 0
 273 40 315 45 352 77 c 1
 352 352 l 2
 352 384 342 400 324 400 c 1
 293 402 l 1
 289 404 l 1
 289 434 l 1
 293 436 l 1
 293 436 377 434 404 434 c 0
 425 434 464 436 464 436 c 1
 464 436 462 394.5 462 354 c 2
 462 115 l 2
EndSplineSet
Substitution2: "LinLibertine-'sinf' Wissenschaftliche Indices 1" u.inferior
Substitution2: "LinLibertine-'sups' Hochgestellte 1" u1D42E.superior
EndChar

StartChar: u1D42F
Encoding: 119855 119855 47
Width: 527
Flags: W
HStem: -12 21G<251.5 276.5> 402 34<12 59.8042 215 236 333 341 456.405 513>
DStem2: 195 357 91.2 334 0.36373 -0.931504<-33.8257 270.748> 294 105 315 41 0.354745 0.934963<0 293.075>
LayerCount: 2
Fore
SplineSet
433 352 m 2
 315 41 l 2
 299 0 288 -12 265 -12 c 0
 238 -12 222 0 206 40 c 2
 91.2 334 l 2
 78.9 365.6 64.5 397.5 19 402 c 0
 14 402.5 9 404 9 409 c 2
 9 434 l 1
 12 436 l 1
 12 436 73 434 113 434 c 0
 154 434 236 436 236 436 c 1
 240 434 l 1
 240 410 l 2
 240 403 234 402.2 232 402 c 2
 215 400 l 2
 184.9 396.5 184 387 195 357 c 2
 294 105 l 1
 384 358 l 2
 393.8 385.6 376.9 392 341 401 c 2
 337 402 l 2
 332.1 403.2 329 406 329 409 c 2
 329 433 l 1
 333 436 l 1
 333 436 395.8 434 436 434 c 0
 466 434 513 436 513 436 c 1
 515 434 l 1
 515 411 l 2
 515 406 510 402.7 504 402 c 0
 474.5 398.5 448 391 433 352 c 2
EndSplineSet
Substitution2: "LinLibertine-'sinf' Wissenschaftliche Indices 1" v.inferior
Substitution2: "LinLibertine-'sups' Hochgestellte 1" u1D42F.superior
EndChar

StartChar: u1D430
Encoding: 119856 119856 48
Width: 778
Flags: W
HStem: -12 21G<247 274.5 491 519> 402 34<11 61.0915 190.359 224 261 310.597 463 485 579 587 706.235 759>
DStem2: 289 100 90.9969 334.5 0.36342 -0.931625<-308.575 0> 289 100 308 35 0.373129 0.92778<0 145.107> 442 357 329 355 0.36342 -0.931625<-34.9379 44.7295 106.759 274.157> 535 99 553 33 0.374896 0.927067<0 300.199>
LayerCount: 2
Fore
SplineSet
195 357 m 2
 289 100 l 1
 360 277 l 1
 329 355 l 2
 314.9 390.4 298 398.5 268 402 c 0
 263 402.6 258 404 258 409 c 2
 258 434 l 1
 261 436 l 1
 261 436 323.2 434 363 434 c 0
 410.6 434 485 436 485 436 c 1
 489 434 l 1
 489 410 l 2
 489 403.5 483 402.4 480 402 c 2
 463 400 l 2
 432 396.4 431 386 442 357 c 2
 535 99 l 1
 628 355 l 2
 639 387 633.7 389.3 587 401 c 2
 583 402 l 2
 578.1 403.2 575 406 575 409 c 2
 575 433 l 1
 579 436 l 1
 579 436 647.3 434 691 434 c 0
 717.5 434 759 436 759 436 c 1
 761 434 l 1
 761 411 l 2
 761 406 756 402.8 750 402 c 0
 707 396.5 691.9 376.3 678.2 342.5 c 2
 553 33 l 2
 543 7 531 -12 507 -12 c 0
 475 -12 463 13 455 32 c 2
 382 219 l 1
 308 35 l 2
 298 11 287 -12 262 -12 c 0
 232 -12 220 4 209 32 c 2
 91 334.5 l 2
 76.2 372.5 64 397 19 402 c 0
 13 402.7 8 404 8 409 c 2
 8 434 l 1
 11 436 l 1
 11 436 75.7 434 117 434 c 0
 158.7 434 224 436 224 436 c 1
 228 434 l 1
 228 410 l 2
 228 402 220 402.4 217 402 c 0
 186.5 397.5 186 384 195 357 c 2
EndSplineSet
Substitution2: "LinLibertine-'sinf' Wissenschaftliche Indices 1" w.inferior
Substitution2: "LinLibertine-'sups' Hochgestellte 1" u1D430.superior
EndChar

StartChar: u1D431
Encoding: 119857 119857 49
Width: 521
Flags: W
HStem: -2 34<173.352 204 279 315.512 447.998 502> 402 34<24 76.3255 211.461 250 315 348.334 437.391 500>
DStem2: 223 360 122 335 0.573253 -0.819378<-31.8806 91.664 183.452 312.019>
LayerCount: 2
Fore
SplineSet
183 73 m 2
 160 40 181.5 35.5 200 32 c 0
 204.9 31.1 208 28 208 24 c 2
 208 0 l 1
 204 -2 l 1
 204 -2 137.5 0 95 0 c 0
 64.6 0 17 -2 17 -2 c 1
 15 0 l 1
 15 22 l 2
 15 27 20.1 31.2 26 32 c 0
 55.5 36 90 48 116 79 c 2
 208 193 l 2
 216 202 215 203 211 208 c 2
 122 335 l 2
 94 375 66 402 31 402 c 0
 26 402 21 404 21 409 c 2
 21 434 l 1
 24 436 l 1
 24 436 85.6 434 125 434 c 0
 173.8 434 250 436 250 436 c 1
 253 434 l 1
 253 410 l 2
 253 403 248 402.3 245 402 c 0
 207 398 200.2 393.3 223 360 c 2
 271 290 l 2
 279 279 280 280 286 287 c 2
 336 359 l 2
 357 388 355 399 319 402 c 0
 314 402.4 312 406 312 409 c 2
 312 433 l 1
 315 436 l 1
 315 436 386.4 434 432 434 c 0
 458.5 434 500 436 500 436 c 1
 502 434 l 1
 502 411 l 2
 502 406 497 402.7 491 402 c 0
 460 398.5 428 387 401 353 c 2
 312 245 l 2
 309 241 308 239 314 230 c 2
 402 99 l 2
 434 51 458 37.5 495 32 c 0
 499.9 31.3 505 29 505 25 c 2
 505 0 l 1
 502 -2 l 1
 502 -2 440.4 0 401 0 c 0
 353.4 0 279 -2 279 -2 c 1
 275 0 l 1
 275 24 l 2
 275 30 281 31.7 283 32 c 0
 317.5 37 325.6 42.2 306 72 c 2
 264 136 l 1
 248 164 247 164 225 133 c 2
 183 73 l 2
EndSplineSet
Substitution2: "LinLibertine-'sinf' Wissenschaftliche Indices 1" u1D431.inferior
Substitution2: "LinLibertine-'sups' Hochgestellte 1" u1D431.superior
EndChar

StartChar: u1D432
Encoding: 119858 119858 50
Width: 533
Flags: W
HStem: -232.2 65.3<98.4399 174.076> 402 34<13 65.4406 195.582 240 340 384.791 462.58 516>
DStem2: 199 357 92 336 0.37552 -0.926814<-34.5285 268.481> 215 -61 266 -71 0.373718 0.927542<-120.484 52.1765 182.748 398.364>
LayerCount: 2
Fore
SplineSet
432 341 m 2
 266 -71 l 2
 232 -155 189.3 -232.2 109.1 -232.2 c 0
 87.7 -232.2 33.2 -219.4 33.2 -177.7 c 0
 33.2 -143.5 63.1 -126.3 92 -126.3 c 0
 108.1 -126.3 127.4 -140.2 133.8 -149.8 c 0
 140.2 -159.4 145.5 -166.9 153 -166.9 c 0
 160.5 -166.9 186 -138 215 -61 c 2
 233 -12 l 1
 92 336 l 2
 72 386 60 402 20 402 c 0
 14 402 10 404 10 409 c 2
 10 434 l 1
 13 436 l 1
 13 436 77.7 434 119 434 c 0
 166.2 434 240 436 240 436 c 1
 244 434 l 1
 244 410 l 2
 244 403 238 402 236 402 c 0
 196 402 188 388 199 357 c 2
 292 105 l 1
 326 188 366 297 384 355 c 0
 396 391 375 402 344 402 c 0
 339 402 336 406 336 409 c 2
 336 433 l 1
 340 436 l 1
 340 436 408.3 434 452 434 c 0
 477 434 516 436 516 436 c 1
 518 434 l 1
 518 411 l 2
 518 406 513 402 507 402 c 0
 478 402 449 383 432 341 c 2
EndSplineSet
Substitution2: "LinLibertine-'sinf' Wissenschaftliche Indices 1" y.inferior
Substitution2: "LinLibertine-'sups' Hochgestellte 1" u1D432.superior
EndChar

StartChar: u1D433
Encoding: 119859 119859 51
Width: 432
Flags: W
HStem: 0 42<163 326.904> 392 42<116.625 273> 426 20G<64 100>
VStem: 43 43<301.023 355.983> 369 42<93.3671 140.5>
DStem2: 43 38 163 42 0.544822 0.838552<68.7328 422.156>
LayerCount: 2
Fore
SplineSet
98 446 m 1
 102 435 109 434 115 434 c 2
 319 434 l 2
 343.1 434 367 437 370 437 c 0
 390 437 406 431 406 421 c 0
 406 418 397 402 386 385 c 2
 163 42 l 1
 279 42 l 2
 323 42 352 83 369 148 c 1
 411 139 l 1
 396 85 389 41 385 0 c 1
 87 0 l 2
 44 0 32 6 32 16 c 0
 32 18 35 25 43 38 c 0
 121 155 195 274 273 392 c 1
 157 392 l 2
 127 392 103 370 86 296 c 1
 43 302 l 1
 59 368 63 403 65 446 c 1
 98 446 l 1
EndSplineSet
Substitution2: "LinLibertine-'sinf' Wissenschaftliche Indices 1" z.inferior
Substitution2: "LinLibertine-'sups' Hochgestellte 1" u1D433.superior
EndChar

StartChar: u1D6A8
Encoding: 120488 120488 52
Width: 699
VWidth: 999
Flags: W
HStem: -1 34<10 60.0229 142.897 211 414 482.841 622.594 692> 241 47<234.168 403> 638 20<348.5 364.5>
DStem2: 89 91 148 79 0.384126 0.923281<-23.1403 196.063 246.684 479.281> 399 627 320 514 0.352654 -0.935754<77.8806 318.631 368.607 561.264>
LayerCount: 2
Fore
SplineSet
253 288 m 2
 403 288 l 1
 320 514 l 1
 234 300 l 1
 234 291 235 288 253 288 c 2
148 79 m 2
 137 50 136 33 195 33 c 0
 211 33 216 31 216 23 c 2
 216 3 l 1
 211 -1 l 1
 211 -1 119 1 95 1 c 0
 70 1 10 -1 10 -1 c 1
 2 2 l 1
 2 23 l 2
 2 33 10 33 22 33 c 0
 42 33 72 50 89 91 c 2
 312 627 l 2
 322 651 343 658 354 658 c 0
 375 658 391 648 399 627 c 2
 601 91 l 2
 615 54 629 33 654 33 c 2
 682 33 l 2
 697 33 697 31 697 23 c 2
 697 3 l 1
 692 -1 l 1
 692 -1 596 1 558 1 c 0
 522 1 414 -1 414 -1 c 1
 406 4 l 1
 406 23 l 2
 406 31 414 33 432 33 c 2
 459 33 l 2
 476 33 484 44 484 59 c 0
 484 64 484 70 482 73 c 2
 420 241 l 1
 236 241 l 2
 216 241 211 240 205 227 c 2
 148 79 l 2
EndSplineSet
EndChar

StartChar: u1D6A9
Encoding: 120489 120489 53
Width: 620
VWidth: 999
Flags: W
HStem: 0 33<23 96.4211> 0 40<225.077 375.965> 334 42<221 356.422> 605 42<224.143 359.733> 613 34<24 96.3856>
VStem: 99 122<45.449 334 376 599.529> 403 120<424.816 565.405> 450 127<106.58 268.4>
LayerCount: 2
Fore
SplineSet
221 562 m 2
 221 376 l 1
 277 376 l 2
 348 376 403 409 403 489 c 0
 403 587 337 605 291 605 c 0
 226 605 221 591 221 562 c 2
221 334 m 1
 221 84 l 2
 221 55 227 40 287 40 c 0
 419 40 450 127 450 187 c 0
 450 273 395 334 292 334 c 2
 221 334 l 1
22 21 m 2
 22 28 25 33 40 33 c 2
 69 33 l 2
 92 33 99 42 99 74 c 2
 99 572 l 2
 99 602 93 613 69 613 c 2
 36 613 l 2
 25 613 22 616 22 623 c 2
 22 645 l 1
 24 647 l 1
 24 647 124.7 645 154.7 645 c 0
 184.7 645 234 647 284 647 c 0
 485.8 647 523 560 523 491 c 0
 523 440 481 385 427 361 c 1
 427 359 l 1
 533 331 577 264 577 176 c 0
 577 89 511 0 306 0 c 2
 23 0 l 1
 22 1 l 1
 22 21 l 2
EndSplineSet
EndChar

StartChar: u1D6AA
Encoding: 120490 120490 54
Width: 511
VWidth: 999
Flags: W
HStem: -1 34<24 93.4759 228.845 296> 599 47<226.022 406.689> 613 33<26 97.6381>
VStem: 100 122<38.5094 596.457> 473 39<471.385 516.618>
LayerCount: 2
Fore
SplineSet
100 77 m 2
 100 573 l 2
 100 605 94 613 70 613 c 2
 38 613 l 2
 26 613 22 617 22 625 c 2
 22 643 l 1
 26 646 l 1
 488 646 l 1
 490 589 501 526 512 473 c 1
 473 464 l 1
 457 525 421 599 342 599 c 2
 256 599 l 2
 235 599 222 583 222 553 c 2
 222 77 l 2
 222 49 235 33 276 33 c 2
 291 33 l 2
 295 33 298 30 298 24 c 2
 298 1 l 1
 296 -1 l 1
 296 -1 196 1 161 1 c 0
 122 1 24 -1 24 -1 c 1
 22 1 l 1
 22 24 l 2
 22 30 26 33 31 33 c 2
 45 33 l 2
 84 33 100 45 100 77 c 2
EndSplineSet
EndChar

StartChar: u1D6AB
Encoding: 120491 120491 55
Width: 692
VWidth: 487
Flags: W
HStem: -2 38<111 523> 631 20G<279.943 417.709>
DStem2: 33 18 111 36 0.373663 0.927564<45.8419 605.717> 410 651 321 555 0.35967 -0.933079<57.565 614.487>
LayerCount: 2
Fore
SplineSet
321 555 m 1
 111 36 l 1
 523 36 l 1
 321 555 l 1
410 651 m 1
 654 18 l 2
 657 9 658 5 658 3 c 0
 658 0 654 -2 637 -2 c 2
 49 -2 l 2
 36 -2 28 -1 28 5 c 0
 28 7 28 8 33 18 c 2
 288 651 l 1
 410 651 l 1
EndSplineSet
EndChar

StartChar: u1D6AC
Encoding: 120492 120492 56
Width: 562
VWidth: 999
Flags: W
HStem: 0 33<27 94.1445> 0 46<224.232 442.935> 323 42<224 361.625> 427 20<383 415> 600 46<224.232 421.482> 613 33<27 94.1445>
VStem: 101 123<46.578 323 365 599.422> 372 36<251.814 315.565 372.621 436.233> 474 40<482.425 531.807> 499 43<118.211 170.628>
LayerCount: 2
Fore
SplineSet
27 0 m 1
 24 2 l 1
 24 24 l 2
 24 30 28 33 32 33 c 2
 46 33 l 2
 86 33 101 45 101 77 c 2
 101 569 l 2
 101 601 86 613 46 613 c 2
 32 613 l 2
 28 613 24 616 24 621 c 2
 24 644 l 1
 27 646 l 1
 493 646 l 1
 497 588 504 535 514 484 c 1
 474 475 l 1
 460 526 435 600 368 600 c 2
 238 600 l 2
 229 600 224 592 224 571 c 2
 224 365 l 1
 337 365 l 2
 362 365 366 396 372 436 c 0
 372 440 378 447 388 447 c 2
 409 447 l 1
 415 437 l 1
 413 421 408 381 408 344 c 0
 408 308 413 268 415 251 c 1
 409 242 l 1
 388 242 l 2
 378 242 372 248 372 252 c 0
 366 293 362 323 337 323 c 2
 224 323 l 1
 224 75 l 2
 224 52 229 46 238 46 c 2
 391 46 l 2
 446 46 482 105 499 179 c 1
 542 169 l 1
 532 116 522 54 515 0 c 1
 27 0 l 1
EndSplineSet
EndChar

StartChar: u1D6AD
Encoding: 120493 120493 57
Width: 624
VWidth: 999
Flags: W
HStem: 0 44<188.684 499.676> 602 43<134.566 417.995> 638 20<66 86.5>
VStem: 46 39<490.103 537.024> 557 41<114.968 165.854>
DStem2: 28 38 193 72 0.583791 0.811904<105.537 679.919>
LayerCount: 2
Fore
SplineSet
572 0 m 1
 39 0 l 2
 25 0 20 5 20 15 c 0
 20 22 22 30 28 38 c 2
 417 579 l 2
 424 589 433 602 415 602 c 2
 200 602 l 2
 125 602 107 555 85 486 c 1
 46 491 l 1
 54 532 64 604 68 658 c 1
 105 655 102 645 149 645 c 2
 506 645 l 1
 537 648 556 650 569 650 c 0
 588 650 591 647 591 640 c 0
 591 629 587 619 567 591 c 2
 193 72 l 2
 180 53 178 44 209 44 c 2
 432 44 l 2
 508 44 537 98 557 170 c 1
 598 165 l 1
 587 113 576 56 572 0 c 1
EndSplineSet
EndChar

StartChar: u1D6AE
Encoding: 120494 120494 58
Width: 723
VWidth: 999
Flags: W
HStem: -2 34<24 92.7241 229.184 297 427 495.724 632.184 700> 321 46<222 502> 613 34<24 92.7241 229.184 297 427 495.724 632.184 700>
VStem: 99 123<37.5094 321 367 607.491> 502 123<37.5094 321 367 607.491>
LayerCount: 2
Fore
SplineSet
502 569 m 2
 502 601 487 613 447 613 c 2
 433 613 l 2
 429 613 425 616 425 621 c 2
 425 645 l 1
 427 647 l 1
 427 647 524 645 563 645 c 0
 599 645 700 647 700 647 c 1
 702 645 l 1
 702 621 l 2
 702 616 699 613 694 613 c 2
 680 613 l 2
 639 613 625 597 625 569 c 2
 625 76 l 2
 625 48 639 32 680 32 c 2
 694 32 l 2
 699 32 702 29 702 23 c 2
 702 0 l 1
 700 -2 l 1
 700 -2 599 0 563 0 c 0
 524 0 427 -2 427 -2 c 1
 425 0 l 1
 425 23 l 2
 425 29 429 32 433 32 c 2
 447 32 l 2
 487 32 502 44 502 76 c 2
 502 321 l 1
 222 321 l 1
 222 76 l 2
 222 48 236 32 277 32 c 2
 291 32 l 2
 296 32 299 29 299 23 c 2
 299 0 l 1
 297 -2 l 1
 297 -2 196 0 160 0 c 0
 121 0 24 -2 24 -2 c 1
 22 0 l 1
 22 23 l 2
 22 29 26 32 30 32 c 2
 44 32 l 2
 84 32 99 44 99 76 c 2
 99 569 l 2
 99 601 84 613 44 613 c 2
 30 613 l 2
 26 613 22 616 22 621 c 2
 22 645 l 1
 24 647 l 1
 24 647 121 645 160 645 c 0
 196 645 297 647 297 647 c 1
 299 645 l 1
 299 621 l 2
 299 616 296 613 291 613 c 2
 277 613 l 2
 236 613 222 597 222 569 c 2
 222 367 l 1
 502 367 l 1
 502 569 l 2
EndSplineSet
EndChar

StartChar: u1D6AF
Encoding: 120495 120495 59
Width: 730
VWidth: 487
Flags: W
HStem: -10 41<303.11 453.742> 292 66<250.109 481.589> 617 41<284.435 429.841>
VStem: 37 131<190.561 438.95> 214 35<241 289.584 360.214 409.951> 483 35<241 289.017 360.742 409> 562 132<199.461 449.883>
LayerCount: 2
Fore
SplineSet
438 358 m 2
 470 358 483 361 483 395 c 2
 483 401 l 1
 484 407 486 409 490 409 c 2
 518 409 l 1
 518 409 515 362 515 332 c 0
 515 296 518 241 518 241 c 1
 491 241 l 2
 489 241 484 242 483 249 c 1
 483 256 l 2
 483 289 467 292 438 292 c 2
 294 292 l 2
 261 292 249 289 249 256 c 2
 249 249 l 1
 248 243 244 241 241 241 c 2
 214 241 l 1
 214 241 217 296 217 332 c 0
 217 362 214 410 214 410 c 1
 241 410 l 1
 248 409 249 405 249 402 c 2
 249 395 l 2
 249 360 260 358 294 358 c 2
 438 358 l 2
351 617 m 0
 266 617 168 532 168 328 c 0
 168 140 266 31 384 31 c 0
 485 31 562 136 562 310 c 0
 562 513 464 617 351 617 c 0
694 329 m 0
 694 129 566 -10 364 -10 c 0
 182 -10 37 113 37 311 c 0
 37 507 173 658 363 658 c 0
 540 658 694 528 694 329 c 0
EndSplineSet
EndChar

StartChar: u1D6B0
Encoding: 120496 120496 60
Width: 319
VWidth: 999
Flags: W
HStem: -2 34<24 92.7241 228.184 296> 613 34<24 92.7241 228.184 296>
VStem: 99 122<37.5094 607.491>
LayerCount: 2
Fore
SplineSet
221 76 m 2
 221 48 235 32 276 32 c 2
 290 32 l 2
 295 32 298 29 298 23 c 2
 298 0 l 1
 296 -2 l 1
 296 -2 196 0 160 0 c 0
 121 0 24 -2 24 -2 c 1
 22 0 l 1
 22 23 l 2
 22 29 26 32 30 32 c 2
 44 32 l 2
 84 32 99 44 99 76 c 2
 99 569 l 2
 99 601 84 613 44 613 c 2
 30 613 l 2
 26 613 22 616 22 621 c 2
 22 645 l 1
 24 647 l 1
 24 647 121 645 160 645 c 0
 196 645 296 647 296 647 c 1
 298 645 l 1
 298 621 l 2
 298 616 295 613 290 613 c 2
 276 613 l 2
 235 613 221 597 221 569 c 2
 221 76 l 2
EndSplineSet
EndChar

StartChar: u1D6B1
Encoding: 120497 120497 61
Width: 660
VWidth: 999
Flags: W
HStem: -2 34<24 92.7241 228.184 296 592.702 655> 613 34<24 92.7241 227.845 295 394 449>
VStem: 99 122<37.5094 294 368 607.491>
DStem2: 221 368 351 404 0.729537 0.683941<50.9707 327.506> 324 331 221 294 0.685275 -0.728284<-31.7083 302.124>
LayerCount: 2
Fore
SplineSet
221 76 m 2
 221 48 235 32 276 32 c 2
 290 32 l 2
 295 32 298 29 298 23 c 2
 298 0 l 1
 296 -2 l 1
 296 -2 196 0 160 0 c 0
 121 0 24 -2 24 -2 c 1
 22 0 l 1
 22 23 l 2
 22 29 26 32 30 32 c 2
 44 32 l 2
 84 32 99 44 99 76 c 2
 99 569 l 2
 99 601 84 613 44 613 c 2
 30 613 l 2
 26 613 22 616 22 621 c 2
 22 645 l 1
 24 647 l 1
 24 647 121 645 160 645 c 0
 196 645 295 647 295 647 c 1
 297 645 l 1
 297 621 l 2
 297 616 294 613 290 613 c 2
 275 613 l 2
 234 613 221 597 221 569 c 2
 221 368 l 1
 429 563 l 2
 443 576 468 611 430 611 c 0
 409 611 390 613 390 623 c 2
 390 644 l 1
 394 647 l 1
 394 647 489 645 528 645 c 0
 563 645 645 647 645 647 c 1
 650 644 l 1
 650 623 l 2
 650 614 637 612 620 611 c 1
 589 606 551 587 506 544 c 1
 351 404 l 2
 308 364 303.6 352.7 324 331 c 2
 563 77 l 2
 588 51 607 34 624 34 c 2
 642 34 l 2
 657 34 658 30 658 22 c 2
 658 0 l 1
 655 -2 l 1
 655 -2 563 0 525 0 c 0
 489 0 446 -2 446 -2 c 1
 442 2 l 1
 442 28 l 2
 442 47 442 57 427 72 c 2
 221 294 l 1
 221 76 l 2
EndSplineSet
EndChar

StartChar: u1D6B2
Encoding: 120498 120498 62
Width: 636
VWidth: 487
Flags: W
HStem: 1 32<2 67.0229 147.865 216 355 431.586 572.126 635> 637 21<321 331.5>
DStem2: 296 461 292 635 0.349978 0.936758<-442.237 0> 432 74 549 92 0.330273 -0.943885<-410.201 28.2337>
LayerCount: 2
Fore
SplineSet
210 33 m 0
 214 33 218 30 218 25 c 2
 218 1 l 1
 216 0 l 1
 216 0 129 1 90 1 c 0
 54 1 2 0 2 0 c 1
 0 1 l 1
 0 25 l 2
 0 30 3 33 8 33 c 0
 64 33 71 44 91 97 c 2
 292 635 l 2
 298 650 316 658 326 658 c 0
 337 658 354 650 359 635 c 2
 549 92 l 2
 566 46 578 33 629 33 c 0
 633 33 637 30 637 25 c 2
 637 1 l 1
 635 0 l 1
 635 0 538 1 499 1 c 0
 463 1 355 0 355 0 c 1
 353 1 l 1
 353 25 l 2
 353 30 356 33 361 33 c 0
 424 33 443 43 432 74 c 2
 307 430 l 1
 296 461 l 1
 284 433 l 1
 154 84 l 2
 138 42 145 33 210 33 c 0
EndSplineSet
EndChar

StartChar: u1D6B3
Encoding: 120499 120499 63
Width: 853
VWidth: 999
Flags: W
HStem: -12 21<399.5 412> -2 34<26 95.4822 172.259 240 573 639.045 762.489 829> 613 33<67 130.252 717.755 786>
DStem2: 105 76 168 76 0.0567038 0.998391<-34.2015 377.163> 236 646 189 449 0.387297 -0.921955<163.422 529.31> 711 569 612 446 0.0868912 -0.996218<113.933 521.686>
LayerCount: 2
Fore
SplineSet
711 569 m 2
 754 76 l 2
 757 48 768 32 809 32 c 2
 823 32 l 2
 828 32 831 29 831 23 c 2
 831 0 l 1
 829 -2 l 1
 829 -2 730 0 695 0 c 0
 656 0 573 -2 573 -2 c 1
 571 0 l 1
 571 23 l 2
 571 29 575 32 579 32 c 2
 593 32 l 2
 633 32 646 45 643 76 c 2
 612 446 l 1
 552 300 433 7 433 7 c 2
 428 -3 420 -12 404 -12 c 0
 395 -12 379 -7 374 7 c 2
 374 7 262 278 189 449 c 1
 168 76 l 2
 166 44 179 32 220 32 c 2
 234 32 l 2
 239 32 242 29 242 23 c 2
 242 0 l 1
 240 -2 l 1
 240 -2 167 0 132 0 c 0
 93 0 26 -2 26 -2 c 1
 24 0 l 1
 24 23 l 2
 24 29 28 32 32 32 c 2
 42 32 l 2
 82 32 103 44 105 76 c 2
 133 569 l 2
 134.9 602 127 613 88 613 c 2
 74 613 l 2
 69 613 65 616 65 621 c 2
 65 645 l 1
 67 646 l 1
 67 646 197 646 236 646 c 1
 441 158 l 1
 504 315 569 491 631 646 c 1
 786 646 l 1
 788 645 l 1
 788 621 l 2
 788 616 785 613 780 613 c 2
 766 613 l 2
 725 613 708.6 597 711 569 c 2
EndSplineSet
EndChar

StartChar: u1D6B4
Encoding: 120500 120500 64
Width: 710
VWidth: 999
Flags: W
HStem: -12 21<559.5 586.5> -2 34<29 103.367 182.184 250> 613 33<25 81.1901 471 539.197 617.803 685>
VStem: 112 63<39.0858 470> 546 64<168 607.491>
DStem2: 170 646 112 560 0.60397 -0.797007<0 33.5123 143.293 608.062>
LayerCount: 2
Fore
SplineSet
546 569 m 2
 546 601 531 613 492 613 c 2
 478 613 l 2
 473 613 469 616 469 621 c 2
 469 645 l 1
 471 646 l 1
 471 646 539 645 578 645 c 0
 613 645 685 646 685 646 c 1
 687 645 l 1
 687 621 l 2
 687 616 684 613 679 613 c 2
 665 613 l 2
 624 613 610 597 610 569 c 2
 610 25 l 2
 610 3 601 -12 572 -12 c 0
 547 -12 535 2 525 15 c 2
 175 470 l 1
 175 76 l 2
 175 48 189 32 230 32 c 2
 244 32 l 2
 249 32 252 29 252 23 c 2
 252 0 l 1
 250 -2 l 1
 250 -2 177 0 142 0 c 0
 103 0 29 -2 29 -2 c 1
 27 0 l 1
 27 23 l 2
 27 29 31 32 35 32 c 2
 49 32 l 2
 89 32 112 44 112 76 c 2
 112 560 l 1
 94 585 74 613 42 613 c 0
 25 613 22 617 22 624 c 2
 22 643 l 1
 25 646 l 1
 170 646 l 1
 546 168 l 1
 546 569 l 2
EndSplineSet
EndChar

StartChar: u1D6B5
Encoding: 120501 120501 65
Width: 648
VWidth: 487
Flags: W
HStem: -4 80<107.084 546.317> 279 66<172.332 477.497> 570 80<103.404 549.889>
VStem: 53 38<92.9248 173 484 554.723> 137 34<229 276.311 347.742 397> 479 34<229 275.704 348.042 396> 562 39<92.3883 173 484 558.155>
LayerCount: 2
Fore
SplineSet
53 173 m 1
 91 173 l 1
 98 82 116 76 163 76 c 2
 475 76 l 2
 545 76 555 84 562 173 c 1
 601 173 l 1
 593 -4 l 1
 553 -4 l 1
 552 -1 549 0 545 0 c 2
 113 0 l 2
 109 0 106 -2 105 -4 c 1
 60 -4 l 1
 53 173 l 1
601 484 m 1
 562 484 l 1
 554 568 546 570 479 570 c 2
 174 570 l 2
 106 570 98 567 92 484 c 1
 53 484 l 1
 53 485 58 636 60 650 c 1
 97 650 l 1
 97 647 100 646 104 646 c 2
 545 646 l 2
 549 646 552 647 554 650 c 1
 593 650 l 1
 593 640 599 516 601 484 c 1
433 345 m 2
 465 345 479 348 479 382 c 2
 479 389 l 2
 479 394 481 396 485 396 c 2
 513 396 l 1
 513 396 510 349 510 319 c 0
 510 284 513 229 513 229 c 1
 486 229 l 2
 484 229 479 229 479 236 c 2
 479 243 l 2
 479 276 462 279 433 279 c 2
 217 279 l 2
 184 279 171 276 171 243 c 2
 171 236 l 1
 170 229 167 229 164 229 c 2
 137 229 l 1
 137 229 140 284 140 319 c 0
 140 350 137 397 137 397 c 1
 164 397 l 2
 170 397 171 392 171 389 c 2
 171 382 l 2
 171 348 183 345 217 345 c 2
 433 345 l 2
EndSplineSet
EndChar

StartChar: u1D6B6
Encoding: 120502 120502 66
Width: 730
VWidth: 999
Flags: W
HStem: -10 41<303.11 453.742> 617 41<284.435 429.841>
VStem: 37 131<190.561 438.95> 562 132<199.461 449.883>
LayerCount: 2
Fore
SplineSet
351 617 m 0
 266 617 168 532 168 328 c 0
 168 140 266 31 384 31 c 0
 485 31 562 136 562 310 c 0
 562 513 464 617 351 617 c 0
694 329 m 0
 694 129 566 -10 364 -10 c 0
 182 -10 37 113 37 311 c 0
 37 507 173 658 363 658 c 0
 540 658 694 528 694 329 c 0
EndSplineSet
EndChar

StartChar: u1D6B7
Encoding: 120503 120503 67
Width: 750
VWidth: 487
Flags: W
HStem: -1 34<19 98.8165 234.855 311 440 514.816 650.855 731> 600 45<229.654 519.608> 613 32<19 99.2757 653.794 731>
VStem: 106 122<38.748 598.335> 522 122<38.748 597.91>
LayerCount: 2
Fore
SplineSet
522 77 m 2
 522 555 l 2
 522 583 517 600 485 600 c 2
 264 600 l 2
 233 600 228 588 228 555 c 2
 228 77 l 2
 228 46 243 33 283 33 c 2
 304 33 l 2
 309 33 312 30 312 24 c 2
 312 1 l 1
 311 -1 l 1
 311 -1 206 1 167 1 c 0
 131 1 19 -1 19 -1 c 1
 17 1 l 1
 17 24 l 2
 17 30 20 33 25 33 c 2
 51 33 l 2
 92 33 106 49 106 77 c 2
 106 569 l 2
 106 606 86 613 55 613 c 2
 25 613 l 2
 19 613 17 617 17 621 c 2
 17 645 l 1
 19 646 l 1
 26 646 149 645 163 645 c 0
 225 644 301 643 372 643 c 0
 434 643 505 644 577 645 c 0
 583 645 729 646 731 646 c 2
 733 645 l 1
 733 621 l 2
 733 617 730 613 725 613 c 2
 696 613 l 1
 668 612 644 600 644 569 c 2
 644 77 l 2
 644 46 659 33 699 33 c 2
 725 33 l 2
 729 33 733 30 733 24 c 2
 733 1 l 1
 731 -1 l 1
 731 -1 620 1 581 1 c 0
 545 1 440 -1 440 -1 c 1
 438 1 l 1
 438 24 l 2
 438 30 441 33 446 33 c 2
 467 33 l 2
 508 33 522 49 522 77 c 2
EndSplineSet
EndChar

StartChar: u1D6B8
Encoding: 120504 120504 68
Width: 550
VWidth: 999
Flags: W
HStem: -2 34<24 44 281 306> 279 40<221 346.677> 611 36<24 93.1927> 613 41<126.947 352.681>
VStem: 99 122<44.5532 282 319.949 606.701> 406 127<391.868 561.741>
LayerCount: 2
Fore
SplineSet
221 558 m 2
 221 322 l 1
 235 320 256 319 271 319 c 0
 353 319 406 363 406 467 c 0
 406 589 339 613 281 613 c 0
 228 613 221 593 221 558 c 2
99 89 m 2
 99 560 l 2
 99 595 87 610 65 611 c 2
 33 613 l 2
 25 613 22 617 22 621 c 2
 22 645 l 1
 24 647 l 1
 83 647 208 654 289 654 c 0
 490 654 533 548 533 484 c 0
 533 388 473 279 276 279 c 0
 252 279 235 280 221 282 c 1
 221 89 l 2
 221 51 241.2 38.2 281 34 c 2
 300 32 l 2
 306 31.4 308 29 308 23 c 2
 308 0 l 1
 306 -2 l 1
 269 -1 198 0 160 0 c 0
 122 0 61 -1 24 -2 c 1
 22 0 l 1
 22 23 l 2
 22 29 26.1 31.4 30 32 c 2
 44 34 l 2
 84.7 39.8 99 51 99 89 c 2
EndSplineSet
EndChar

StartChar: u1D6B9
Encoding: 120505 120505 69
Width: 730
VWidth: 999
Flags: W
HStem: -10 41<303.11 453.742> 302 45<94 584> 617 41<284.435 429.841>
VStem: 37 131<190.561 438.95> 562 132<199.461 449.883>
LayerCount: 2
Fore
SplineSet
694 329 m 0
 694 129 566 -10 364 -10 c 0
 182 -10 37 113 37 311 c 0
 37 507 173 658 363 658 c 0
 540 658 694 528 694 329 c 0
560.9 347 m 1
 549.7 525.6 456.9 617 351 617 c 0
 268.7 617 174.2 537.3 168.3 347 c 1
 560.9 347 l 1
561.9 302 m 1
 168.6 302 l 1
 177.2 130 271.6 31 384 31 c 0
 483.4 31 559.6 132.8 561.9 302 c 1
EndSplineSet
EndChar

StartChar: u1D6BA
Encoding: 120506 120506 70
Width: 615
VWidth: 487
Flags: W
HStem: -1 49<126 478.813> -1 34<11 51.9032> 598 48<192 467.635> 613 33<12 58.2656>
VStem: 516 41<489.146 538.274> 534 43<112.425 165.814>
DStem2: 53 51 126 48 0.629706 0.776834<43.638 332.808> 192 598 78 576 0.568888 -0.822415<0 276.678>
LayerCount: 2
Fore
SplineSet
126 48 m 1
 409 48 l 2
 485 48 514 98 534 170 c 1
 577 165 l 1
 565 113 555 56 550 0 c 1
 11 -1 l 1
 9 1 l 1
 9 30 l 1
 11 33 l 1
 39 33 41 35 53 51 c 2
 262 310 l 1
 78 576 l 1
 51 612 26 613 12 613 c 1
 10 615 l 1
 10 645 l 1
 12 646 l 1
 165 645 l 1
 536 646 l 1
 541 592 549 531 557 490 c 1
 516 485 l 1
 494 554 475 598 400 598 c 2
 192 598 l 1
 371 337 l 1
 370 336 l 1
 340 312 l 1
 126 48 l 1
EndSplineSet
EndChar

StartChar: u1D6BB
Encoding: 120507 120507 71
Width: 597
VWidth: 999
Flags: W
HStem: -2 34<151 230.816 366.855 447> 599 46<70.4923 235.855 362.438 526.846>
VStem: 8 39<518.103 570.778> 30 36<645.204 669> 238 122<37.748 595.906> 532 36<647.479 669> 550 40<518.125 570.778>
LayerCount: 2
Fore
SplineSet
87 645 m 2
 510 645 l 2
 531 645 532 663 532 669 c 1
 568 673 l 1
 572 624 579 572 590 519 c 1
 550 514 l 1
 530 594 517 599 462 599 c 2
 408 599 l 2
 372 599 360 590 360 557 c 2
 360 76 l 2
 360 45 375 32 415 32 c 2
 441 32 l 2
 445 32 449 29 449 23 c 2
 449 0 l 1
 447 -2 l 1
 447 -2 328 0 289 0 c 0
 253 0 151 -2 151 -2 c 1
 149 0 l 1
 149 23 l 2
 149 29 152 32 157 32 c 2
 183 32 l 2
 224 32 238 48 238 76 c 2
 238 560 l 2
 238 590 226 599 189 599 c 2
 136 599 l 2
 81 599 67 594 47 514 c 1
 8 519 l 1
 19 572 26 624 30 673 c 1
 66 669 l 1
 66 663 66 645 87 645 c 2
EndSplineSet
EndChar

StartChar: u1D6BC
Encoding: 120508 120508 72
Width: 617
VWidth: 999
Flags: W
HStem: -1 34<167 249.271 380.901 464> 613 34<2 65.7637 188.987 243 417 464.721 539.845 615>
VStem: 254 122<37.166 281>
DStem2: 197 576 97 553 0.499906 -0.86608<-27.9379 279.078> 336 334 376 293 0.468465 0.883482<0 295.737>
LayerCount: 2
Fore
SplineSet
254 72 m 2
 254 281 l 1
 97 553 l 2
 63 610 50 613 23 613 c 2
 11 613 l 2
 5 613 0 615 0 620 c 2
 0 645 l 1
 2 647 l 1
 2 647 116 645 129 645 c 0
 135 645 243 647 243 647 c 1
 245 645 l 1
 245 621 l 2
 245 617 243 613 238 613 c 0
 187 613 177 609 197 576 c 2
 336 334 l 1
 464 576 l 2
 475 596 457 613 421 613 c 0
 416 613 415 617 415 620 c 2
 415 645 l 1
 417 647 l 1
 417 647 496 645 508 645 c 0
 517 645 615 647 615 647 c 1
 617 645 l 1
 617 621 l 2
 617 615 613 613 607 613 c 2
 586 613 l 2
 556 613 542 606 525 574 c 2
 376 293 l 1
 376 72 l 2
 376 41 392 33 431 33 c 2
 458 33 l 2
 462 33 466 30 466 24 c 2
 466 1 l 1
 464 -1 l 1
 464 -1 355 1 316 1 c 0
 280 1 167 -1 167 -1 c 1
 166 1 l 1
 166 24 l 2
 166 30 168 33 173 33 c 2
 200 33 l 2
 241 33 254 44 254 72 c 2
EndSplineSet
Comment: "Geschwungen?" 
EndChar

StartChar: u1D6BD
Encoding: 120509 120509 73
Width: 709
VWidth: 487
Flags: W
HStem: -1 34<219 287.724 423.184 491> 114 32<247.995 294 416 464.112> 500 34<232.363 294 416 469.822> 613 32<219 286.538 424.451 491>
VStem: 37 120<244.564 396.517> 294 122<38.5094 116.107 146 500 531.859 607.491> 553 120<254.577 407.43>
CounterMasks: 1 0e
LayerCount: 2
Fore
SplineSet
294 146 m 1
 294 502 l 1
 220 492 157 453 157 331 c 0
 157 216 213 162 294 146 c 1
416 146 m 1
 542 168 553 258 553 324 c 0
 553 442 498 487 416 500 c 1
 416 146 l 1
416 77 m 2
 416 49 430 33 471 33 c 2
 485 33 l 2
 490 33 493 30 493 24 c 2
 493 1 l 1
 491 -1 l 1
 491 -1 391 1 355 1 c 0
 316 1 219 -1 219 -1 c 1
 217 1 l 1
 217 24 l 2
 217 30 221 33 225 33 c 2
 239 33 l 2
 279 33 294 45 294 77 c 2
 294 114 l 1
 74 136 37 273 37 324 c 0
 37 400 115 510 294 533 c 1
 294 569 l 2
 294 601 279 613 239 613 c 2
 225 613 l 2
 221 613 217 616 217 621 c 2
 217 645 l 1
 219 646 l 1
 219 646 316 645 355 645 c 0
 391 645 491 646 491 646 c 1
 493 645 l 1
 493 621 l 2
 493 616 490 613 485 613 c 2
 471 613 l 2
 430 613 416 597 416 569 c 2
 416 534 l 1
 565 518 673 433 673 331 c 0
 673 234 568 134 416 114 c 1
 416 77 l 2
EndSplineSet
EndChar

StartChar: u1D6BE
Encoding: 120510 120510 74
Width: 708
VWidth: 999
Flags: W
HStem: -2 34<6 77.2637 175.139 221 431 479.696 642.975 703> 613 32<24 81.6763 243.172 295 464 510.913 615.064 682>
DStem2: 253 572 129 549 0.578967 -0.815351<-30.4141 207.826 286.619 564.202> 388 412 565 552 0.640675 0.767812<-16.6551 209.908>
LayerCount: 2
Fore
SplineSet
24 620 m 2
 24 645 l 1
 29 646 l 1
 55 646 119 645 130 645 c 0
 135 645 260 646 291 646 c 1
 291 646 294 645 295 645 c 1
 295 620 l 2
 295 615 293 613 290 613 c 0
 239 613 233 603 253 572 c 2
 360 414 l 2
 373 396 375 397 388 412 c 0
 428 461 479 524 506 572 c 0
 526 609 492 613 469 613 c 0
 466 613 462 615 462 620 c 2
 462 645 l 1
 464 646 l 1
 486 646 573 645 584 645 c 0
 589 645 664 646 682 646 c 1
 684 645 l 1
 684 620 l 2
 684 617 684 613 675 613 c 0
 624 613 594 586 565 552 c 2
 421 383 l 2
 403 362 404 358 438 312 c 2
 591 102 l 2
 619 63 653 32 697 32 c 0
 702 32 704 28 704 24 c 2
 704 0 l 1
 703 -2 l 1
 675 -1 609 0 597 0 c 0
 591 0 431 -2 431 -2 c 1
 428 0 l 1
 428 25 l 2
 428 29 431 32 434 32 c 0
 494 32 492 38 467 73 c 2
 345 246 l 2
 324 277 321 277 307 258 c 0
 263 201 219 136 183 77 c 0
 158 35 195 32 218 32 c 0
 222 32 224 28 224 24 c 2
 224 0 l 1
 221 -2 l 1
 221 -2 104 0 90 0 c 0
 85 0 6 -2 6 -2 c 1
 5 0 l 1
 5 25 l 2
 5 30 10 32 16 32 c 0
 75 32 100 65 131 104 c 2
 277 291 l 1
 294 311 293 316 273 344 c 2
 129 549 l 2
 90 605 52 613 35 613 c 0
 28 613 24 615 24 620 c 2
EndSplineSet
EndChar

StartChar: u1D6BF
Encoding: 120511 120511 75
Width: 749
VWidth: 487
Flags: W
HStem: -1 34<239 307.724 443.184 511> 590 26<22.3138 62.7063 686.834 727.301> 613 32<239 306.538 444.451 511>
VStem: 96 110<342.239 563.994> 314 122<38.5094 210.575 243 607.491> 544 109<358.609 565.929>
LayerCount: 2
Fore
SplineSet
635 616 m 2
 705 616 l 2
 717 616 728 609 728 599 c 0
 728 592 721 590 713 588 c 0
 691 582 653 575 653 473 c 0
 653 294 536 226 436 208 c 1
 436 77 l 2
 436 49 450 33 491 33 c 2
 505 33 l 2
 510 33 513 30 513 24 c 2
 513 1 l 1
 511 -1 l 1
 511 -1 411 1 375 1 c 0
 336 1 239 -1 239 -1 c 1
 237 1 l 1
 237 24 l 2
 237 30 241 33 245 33 c 2
 259 33 l 2
 299 33 314 45 314 77 c 2
 314 207 l 1
 210 223 96 287 96 450 c 0
 96 578 57 584 35 590 c 0
 27 592 22 594 22 600 c 0
 22 610 31 616 42 616 c 2
 114 616 l 2
 175 616 206 564 206 466 c 0
 206 323 258 264 314 243 c 1
 314 569 l 2
 314 601 299 613 259 613 c 2
 245 613 l 2
 241 613 237 616 237 621 c 2
 237 645 l 1
 239 646 l 1
 239 646 336 645 375 645 c 0
 411 645 511 646 511 646 c 1
 513 645 l 1
 513 621 l 2
 513 616 510 613 505 613 c 2
 491 613 l 2
 450 613 436 597 436 569 c 2
 436 242 l 1
 529 278 544 402 544 477 c 0
 544 555 562 616 635 616 c 2
EndSplineSet
EndChar

StartChar: u1D6C0
Encoding: 120512 120512 76
Width: 729
VWidth: 487
Flags: W
HStem: 0 71<103.926 260 467 619.918> 619 39<278.914 450.157>
VStem: 44 129<282.026 472.733> 57 38<80.7458 128> 556 129<285.278 478.41> 629 38<80.7292 128>
DStem2: 416 16 467 71 0.0891953 0.996014<59.3297 121.999>
LayerCount: 2
Fore
SplineSet
472 124 m 1
 467 71 l 1
 553 71 l 2
 601 71 623 72 629 128 c 1
 667 128 l 1
 660 0 l 1
 432 0 l 2
 419 0 415 6 416 16 c 2
 428 150 l 1
 520 204 556 269 556 377 c 0
 556 518 494 619 364 619 c 0
 226 619 173 506 173 378 c 0
 173 266 212 212 305 150 c 1
 312 16 l 2
 313 6 307 0 296 0 c 2
 64 0 l 1
 57 128 l 1
 95 128 l 1
 99 76 119 71 171 71 c 2
 260 71 l 1
 257 124 l 1
 149 161 44 249 44 377 c 0
 44 509 167 658 364 658 c 0
 563 658 685 525 685 377 c 0
 685 257 583 161 472 124 c 1
EndSplineSet
EndChar

StartChar: u1D6C1
Encoding: 120513 120513 77
Width: 584
VWidth: 487
Flags: W
HStem: 577 26<65 483>
DStem2: 14 588 65 577 0.378813 -0.925473<29.4997 579.148> 318 -13 270 67 0.387988 0.921664<55.1097 607.8>
LayerCount: 2
Fore
SplineSet
270 67 m 1
 65 577 l 1
 483 577 l 1
 270 67 l 1
260 -13 m 1
 318 -13 l 1
 417 221 571 588 571 588 c 2
 574 594 575 597 575 599 c 0
 575 601 574 602 571 603 c 1
 559 603 l 1
 26 603 l 2
 15 603 10 602 10 599 c 0
 10 597 11 594 14 588 c 2
 14 588 164 221 260 -13 c 1
EndSplineSet
EndChar

StartChar: u1D6C2
Encoding: 120514 120514 78
Width: 638
Flags: W
HStem: -12 71<493.693 549.001> -12 38<226.543 296.017> 408 37<208.019 311.419>
VStem: 36 123<111.432 317.696>
DStem2: 372 180 475 144 0.448393 0.893836<14.0064 29.0689 146.684 306.606>
LayerCount: 2
Fore
SplineSet
385 206 m 1
 377 241 l 1
 357 335 329 408 262 408 c 0
 187 408 159 336 159 226 c 0
 159 146 195 26 271 26 c 0
 296 26 336 106 372 180 c 2
 385 206 l 1
262 445 m 0
 366 445 412 392 436 312 c 1
 503 448 l 1
 535 443 548 442 560 442 c 0
 574 442 598 444 627 447 c 1
 475 144 l 1
 477 146 l 1
 486 87 500 59 512 59 c 0
 527 59 549 68 572 120 c 1
 620 102 l 1
 591 20 565 -12 507 -12 c 0
 466 -12 438 10 421 57 c 1
 379 7 328 -12 263 -12 c 0
 112 -12 36 78 36 202 c 0
 36 388 162 445 262 445 c 0
EndSplineSet
EndChar

StartChar: u1D6C3
Encoding: 120515 120515 79
Width: 542
Flags: W
HStem: -233 21G<82.6471 133.696> -12 32<271.388 340.975> 372 62<208.47 300.574> 383 37<249.349 327.798> 661 37<227.673 314.066>
VStem: 74 110<-187 54 61 552.57> 355 110<482.299 620.373> 389 117<100.623 300.651>
LayerCount: 2
Fore
SplineSet
184 489 m 2
 184 61 l 1
 229 84 l 1
 250 44 289 20 307 20 c 0
 367 20 389 138 389 201 c 0
 389 256 364 383 301 383 c 0
 292 383 277 372 248 372 c 0
 221 372 207 383 207 404 c 0
 207 424 227 434 248 434 c 0
 272 434 289 420 303 420 c 0
 337 420 355 503 355 544 c 0
 355 604 318 661 273 661 c 0
 240 661 184 639 184 489 c 2
74 -199 m 1
 74 416 l 2
 74 550 125 698 283 698 c 0
 374 698 465 649 465 554 c 0
 465 477 404 433 338 405 c 1
 396 392 506 349 506 205 c 0
 506 92 440 -12 312 -12 c 0
 253 -12 203 16 184 54 c 1
 184 -187 l 1
 95 -233 l 1
 74 -199 l 1
EndSplineSet
EndChar

StartChar: u1D6C4
Encoding: 120516 120516 80
Width: 550
Flags: W
HStem: 375 70<96.855 182.5>
VStem: 192 162<-206.38 -94.789> 430 91<277.55 403>
LayerCount: 2
Fore
SplineSet
521 386 m 0
 521 310 466 159 343 -12 c 1
 352 -41 354 -69 354 -96 c 0
 354 -131 342 -263 264 -263 c 0
 207 -263 192 -205 192 -174 c 0
 192 -130 215 -82 269 -9 c 1
 269 -2 l 1
 237 142 191 264 139 352 c 0
 130 367 122 375 116 375 c 0
 107 375 89 343 72 304 c 1
 8 325 l 1
 25 376 64 445 143 445 c 0
 222 445 243 410 259 363 c 0
 289 278 316 189 333 83 c 1
 388 177 430 265 430 316 c 0
 430 337 426 344 419 347 c 0
 402 355 374 376 374 399 c 0
 374 431 405 445 440 445 c 0
 485 445 521 420 521 386 c 0
EndSplineSet
EndChar

StartChar: u1D6C5
Encoding: 120517 120517 81
Width: 540
Flags: W
HStem: -12 37<227.419 325.938> 563 21G<383 402.5> 658 40<219.094 301.98>
VStem: 44 119<105.019 290.915> 111 95<557.58 646.131> 322 128<581.339 640.08> 384 121<121.112 300.305>
LayerCount: 2
Fore
SplineSet
303 377 m 1
 281 396 l 1
 222 370 163 321 163 217 c 0
 163 139 198 25 275 25 c 0
 317 25 384 56 384 214 c 0
 384 267 353 338 303 377 c 1
243 427 m 1
 229 438 l 1
 149 503 111 540 111 587 c 0
 111 666 188 698 267 698 c 0
 378 698 450 637 450 603 c 0
 450 571 414 563 391 563 c 0
 375 563 341 571 322 608 c 0
 303 645 282 658 266 658 c 0
 229 658 206 637 206 597 c 0
 206 569 252 533 298 498 c 0
 416 409 505 330 505 226 c 0
 505 62 380 -12 264 -12 c 0
 128 -12 44 83 44 200 c 0
 44 328 151 394 243 427 c 1
EndSplineSet
EndChar

StartChar: u1D6C6
Encoding: 120518 120518 82
Width: 435
Flags: W
HStem: -12 41<194.332 306.84> 202 46<187.312 333.773> 408 37<196.373 258.045>
VStem: 44 122<54.1754 180.502> 64 113<263.805 381.329>
LayerCount: 2
Fore
SplineSet
166 121 m 0
 166 70 195 29 240 29 c 0
 276 29 320 53 370 87 c 1
 397 52 l 1
 362 19 303 -12 230 -12 c 0
 76 -12 44 66 44 118 c 0
 44 141 46 194 142 229 c 1
 89 250 64 276 64 322 c 0
 64 363 103 445 237 445 c 0
 326 445 392 408 392 370 c 0
 392 338 355 330 335 330 c 0
 297 330 285 346 275 364 c 0
 264 384 250 408 231 408 c 0
 208 408 177 386 177 325 c 0
 177 259 202 243 233 243 c 1
 233 243 236 244 241 244 c 0
 254 246 278 248 284 248 c 0
 316 248 334 241 334 227 c 0
 334 212 322 202 283 202 c 0
 277 202 266 204 256 205 c 0
 245 207 234 208 232 208 c 0
 191 208 166 175 166 121 c 0
EndSplineSet
EndChar

StartChar: u1D6C7
Encoding: 120519 120519 83
Width: 496
Flags: W
HStem: -204 47<228.5 363.885> -6 79<210.979 374.88> 510 37<170.509 238.346>
VStem: 61 106<112.696 294.853 550.301 609.474> 388 76<-131.677 -17.8406>
LayerCount: 2
Fore
SplineSet
222 642 m 1
 208 637 l 2
 205 636 169 615 169 570 c 0
 169 555 186 547 213 547 c 0
 233 547 255 550 285 554 c 1
 272 553 l 1
 312 595 352 623 385 623 c 0
 427 623 441 604 441 578 c 0
 441 550 389 528 302 517 c 1
 316 518 l 1
 182 347 167 279 167 203 c 0
 167 133 180 73 303 73 c 0
 405 73 464 23 464 -62 c 0
 464 -119 425 -204 252 -204 c 0
 205 -204 141 -188 141 -146 c 0
 141 -123 159 -108 197 -108 c 0
 233 -108 244 -119 255 -132 c 0
 266 -145 278 -157 294 -157 c 0
 368 -157 388 -120 388 -63 c 0
 388 -25 366 -6 315 -6 c 0
 98 -6 61 89 61 193 c 0
 61 284 107 363 239 513 c 1
 216 511 197 510 178 510 c 0
 107 510 61 526 61 575 c 0
 61 607 120 639 210 672 c 1
 222 642 l 1
EndSplineSet
EndChar

StartChar: u1D6C8
Encoding: 120520 120520 84
Width: 561
Flags: W
HStem: -237 21G<446.959 500.875> 387 30<36 77> 389 56<269.522 354.57>
VStem: 99 110<13 357.068 381 383> 376 110<-186.061 366.477>
LayerCount: 2
Fore
SplineSet
209 381 m 1
 238 405 287 445 351 445 c 0
 432 445 486 402 486 284 c 2
 486 0 l 2
 486 -124 496 -173 508 -205 c 1
 489 -237 l 1
 386 -188 l 1
 377 -147 376 -83 376 0 c 2
 376 277 l 2
 376 339 358 389 315 389 c 0
 274 389 245.8 369.2 209 341 c 1
 209 13 l 1
 120 -33 l 1
 99 1 l 1
 99 321 l 2
 99 371 91 382 77 383 c 2
 36 387 l 1
 34 417 l 1
 104 426 170 437 202 447 c 0
 204 447 209 446 209 444 c 2
 207 381 l 1
 209 381 l 1
EndSplineSet
EndChar

StartChar: u1D6C9
Encoding: 120521 120521 85
Width: 498
Flags: W
HStem: -12 37<215.145 286.226> 311 46<144 355> 644 37<210.333 282.905>
VStem: 29 115<176.619 311 357 485.672> 355 114<179.553 311 357 496.521>
LayerCount: 2
Fore
SplineSet
355 311 m 1
 144 311 l 1
 145 171 188 25 251 25 c 0
 314 25 354 170 355 311 c 1
246 644 m 0
 179 644 145 482 144 357 c 1
 355 357 l 1
 354 508 307 644 246 644 c 0
29 334 m 0
 29 565 144 681 252 681 c 0
 340 681 469 594 469 334 c 0
 469 76 334 -12 247 -12 c 0
 152 -12 29 86 29 334 c 0
EndSplineSet
EndChar

StartChar: u1D6CA
Encoding: 120522 120522 86
Width: 328
Flags: W
HStem: -12 60<168.5 266.091> 387 30<36 77> 427 20G<189.25 206.219>
VStem: 99 110<49.2292 383>
LayerCount: 2
Fore
SplineSet
99 321 m 2
 99 371 91.4 381.6 77 383 c 2
 36 387 l 1
 34 417 l 1
 103.5 426.5 173.5 437 205 447 c 0
 207.4 447 212 446.4 212 444 c 2
 212 444 209 371.3 209 321.3 c 2
 209 83 l 2
 209 61 220 48 229 48 c 0
 247 48 273 72 298 104 c 1
 329 79 l 1
 305 32 257 -12 208 -12 c 0
 129 -12 99 22 99 83 c 2
 99 321 l 2
EndSplineSet
EndChar

StartChar: u1D6CB
Encoding: 120523 120523 87
Width: 530
Flags: W
HStem: -12 58<366 444.381> 343 102<388.448 486.771> 387 30<28 69>
VStem: 91 110<18 155 256 383>
DStem2: 285 272 229 183 0.466878 -0.884322<52.5595 262.735>
LayerCount: 2
Fore
SplineSet
201 321.3 m 2
 201 256 l 1
 219 281 241 300 258 325 c 0
 305 390 345 445 422 445 c 0
 463 445 498 436 498 390 c 0
 498 367 470 343 441 343 c 0
 403 343 380 365 380 385 c 1
 373 380 348 357 318 315 c 1
 285 272 l 1
 314 219 342 165 370 111 c 0
 393 67 414 46 420 46 c 0
 425.2 46 445 66 475 101 c 1
 475 101 503 70 511 70 c 1
 457 4 429 -12 383 -12 c 0
 349 -12 321 3 289 64 c 0
 265 111 253 135 229 183 c 1
 201 155 l 1
 201 18 l 1
 112 -28 l 1
 91 6 l 1
 91 321 l 2
 91 371 83.4 381.6 69 383 c 2
 28 387 l 1
 26 417 l 1
 95.5 426.5 165.5 437 197 447 c 0
 199.4 447 204 446.4 204 444 c 2
 204 444 201 371.3 201 321.3 c 2
EndSplineSet
Comment: "Ist das so richtig? In Times anders" 
EndChar

StartChar: u1D6CC
Encoding: 120524 120524 88
Width: 581
Flags: W
HStem: -12 74<446.859 489.202> 630 68<93.2372 172.287>
VStem: 514 56<88.5249 103.111>
DStem2: 294 567 230 476 0.288103 -0.957599<-85.3722 118.989 248.01 530.625>
LayerCount: 2
Fore
SplineSet
561 104 m 1
 570 100 l 1
 551 38 512 -12 461 -12 c 0
 397 -12 363 34 335 127 c 1
 284 305 l 1
 241 208 198 110 154 13 c 1
 54 -15 l 1
 16 0 l 1
 245 428 l 1
 240 443 235 460 230 476 c 0
 190 600 162 630 144 630 c 0
 125 630 98 614 66 589 c 1
 40 634 l 1
 67 674 116 698 158 698 c 0
 186 698 260 680 294 567 c 2
 383 270 l 1
 429 121 449 62 465 62 c 0
 476 62 490 75 514 132 c 1
 561 104 l 1
EndSplineSet
EndChar

StartChar: u1D6CD
Encoding: 120525 120525 89
Width: 529
VWidth: 999
Flags: W
HStem: -232 21<100 126> -12 53<175.705 270.937 395 488.115> 427 20<36 154.577 324 434>
VStem: 47 116<-210.75 -5.68021 51.2708 433.938> 64 82<-162.013 -3> 324 110<76.4375 434>
LayerCount: 2
Fore
SplineSet
325 48 m 1
 284 15 247 -12 192 -12 c 0
 176 -12 160 -9 146 -3 c 1
 148 -35 145 -67 151 -96 c 0
 157 -122 163 -151 163 -168 c 0
 163 -211 142 -232 110 -232 c 0
 90 -232 47 -206 47 -163 c 0
 47 -142 50 -118 54 -92 c 0
 58 -66 64 -40 64 -4 c 0
 64 10 62 26 61 46 c 1
 58 72 47 111.5 47 137 c 2
 47 323 l 2
 47 348 36 434 36 434 c 1
 154 447 l 1
 154 447 157 375 157 343 c 2
 157 150 l 2
 157 87 175 41 210 41 c 0
 251 41 302 68 324 98 c 1
 324 434 l 1
 434 448 l 1
 434 126 l 2
 434 80 435 42 474 42 c 0
 498.2 42 499.2 58 505 58 c 0
 509 58 518 45 518 38 c 0
 518 33 480 -10 425 -10 c 0
 365 -10 339 9.5 327 48 c 1
 325 48 l 1
EndSplineSet
EndChar

StartChar: u1D6CE
Encoding: 120526 120526 90
Width: 517
Flags: W
HStem: -12 21G<203.5 348.5> 383 62<56.1611 154.988>
VStem: 394 96<299.698 409.753>
LayerCount: 2
Fore
SplineSet
424 445 m 0
 468 445 490 418 490 388 c 0
 490 372 484 349 477 324 c 1
 449 238 406 156 291 -12 c 1
 206 -12 l 1
 201 130 136 383 97 383 c 0
 76 383 62 371 49 353 c 1
 11 377 l 1
 37 412 71 445 117 445 c 0
 191 445 232 340 264 246 c 1
 277 203 291 154 299 113 c 1
 361 220 394 278 394 309 c 0
 394 341 384 353 375 360 c 0
 362 370 358 385 358 401 c 0
 358 418 379 445 424 445 c 0
EndSplineSet
EndChar

StartChar: u1D6CF
Encoding: 120527 120527 91
Width: 460
Flags: W
HStem: -209 47<223 350.467> -12 77<179.275 349.643> 247 1<191.695 193> 271 73<265.742 380.941> 271 40<265.5 287.993> 503 34<173.877 189>
VStem: 45 102<94.8401 220.016> 75 110<319.076 434.625> 75 96<537.447 600.796> 365 73<-141.786 -28.0155>
LayerCount: 2
Fore
SplineSet
353 556 m 1
 348 553 343 550 337 547 c 1
 344 549 351 552 353 556 c 1
365 -73 m 0
 365 -27 330 -12 279 -12 c 0
 86 -12 45 73 45 157 c 0
 45 212 83 248 146 276 c 1
 98 306 75 339 75 384 c 0
 75 423 115 464 189 503 c 1
 185 503 l 2
 125 503 75 516 75 568 c 0
 75 600 138 631 227 664 c 1
 229 649 229 640 230 637 c 0
 231 633 232 629 233 629 c 2
 219 622 l 2
 206 615 171 599 171 558 c 0
 171 543 180 537 200 537 c 0
 213.3 537 229.7 538.9 250 542 c 1
 302 578 344 594 373 594 c 0
 411 594 430 582 430 556 c 0
 430 528 376 516 282 511 c 1
 208 471 185 429 185 373 c 0
 185 323 198 311 216 311 c 0
 239 311 265 322 288 331 c 0
 306 338 322 344 341 344 c 0
 373 344 387 333 387 313 c 0
 387 284 361 271 314 271 c 0
 307 271 302 271 298 271 c 0
 295 271 293 272 291 272 c 0
 259.3 264.3 224.9 255.8 193 248 c 1
 165 234 147 208 147 162 c 0
 147 107 170 65 267 65 c 0
 364 65 438 21 438 -73 c 0
 438 -151 369 -209 250 -209 c 0
 196 -209 152 -202 152 -167 c 0
 152 -146 177 -133 209 -133 c 0
 234 -133 253 -141 273 -148 c 0
 291 -155 309 -162 322 -162 c 0
 345 -162 365 -126 365 -73 c 0
EndSplineSet
EndChar

StartChar: u1D6D0
Encoding: 120528 120528 92
Width: 519
VWidth: 999
Flags: W
HStem: -10 43<223.814 325.852> 403 41<203.326 303.665>
VStem: 34 122<119.406 317.729> 364 121<118.762 320.282>
LayerCount: 2
Fore
SplineSet
250 403 m 0
 186 403 156 314 156 229 c 0
 156 155 193 33 275 33 c 0
 311 33 364 57 364 184 c 0
 364 327 318 403 250 403 c 0
34 207 m 0
 34 344 115 444 260 444 c 0
 423 444 485 321 485 216 c 0
 485 115 414 -10 259 -10 c 0
 112 -10 34 104 34 207 c 0
EndSplineSet
EndChar

StartChar: u1D6D1
Encoding: 120529 120529 93
Width: 607
Flags: W
HStem: -12 85<58.9819 120.176> -12 60<447.818 500.846> 357 76<115.135 159 448 522.086>
VStem: 23 60<283.95 321.31> 159 95<127.635 357> 346 99<50.4717 109>
LayerCount: 2
Fore
SplineSet
449 433 m 2
 142 433 l 2
 75 433 31 346 23 285 c 1
 83 276 l 1
 102 332 125 355 159 357 c 1
 159 106 120 79 98 73 c 0
 59 64 46 35 46 26 c 0
 46 -4 81 -12 100 -12 c 0
 212 -12 253 117 254 357 c 1
 350 357 l 1
 347 244 346 167 346 109 c 0
 346 46 367 -12 453 -12 c 0
 514 -12 556 41 580 72 c 1
 542 107 l 1
 492 54 465 48 456 48 c 0
 448 48 445 69 445 109 c 0
 445 242 445 322 448 358 c 1
 506 361 550 378 577 424 c 1
 526 459 l 1
 515 435 477 433 449 433 c 2
EndSplineSet
EndChar

StartChar: u1D6D2
Encoding: 120530 120530 94
Width: 561
Flags: W
HStem: -11 37<217.481 338.646> 399 46<224.389 344.485>
VStem: 75 110<-202.723 -1 51.4685 326.095> 406 122<135.427 326.776>
LayerCount: 2
Fore
SplineSet
406 200 m 0
 406 354 345 399 277 399 c 0
 237 399 185 374 185 232 c 2
 185 79 l 1
 202 42 248 26 285 26 c 0
 354 26 406 97 406 200 c 0
177 -204 m 1
 71 -248 l 1
 53 -218 l 1
 65 -187 75 -128 75 -3 c 2
 75 186 l 2
 75 319 108 356 137 386 c 1
 180 428 249 445 302 445 c 0
 434 445 528 357 528 242 c 0
 528 88 416 -11 271 -11 c 0
 239 -11 207 -7 185 -1 c 1
 185 -12 186 -24 186 -36 c 0
 186 -52 186 -72 186 -87 c 0
 186 -134 184 -177 177 -204 c 1
EndSplineSet
EndChar

StartChar: u1D6D3
Encoding: 120531 120531 95
Width: 479
Flags: W
HStem: -222 48<180.5 344.083> -12 83<181.598 347.263> 375 70<193.36 319.447>
VStem: 28 91<130.34 289.75> 375 76<-138.557 -36.6725>
LayerCount: 2
Fore
SplineSet
28 199 m 0
 28 306 123 445 294 445 c 0
 408 445 448 403 448 375 c 0
 448 347 423 330 382 330 c 0
 355 330 334 340 318 355 c 1
 304 370 288 375 257 375 c 0
 180 375 119 286 119 220 c 0
 119 108 174 71 305 71 c 0
 352 71 383 58 402 38 c 0
 441 -1 451 -36 451 -78 c 0
 451 -117 426 -151 386 -179 c 1
 341 -209 298 -222 233 -222 c 0
 128 -222 109 -184 109 -158 c 0
 109 -128 139 -112 166 -112 c 0
 207 -112 226 -123 238 -150 c 0
 243 -160 251 -174 275 -174 c 0
 327 -174 375 -149 375 -80 c 0
 375 -25 316 -16 220 -12 c 0
 97 -7 28 104 28 199 c 0
EndSplineSet
EndChar

StartChar: u1D6D4
Encoding: 120532 120532 96
Width: 594
Flags: W
HStem: -12 38<225.601 327.63> 359 76<221.189 347 398 518.012>
VStem: 38 113<108.332 287.002> 384 114<99.9461 277.196>
LayerCount: 2
Fore
SplineSet
286 26 m 0
 338 26 384 96 384 187 c 0
 384 234 381 289 329 343 c 1
 336 348 348 357 347 359 c 1
 307 359 l 2
 195 359 151 282 151 189 c 0
 151 124 198 26 286 26 c 0
108 369 m 1
 145 404 211 435 312 435 c 2
 442 435 l 2
 471 435 508 445 531 465 c 1
 572 436 l 1
 543 385 496 359 424 359 c 2
 398 359 l 1
 458 324 498 264 498 184 c 0
 498 126 454 -12 280 -12 c 0
 130 -12 38 78 38 205 c 0
 38 264 64 324 108 369 c 1
EndSplineSet
EndChar

StartChar: u1D6D5
Encoding: 120533 120533 97
Width: 463
Flags: W
HStem: -12 60<237.776 323.734> 357 75<114.248 185 283.184 379.122>
VStem: 24 62<286.645 324.306> 164 106<48.124 352.044> 185 100<114.464 357>
LayerCount: 2
Fore
SplineSet
142 432 m 2
 306 432 l 2
 335 432 373 435 384 459 c 1
 434 424 l 1
 406 373 358 357 289 357 c 2
 285 357 l 1
 275 250 270 162 270 109 c 0
 270 67 273 48 280 48 c 0
 291 48 312 54 365 107 c 1
 403 72 l 1
 369 26 330 -12 272 -12 c 0
 204 -12 164 33 164 112 c 0
 164 164 172 252 185 357 c 1
 152 357 l 2
 120 357 111 339 86 276 c 1
 24 288 l 1
 31 342 62 432 142 432 c 2
EndSplineSet
EndChar

StartChar: u1D6D6
Encoding: 120534 120534 98
Width: 530
Flags: W
HStem: -12 54<240.267 351.44> 364 81<323.969 397.814> 386 59<72.5422 179>
VStem: 86 114<84.4349 372.391> 103 119<175.812 414.458> 418 81<128.003 346.796>
LayerCount: 2
Fore
SplineSet
499 250 m 0
 499 75 399 -12 298 -12 c 0
 136 -12 86 78 86 175 c 0
 86 220 91 258 96 291 c 0
 99 316 103 340 103 361 c 0
 103 378 101 386 99 386 c 0
 92 386 36 370 36 370 c 1
 27 397 l 1
 49 417 114 445 161 445 c 0
 197 445 222 427 222 394 c 0
 222 361 217 330 212 297 c 0
 206 263 200 226 200 172 c 0
 200 105 228 42 298 42 c 0
 372 42 418 144 418 238 c 0
 418 329 396 359 376 364 c 1
 360 366 317 373 317 405 c 0
 317 424 338 445 379 445 c 0
 463 445 499 372 499 250 c 0
EndSplineSet
EndChar

StartChar: u1D6D7
Encoding: 120535 120535 99
Width: 604
Flags: W
HStem: -220 21G<239 361> 627 20G<268 335.68>
VStem: 28 118<120.903 304.544> 239 122<-220 -15> 246 109<-161.429 -13.2927 23 246> 261 82<196.545 406 439.754 621.25> 269 66<445.144 647> 458 118<120.717 304.233>
LayerCount: 2
Fore
SplineSet
146 212 m 0
 146 142 167 90 202 56 c 1
 217 40 233 29 248 23 c 1
 252 151 257 278 261 406 c 1
 242 401 223 391 201 369 c 0
 168 335 146 284 146 212 c 0
343 406 m 1
 354 22 l 1
 369 27 386 39 406 59 c 0
 437 90 458 142 458 212 c 0
 458 284 437 335 403 370 c 1
 380 392 361 402 343 406 c 1
104 49 m 0
 53 98 28 152 28 212 c 0
 28 274 53 328 104 376 c 1
 155 426 214 438 262 442 c 1
 264 509 267 581 269 647 c 1
 335 647 l 1
 342 441 l 1
 410 437 458 418 501 376 c 0
 552 327 576 273 576 212 c 0
 576 151 551 97 501 49 c 0
 454 3 401 -11 355 -16 c 1
 357 -83 359 -153 361 -220 c 1
 239 -220 l 1
 246 -15 l 1
 187 -8 143 11 104 49 c 0
EndSplineSet
EndChar

StartChar: u1D6D8
Encoding: 120536 120536 100
Width: 549
Flags: W
HStem: -177 57<413.835 477.568> 395 50<42.8818 127.367>
DStem2: 284 256 179 247 0.322114 -0.946701<-159.719 37.6245 213.153 389.023>
LayerCount: 2
Fore
SplineSet
179 247 m 0
 146 342 127 395 100 395 c 0
 93 395 75 390 44 374 c 1
 20 403 l 1
 42 431 70 445 119 445 c 0
 201 445 244 373 284 256 c 1
 292 229 287 247 295 220 c 1
 337 295 382 374 423 447 c 1
 458 438 l 1
 480 441 520 446 538 448 c 1
 459 330 l 1
 323 128 l 1
 326 131 l 1
 339 93 353 53 366 15 c 0
 406 -101 419 -120 443 -120 c 0
 453 -120 468 -112 489 -86 c 1
 528 -119 l 1
 505 -156 465 -177 432 -177 c 0
 338 -177 306 -121 262 9 c 1
 258 22 l 1
 240 -10 222 -42 204 -74 c 1
 131 -190 l 1
 63 -170 l 1
 45 -151 l 1
 55 -136 l 1
 226 112 l 1
 210 157 195 202 179 247 c 0
EndSplineSet
EndChar

StartChar: u1D6D9
Encoding: 120537 120537 101
Width: 687
Flags: W
HStem: -220 21G<282 416> -7 33<407 442.158> 381 57<75.8677 174>
VStem: 69 110<101.462 312.792> 106 113<301.731 413.257> 282 134<-220 -72.3> 292 115<-156.7 -7.51828> 319 67<358.8 538> 528 100<175.527 357.5>
LayerCount: 2
Fore
SplineSet
319 538 m 1
 386 538 l 1
 406 26 l 1
 501 52 528 159 528 212 c 0
 528 250 516 281 504 311 c 0
 491 342 480 372 480 399 c 0
 480 420 509 443 541 443 c 0
 618 443 628 387 628 328 c 0
 628 166 571 18 407 -7 c 1
 410 -77 413 -151 416 -220 c 1
 282 -220 l 1
 292 -9 l 1
 119 4 69 108 69 184 c 0
 69 266 86 305 98 332 c 0
 103 342 106 351 106 365 c 0
 106 374 104 381 102 381 c 0
 97 381 82 377 37 361 c 1
 33 396 l 1
 77 418 121 438 148 438 c 0
 200 438 219 417 219 398 c 0
 219 373 211 347 203 320 c 0
 192 285 179 243 179 175 c 0
 179 128 214 49 294 27 c 1
 303 196 311 369 319 538 c 1
EndSplineSet
EndChar

StartChar: u1D6DA
Encoding: 120538 120538 102
Width: 736
Flags: W
HStem: -12 43<185.72 293.019 442.839 538.027>
VStem: 37 109<78.2937 267.532> 312 113<141.514 297.845> 586 114<94.3094 291.674>
LayerCount: 2
Fore
SplineSet
700 207 m 0
 700 79 635 -12 499 -12 c 0
 450 -12 402 4 370 52 c 1
 340 9 294 -12 232 -12 c 0
 132 -12 37 33 37 179 c 0
 37 277 120 383 251 456 c 1
 272 423 l 1
 241 407 146 322 146 186 c 0
 146 65 188 31 249 31 c 0
 287 31 312 65 332 133 c 1
 315 181 312 229 312 247 c 0
 312 279 328 308 368 308 c 0
 409 308 425 286 425 253 c 0
 425 230 421 188 401 134 c 1
 420 73 447 31 486 31 c 0
 562 31 586 120 586 214 c 0
 586 261 566 337 463 423 c 1
 486 453 l 1
 529 433 700 351 700 207 c 0
EndSplineSet
EndChar

StartChar: u1D6DB
Encoding: 120539 120539 103
Width: 462
VWidth: 488
Flags: W
HStem: -11 33<161.287 248.33> 331 38<192.923 301.232> 584 32<157.28 265.429>
VStem: 29 80<77.7701 234.319> 347 79<257.347 458.171>
LayerCount: 2
Fore
SplineSet
248 331 m 0
 172 331 109 233 109 138 c 0
 109 85 152 22 208 22 c 0
 290 22 326 168 338 278 c 1
 323 297 292 331 248 331 c 0
226 369 m 0
 273 369 312 352 344 314 c 1
 346 324 347 337 347 354 c 0
 347 435 308 584 221 584 c 0
 172 584 159 573 154 564 c 0
 144 546 129 528 110 528 c 0
 92 528 80 539 80 556 c 0
 80 589 142 616 216 616 c 0
 340 616 426 487 426 327 c 0
 426 169 361 -11 206 -11 c 0
 110 -11 29 59 29 166 c 0
 29 290 131 369 226 369 c 0
EndSplineSet
EndChar

StartChar: u1D6DC
Encoding: 120540 120540 104
Width: 446
Flags: W
HStem: -12 51<215.32 336.417> 203 51<150 365> 394 51<197.981 338.871>
VStem: 29 121<118.248 203 254 312.404>
LayerCount: 2
Fore
SplineSet
387 362 m 1
 356 362 l 1
 314 392 275 394 261 394 c 0
 240 394 213 391 184 361 c 1
 166 344 153 307 149 254 c 1
 365 254 l 1
 365 203 l 1
 150 203 l 1
 159 108 202 39 275 39 c 0
 309 39 349 65 385 101 c 1
 418 66 l 1
 403 43 356 -12 251 -12 c 0
 103 -12 29 96 29 212 c 0
 29 377 167 445 252 445 c 0
 315 445 365 426 403 384 c 1
 387 362 l 1
EndSplineSet
EndChar

StartChar: u1D6DD
Encoding: 120541 120541 105
Width: 618
Flags: W
HStem: -12 38<246.245 329.465> 339 69<243.381 389> 637 44<226.99 312.861>
VStem: 80 116<461.766 604.941> 95 108<69.4219 230.506> 389 112<155.353 335 408 516.931> 528 68<269 331.244>
LayerCount: 2
Fore
SplineSet
240 432 m 0
 263 413 308 408 389 408 c 1
 388 576 307 637 268 637 c 0
 229 637 196 589 196 525 c 0
 196 492 214 453 240 432 c 0
528 269 m 1
 528 311 519 329 501 335 c 1
 500 144 452 -12 276 -12 c 0
 187 -12 95 27 95 142 c 0
 95 208 95 232 81 232 c 0
 78 232 38 218 38 218 c 1
 28 247 l 1
 49 255 l 1
 47 255 l 1
 67 266 105 287 150 287 c 0
 203 287 203 234 203 151 c 0
 203 68 254 26 286 26 c 0
 378 26 389 213 389 339 c 1
 190 345 80 415 80 555 c 0
 80 620 153 681 241 681 c 0
 418 681 500 538 501 407 c 1
 529 405 548 399 562 390 c 1
 562 391 l 1
 586 374 596 333 596 269 c 1
 528 269 l 1
EndSplineSet
EndChar

StartChar: u1D6DE
Encoding: 120542 120542 106
Width: 532
Flags: W
HStem: -12 80<389.766 443.187> 331 80<88.5909 142.62>
VStem: 54 137<-7.4213 63.8865> 146 77<195.079 330.359> 310 77<68.6409 195.646> 341 138<329.084 401.421>
LayerCount: 2
Fore
SplineSet
146 274 m 0
 146 312 141 331 131 331 c 0
 115 331 94 317 66 289 c 2
 49 272 l 1
 31 289 l 1
 12 308 l 2
 12 307 11 306 11 306 c 1
 10 308 l 1
 11 310 l 1
 12 308 l 1
 48 372 88 411 136 411 c 0
 196 411 223 363 223 274 c 0
 223 253 221 226 216 194 c 1
 230 210 245 228 262 249 c 0
 308 306 336 351 341 375 c 0
 347 400 372 411 414 411 c 0
 457 411 479 396 479 369 c 0
 479 345 450 314 395 275 c 1
 403 278 l 1
 392 216 387 165 387 125 c 0
 387 86 392 68 401 68 c 0
 417 68 438 82 466 110 c 2
 483 127 l 1
 501 110 l 1
 520 91 l 1
 484 26 443 -12 396 -12 c 0
 336 -12 310 36 310 125 c 0
 310 144 311 168 314 197 c 1
 301 182 287 165 271 145 c 0
 225 88 196 43 191 20 c 0
 185 -6 160 -17 119 -17 c 0
 75 -17 54 -2 54 25 c 0
 54 50 81 79 133 115 c 1
 124 112 l 1
 138 175 146 229 146 274 c 0
520 91 m 2
 521 91 521 92 521 93 c 2
 522 91 l 1
 521 89 l 1
 520 91 l 2
EndSplineSet
EndChar

StartChar: u1D6DF
Encoding: 120543 120543 107
Width: 646
Flags: W
HStem: -237 21G<279.647 333.579> -8 35<230.897 271> 410 35<392.526 454.348>
VStem: 41 116<122.584 310.938> 271 100<-199 -5.74655 30 376.768> 499 115<137.648 331.228>
LayerCount: 2
Fore
SplineSet
499 224 m 0
 499 358 461 410 414 410 c 0
 390 410 371 358 371 248 c 2
 371 30 l 1
 444 53 499 135 499 224 c 0
292 -237 m 1
 271 -203 l 1
 271 -8 l 1
 122 8 41 93 41 229 c 0
 41 343 161 419 216 446 c 1
 245 414 l 1
 211 387 157 343 157 220 c 0
 157 127 191 47 271 27 c 1
 271 261 l 2
 271 331 279 372 323 416 c 0
 345 438 381 445 415 445 c 0
 540 445 614 341 614 239 c 0
 614 60 453 5 371 -7 c 1
 371 -199 l 1
 292 -237 l 1
EndSplineSet
EndChar

StartChar: u1D6E0
Encoding: 120544 120544 108
Width: 488
Flags: W
HStem: -194 75<174.875 337.657> -12 41<185.009 286.653> 401 44<190.504 287.426>
VStem: 27 111<16.6585 307.766> 346 116<104.666 317.8>
LayerCount: 2
Fore
SplineSet
235 29 m 0
 278 29 346 75 346 215 c 0
 346 286 315 401 238 401 c 0
 198 401 138 354 138 201 c 0
 138 60 196 29 235 29 c 0
462 210 m 0
 462 75 376 -12 237 -12 c 0
 188 -12 146 1 111 26 c 1
 126 -78 159 -119 275 -119 c 0
 389 -119 413 -188 420 -229 c 1
 361 -249 l 1
 353 -228 333 -194 266 -194 c 0
 80 -194 27 -110 27 164 c 0
 27 373 127 445 235 445 c 0
 375 445 462 348 462 210 c 0
EndSplineSet
EndChar

StartChar: u1D6E1
Encoding: 120545 120545 109
Width: 789
VWidth: 999
Flags: W
HStem: -12 43<225.72 333.019 482.839 578.027> 374 68<70.7273 712>
VStem: 17 20<294 318.216> 77 109<78.2937 267.532> 352 113<141.514 297.845> 626 114<94.3094 291.674>
LayerCount: 2
Fore
SplineSet
740 207 m 0
 740 79 675 -12 539 -12 c 0
 490 -12 442 4 410 52 c 1
 380 9 334 -12 272 -12 c 0
 172 -12 77 33 77 179 c 0
 77 244.5 114.1 313.6 177.8 374 c 1
 125 374 l 2
 68 374 50 330 37 294 c 1
 17 294 l 1
 35 383 49 442 142 442 c 2
 267.1 442 l 1
 274.9 446.8 282.8 451.5 291 456 c 1
 299.9 442 l 1
 517.6 442 l 1
 526 453 l 1
 531.6 450.4 539.4 446.7 548.7 442 c 1
 712 442 l 1
 712 374 l 1
 652 374 l 1
 698.9 333.2 740 277.5 740 207 c 0
554.2 374 m 1
 256.1 374 l 1
 221.5 333.1 186 269.1 186 186 c 0
 186 65 228 31 289 31 c 0
 327 31 352 65 372 133 c 1
 355 181 352 229 352 247 c 0
 352 279 368 308 408 308 c 0
 449 308 465 286 465 253 c 0
 465 230 461 188 441 134 c 1
 460 73 487 31 526 31 c 0
 602 31 626 120 626 214 c 0
 626 251.8 613 308.5 554.2 374 c 1
EndSplineSet
EndChar

StartChar: u1D7CA
Encoding: 120778 120778 110
Width: 533
Flags: W
HStem: 1 34<26 89.4313 213.764 286> 329 52<213 370.767> 596 50<213 426.937> 611 36<26 89.3474>
VStem: 90 123<35.0088 329 381 595.225> 372 68<231 328.982> 469 72<449 526.648>
LayerCount: 2
Fore
SplineSet
527 646 m 1
 541 449 l 1
 469 449 l 1
 461 492 431 596 404 596 c 2
 213 596 l 1
 213 381 l 1
 349 381 l 2
 370 381 420 378 440 376 c 1
 440 231 l 1
 372 231 l 1
 372 296 l 2
 372 323 364 329 349 329 c 2
 213 329 l 1
 213 74 l 2
 213 42 215 35 228 35 c 2
 257 35 l 2
 270 35 287 34 287 24 c 2
 287 5 l 1
 286 -1 l 1
 286 -1 191 1 145 1 c 0
 104 1 26 -1 26 -1 c 1
 17 8 l 1
 17 24 l 2
 17 31 28 35 46 35 c 2
 76 35 l 2
 90 35 90 47 90 74 c 2
 90 572 l 2
 90 604 88 611 76 611 c 2
 46 611 l 2
 28 611 17 615 17 622 c 2
 17 637 l 1
 26 647 l 1
 143 646 l 1
 527 646 l 1
EndSplineSet
EndChar

StartChar: u1D7CB
Encoding: 120779 120779 111
Width: 469
Flags: W
HStem: -214 21G<97.5 118> 110 74<137.039 316.47> 354 84<159.23 354.108> 354 76<228.123 387.39>
VStem: 46 77<-63.5431 99.209> 47 69<167 306.088>
LayerCount: 2
Fore
SplineSet
430 448 m 1
 440 443 l 1
 422 388 392 354 322 354 c 2
 231 354 l 1
 121 356 118 261 116 167 c 1
 132 177 153 184 179 184 c 2
 280 184 l 2
 292 184 309 195 326 216 c 1
 368 198 l 1
 355 144 314 104 251 104 c 0
 236 104 221 106 209 107 c 0
 196 109 181 110 171 110 c 0
 137 110 123 69 123 27 c 0
 123 1 132 -24 141 -52 c 0
 153 -87 167 -124 167 -153 c 0
 167 -176 162 -189 147 -203 c 1
 141 -210 129 -214 107 -214 c 0
 88 -214 73 -211 67 -205 c 0
 46 -185 46 -159 46 -142 c 2
 47 214 l 2
 48 316 89 438 227 438 c 0
 251 438 272 436 294 434 c 0
 315 432 336 430 355 430 c 0
 369 430 383 439 397 467 c 1
 430 448 l 1
EndSplineSet
EndChar

StartChar: u1D7CE
Encoding: 120782 120782 112
Width: 490
Flags: W
HStem: -10 43<207.925 279.565> 566 44<207.482 283.191>
VStem: 40 118<157.525 438.745> 333 117<154.597 448.204>
LayerCount: 2
Fore
SplineSet
247 566 m 0
 213 566 158 525 158 284 c 0
 158 200 175 33 244 33 c 0
 256 33 291 44 310 122 c 1
 323 171 333 231 333 323 c 0
 333 457 304 528 277 551 c 0
 267 560 255 566 247 566 c 0
243 -10 m 0
 122 -10 40 131 40 294 c 0
 40 491 140 610 247 610 c 0
 298 610 352 577 384 539 c 1
 428 478 450 398 450 304 c 0
 450 69 326 -10 243 -10 c 0
EndSplineSet
Substitution2: "LinLibertine-'sinf' Wissenschaftliche Indices 1" u1D7CE.inferior
Substitution2: "LinLibertine-'sups' Hochgestellte 1" u1D7CE.superior
EndChar

StartChar: u1D7CF
Encoding: 120783 120783 113
Width: 490
Flags: W
HStem: -2 34<102.77 190.845 326.501 400.23> 444 21G<70.0909 103.5>
VStem: 207 110<46.0723 482.998>
LayerCount: 2
Fore
SplineSet
207 81 m 2
 207 430 l 2
 207.1 480 201 483 190 483 c 0
 178 483 126 467 81 444 c 1
 63 477 l 1
 136 512 214 565 265 593 c 0
 284 604 299 610 307 610 c 0
 314 610 320 606 320 593 c 2
 320 593 317 530 317 477 c 2
 317 81 l 2
 316.9 34 348 36 397 32 c 1
 403 26 403 4 397 -2 c 1
 365 -1 302.4 0 263 0 c 0
 217 0 138 -1 106 -2 c 1
 100 4 100 26 106 32 c 1
 149 35 207 35 207 81 c 2
EndSplineSet
Substitution2: "LinLibertine-'sinf' Wissenschaftliche Indices 1" u1D7CF.inferior
Substitution2: "LinLibertine-'sups' Hochgestellte 1" u1D7CF.superior
EndChar

StartChar: u1D7D0
Encoding: 120784 120784 114
Width: 490
Flags: W
HStem: 0 79<154 361.39> 570 40<167.661 269.828>
VStem: 51 97<79 87.375 429.277 510.487> 51 90<446.757 529.309> 306 119<379.79 535.222> 386 43<106.6 156.465>
LayerCount: 2
Fore
SplineSet
51 465 m 0
 51 526 116 610 235 610 c 0
 324 610 425 578 425 455 c 0
 425 380 362 316 277 233 c 0
 240 196 154 128 154 79 c 1
 316 79 l 2
 354 79 368 96 386 164 c 1
 429 155 l 1
 417 102 411 42 407 0 c 1
 50 0 l 1
 50 59 70 104 169 210 c 1
 241 286 l 2
 292 341 306 385 306 451 c 0
 306 543 255 570 228 570 c 0
 175 570 141 534 141 511 c 0
 141 500 142 492 145 485 c 0
 148 477 148 469 148 464 c 0
 148 433 121 422 100 422 c 0
 73 422 51 441 51 465 c 0
EndSplineSet
Substitution2: "LinLibertine-'sinf' Wissenschaftliche Indices 1" u1D7D0.inferior
Substitution2: "LinLibertine-'sups' Hochgestellte 1" u1D7D0.superior
EndChar

StartChar: u1D7D1
Encoding: 120785 120785 115
Width: 490
Flags: W
HStem: -11 41<160.981 259.712> 305 40<154.95 206.92> 440 21G<76 117.5> 570 40<170.716 273.517>
VStem: 54 90<446.622 534.023> 296 103<436.812 549.429> 315 116<106.537 277.13>
LayerCount: 2
Fore
SplineSet
234 570 m 0
 203.9 570 144 556 144 495 c 0
 144 475 138 440 97 440 c 0
 55 440 54 474 54 477 c 0
 54 511 95 610 253 610 c 0
 367 610 399 543 399 500 c 0
 399 476 379 402 290 364 c 1
 354 357 431 303 431 204 c 0
 431 64 323 -11 197 -11 c 0
 131 -11 43 16 43 58 c 0
 43 75 65 95 95 95 c 0
 126 95 136 84 145 69 c 0
 155 52 177 30 210 30 c 0
 237 30 315 61 315 190 c 0
 315 299 253 315 208 315 c 0
 201 315 183 311 156 305 c 1
 150 345 l 1
 267 372 296 437 296 484 c 0
 296 541 263 570 234 570 c 0
EndSplineSet
Substitution2: "LinLibertine-'sinf' Wissenschaftliche Indices 1" u1D7D1.inferior
Substitution2: "LinLibertine-'sups' Hochgestellte 1" u1D7D1.superior
EndChar

StartChar: u1D7D2
Encoding: 120786 120786 116
Width: 490
VWidth: 487
Flags: W
HStem: -2 34<186.77 259.892 381.03 447.23> 169 50<90 271 374 478.453>
VStem: 271 103<41.5879 169 219 493.017>
LayerCount: 2
Fore
SplineSet
271 493 m 1
 202 398.8 141.3 301.2 90 219 c 1
 271 219 l 1
 271 493 l 1
467 219 m 2
 478 219 482 213 482 203 c 0
 482 191 467 169 453 169 c 2
 374 169 l 1
 374 81 l 2
 374 34 395 36 444 32 c 1
 450 26 450 4 444 -2 c 1
 412 -1 347.4 0 308 0 c 0
 262 0 222 -1 190 -2 c 1
 184 4 184 26 190 32 c 1
 233 35 271 35 271 81 c 2
 271 169 l 1
 67 169 l 2
 37 169 31 199 28 214 c 1
 119.5 357 236 521.5 299 599 c 0
 302.7 603.5 308 610 315 610 c 2
 374 610 l 1
 376 608 l 1
 374.3 600.2 374 561 374 511 c 2
 374 219 l 1
 467 219 l 2
EndSplineSet
Substitution2: "LinLibertine-'sinf' Wissenschaftliche Indices 1" u1D7D2.inferior
Substitution2: "LinLibertine-'sups' Hochgestellte 1" u1D7D2.superior
EndChar

StartChar: u1D7D3
Encoding: 120787 120787 117
Width: 490
Flags: W
HStem: -13 44<163.658 259.663> 344 57<145.439 267.871> 526 75<157.417 397.388>
VStem: 316 115<113.894 288.439>
LayerCount: 2
Fore
SplineSet
316 186 m 0
 316 285 269 344 219 344 c 0
 177 344 144 336 83 310 c 1
 118 607 l 1
 166 603 207 601 242 601 c 0
 292 601 337 604 398 611 c 1
 417 601 l 1
 402 532 l 1
 351 528 321 526 291 526 c 0
 255 526 187 528 160 531 c 1
 155 480 150 445 144 393 c 1
 163 397 218 401 244 401 c 0
 365 401 431 307 431 208 c 0
 431 90 339 -13 211 -13 c 0
 145 -13 46 22 46 65 c 0
 46 87 64 107 94 107 c 0
 125 107 141 89 151 69 c 0
 164 45 191 31 207 31 c 0
 259 31 316 89 316 186 c 0
EndSplineSet
Substitution2: "LinLibertine-'sinf' Wissenschaftliche Indices 1" u1D7D3.inferior
Substitution2: "LinLibertine-'sups' Hochgestellte 1" u1D7D3.superior
EndChar

StartChar: u1D7D4
Encoding: 120788 120788 118
Width: 490
Flags: W
HStem: -10 38<210.287 295.504> 319 42<174.993 284.066> 579 33<329.938 415.848>
VStem: 40 113<114.614 296.134> 330 113<87.8768 268.712>
LayerCount: 2
Fore
SplineSet
154 280 m 1
 153 269 153 251 153 240 c 0
 153 68 215 28 257 28 c 0
 293 28 330 67 330 174 c 0
 330 221 312 319 233 319 c 0
 218 319 190 317 154 280 c 1
419 579 m 1
 371 576 310 572 241 502 c 0
 206 466 177 410 163 340 c 1
 191 353 224 361 252 361 c 0
 421 361 443 231 443 182 c 0
 443 109 404 -10 248 -10 c 0
 164 -10 40 32 40 243 c 0
 40 338 73 431 146 508 c 0
 212 577 291 605 415 612 c 1
 419 579 l 1
EndSplineSet
Substitution2: "LinLibertine-'sinf' Wissenschaftliche Indices 1" u1D7D4.inferior
Substitution2: "LinLibertine-'sups' Hochgestellte 1" u1D7D4.superior
EndChar

StartChar: u1D7D5
Encoding: 120789 120789 119
Width: 490
Flags: W
HStem: -13 21G<117 216> 444 21G<55 102> 517 77<112.287 352>
VStem: 55 39<450.564 497.42>
LayerCount: 2
Fore
SplineSet
128 594 m 2
 437 594 l 1
 441 586 l 1
 334 317 271 167 216 -2 c 1
 122 -13 l 1
 117 0 l 1
 185 151 299 385 352 517 c 1
 159 517 l 2
 127 517 110 513 94 444 c 1
 55 452 l 1
 71 521 79 555 81 600 c 1
 89 600 l 1
 97 594 121 594 128 594 c 2
EndSplineSet
Substitution2: "LinLibertine-'sinf' Wissenschaftliche Indices 1" u1D7D5.inferior
Substitution2: "LinLibertine-'sups' Hochgestellte 1" u1D7D5.superior
EndChar

StartChar: u1D7D6
Encoding: 120790 120790 120
Width: 490
VWidth: 487
Flags: MW
HStem: -11 39<185 304> 575 35<199 297>
VStem: 46 102<67 215> 69 107<428 543> 317 102<428 551> 338 106<89 215>
DStem2: 235 393 164 326 0.834021 -0.551733<-75.0204 -4.6253 29.4286 41.1468 77.7619 188.249>
LayerCount: 2
Fore
SplineSet
247 575 m 0
 194 575 176 537 176 491 c 0
 176 460 194 420 235 393 c 2
 264 374 l 1
 291 394 317 426 317 480 c 0
 317 526 305 575 247 575 c 0
419 489 m 0
 419 425 343 380 300 350 c 1
 359 310 l 2
 409 276 444 219 444 161 c 0
 444 85 368 -11 238 -11 c 0
 132 -11 46 44 46 146 c 0
 46 222 107 258 182 316 c 1
 164 326 l 1
 105 364 69 416 69 472 c 0
 69 549 129 610 252 610 c 0
 361 610 419 561 419 489 c 0
240 28 m 0
 284 28 338 46 338 141 c 0
 338 188 321 226 261 264 c 2
 216 292 l 1
 150 242 148 176 148 146 c 0
 148 58 196 28 240 28 c 0
EndSplineSet
Substitution2: "LinLibertine-'sinf' Wissenschaftliche Indices 1" u1D7D6.inferior
Substitution2: "LinLibertine-'sups' Hochgestellte 1" u1D7D6.superior
EndChar

StartChar: u1D7D7
Encoding: 120791 120791 121
Width: 490
VWidth: 487
Flags: W
HStem: -12 33<70.6515 156.562> 239 42<202.434 311.507> 572 38<190.996 276.213>
VStem: 43.5 113<331.288 512.123> 333.5 113<303.866 485.386>
LayerCount: 2
Fore
SplineSet
332.5 320 m 1
 333.5 331 333.5 349 333.5 360 c 0
 333.5 532 271.5 572 229.5 572 c 0
 193.5 572 156.5 533 156.5 426 c 0
 156.5 379 174.5 281 253.5 281 c 0
 268.5 281 296.5 283 332.5 320 c 1
67.5 21 m 1
 115.5 24 176.5 28 245.5 98 c 0
 280.5 134 309.5 190 323.5 260 c 1
 295.5 247 262.5 239 234.5 239 c 0
 65.5 239 43.5 369 43.5 418 c 0
 43.5 491 82.5 610 238.5 610 c 0
 322.5 610 446.5 568 446.5 357 c 0
 446.5 262 413.5 169 340.5 92 c 0
 274.5 23 195.5 -5 71.5 -12 c 1
 67.5 21 l 1
EndSplineSet
EndChar

StartChar: u1D41A.inferior
Encoding: 1114112 -1 122
Width: 332
Flags: W
HStem: -109 34<126.986 178.012> 127 32<128.761 173.085>
VStem: 35 87<-74.2763 8.74329> 44 87<64.5 98.7671 98.9553 126.432> 179 87<-33 27 62 125.598>
LayerCount: 2
Fore
SplineSet
186 -52 m 1
 179 -56 l 1
 179 27 l 1
 145 15 122 -1 122 -36 c 0
 122 -64 137 -75 149 -75 c 0
 158 -75 186 -52 186 -52 c 1
239 -109 m 0
 220 -109 205 -105 196 -98 c 1
 180 -105 160 -109 135 -109 c 0
 56 -109 35 -66 35 -38 c 0
 35 16 92 41 147 54 c 2
 179 62 l 1
 179 98 175 127 158 127 c 0
 143 127 128 121 128 108 c 0
 128 99 l 1
 130 94 131 91 131 87 c 0
 131 83 130 61 88 61 c 0
 61 61 44 72 44 94 c 0
 44 121 83 159 159 159 c 0
 232 159 266 128 266 54 c 2
 266 -29 l 1
 266 -33 l 1
 323 -56 l 1
 318 -77 293 -109 239 -109 c 0
EndSplineSet
EndChar

StartChar: u1D41E.inferior
Encoding: 1114113 -1 123
Width: 307
VWidth: 609
Flags: W
HStem: -117 36<122.322 220.689> 37 33<100 194> 131 30<121.122 183.636>
VStem: 24 72<-57.4475 36.6774> 194 75<70 119.547>
LayerCount: 2
Fore
SplineSet
164 -81 m 0
 202 -81 231 -60 251 -38 c 1
 271 -59 l 1
 245 -94 209 -117 159 -117 c 0
 64 -117 24 -57 24 16 c 0
 24 90 72 161 154 161 c 0
 248 161 266 99 269 37 c 1
 96 37 l 1
 96 33 96 23 96 21 c 0
 96 -68 144 -81 164 -81 c 0
194 70 m 1
 194 123 177 131 153 131 c 0
 122 131 104 99 100 70 c 1
 194 70 l 1
EndSplineSet
EndChar

StartChar: u1D428.inferior
Encoding: 1114114 -1 124
Width: 307
VWidth: 608
Flags: W
HStem: -117 30<124.605 192.246> 131 30<112.463 177.995>
VStem: 17 75<-60.5662 98.4091> 212 76<-58.0983 101.147>
LayerCount: 2
Fore
SplineSet
152 161 m 0
 261 161 288 72 288 18 c 0
 288 -47 245 -117 151 -117 c 0
 57 -117 17 -49 17 15 c 0
 17 72 48 161 152 161 c 0
212 -1 m 0
 212 78 188 131 146 131 c 0
 116 131 92 111 92 27 c 0
 92 -51 121 -87 162 -87 c 0
 188 -87 212 -64 212 -1 c 0
EndSplineSet
EndChar

StartChar: u1D431.inferior
Encoding: 1114115 -1 125
Width: 332
Flags: W
HStem: -108 32<10 64.7578 128 154 167 189 272.666 326.098> 121 31<8 61.7812 267.922 324.899>
VStem: 10 315
DStem2: 130 17 160 -28 0.624695 0.780869<-73.5024 -16.3982 71.8399 127.915>
LayerCount: 2
Fore
SplineSet
10 -87 m 2
 10 -77 30 -76 44 -76 c 2
 52 -76 l 1
 52 -76 56 -73 62 -64 c 1
 62 -64 126 14 130 17 c 1
 106 47 80 83 56 113 c 1
 52 120 51 121 49 121 c 2
 43 121 l 2
 20 121 8 125 8 132 c 2
 8 152 l 1
 171 152 l 1
 171 132 l 2
 171 125 163 122 147 121 c 1
 150 109 175 73 175 73 c 1
 199 104 202 112 202 112 c 2
 203 113 205 117 205 121 c 1
 193 122 181 124 181 132 c 2
 181 152 l 1
 325 152 l 1
 325 134 l 1
 323 125 311 121 290 121 c 0
 280 121 271 109 260 97 c 1
 243 75 225 52 208 30 c 1
 229 0 254 -36 277 -66 c 0
 282 -73 286 -75 292 -76 c 0
 316 -77 327 -82 327 -87 c 2
 327 -109 l 1
 308 -107 273 -105 254 -105 c 0
 231 -105 189 -107 167 -108 c 1
 167 -87 l 2
 167 -80 174 -77 189 -76 c 1
 189 -73 189 -71 188 -70 c 2
 188 -70 165 -36 160 -28 c 1
 141 -51 129 -67 128 -76 c 1
 146 -76 154 -80 154 -87 c 2
 154 -108 l 1
 135 -107 101 -106 85 -106 c 0
 63 -106 27 -107 10 -108 c 1
 10 -87 l 2
EndSplineSet
EndChar

StartChar: u1D7CE.inferior
Encoding: 1114116 -1 126
Width: 332
VWidth: 407
Flags: W
HStem: -117 24<137.605 193.379> 188 24<141.169 194.65>
VStem: 31 81<-50.0791 133.741> 220 81<-43.2064 145.072>
LayerCount: 2
Fore
SplineSet
167 188 m 0
 115 188 112 94 112 41 c 0
 112 -15 115 -93 165 -93 c 0
 217 -93 220 -16 220 61 c 0
 220 115 215 188 167 188 c 0
164 -117 m 0
 94 -117 31 -64 31 46 c 0
 31 140 98 212 167 212 c 0
 225 212 301 172 301 51 c 0
 301 -68 223 -117 164 -117 c 0
EndSplineSet
EndChar

StartChar: u1D7CF.inferior
Encoding: 1114117 -1 127
Width: 332
VWidth: 407
Flags: W
HStem: -113 26<259 274>
VStem: 143 73<-78.306 134.788>
LayerCount: 2
Fore
SplineSet
143 -43 m 2
 143 89 l 2
 143 122.8 137.4 134.8 121.1 134.8 c 0
 109.9 134.8 93.8 129.1 71 121 c 1
 61 147 l 1
 110 166 142.7 176.8 191 207 c 0
 195.1 209.6 201.5 213 207.5 213 c 0
 214.3 213 218 211.2 218 207 c 2
 218 207 216 178.4 216 150.2 c 2
 216 -43 l 2
 216 -71 229 -78.3 259 -85 c 2
 268 -87 l 2
 272.9 -88.1 276 -90 276 -95 c 2
 276 -111 l 1
 274 -113 l 1
 274 -113 217 -111 178 -111 c 0
 143 -111 86 -113 86 -113 c 1
 84 -111 l 1
 84 -95 l 2
 84 -90 87.1 -88.2 92 -87 c 2
 100 -85 l 2
 130.9 -77.3 143 -71 143 -43 c 2
EndSplineSet
EndChar

StartChar: u1D7D0.inferior
Encoding: 1114118 -1 128
Width: 332
VWidth: 407
Flags: W
HStem: -116 39<125 258.289> -50 20<263 298> 97 21<74 94.5> 181 30<116.886 192.312>
VStem: 47 69<100.699 177.497> 208 78<70.832 171.638> 266 32<-73.867 -35.469>
LayerCount: 2
Fore
SplineSet
86 97 m 0
 62 97 47 116 47 132 c 0
 47 159 72 211 167 211 c 0
 226 211 286 192 286 127 c 0
 286 92 261 61 226 31 c 1
 145 -31 128 -51 125 -77 c 1
 251 -77 l 1
 257 -62 260 -55 266 -30 c 1
 298 -37 l 1
 283 -116 l 1
 37 -116 l 1
 37 -67 64 -43 156 36 c 0
 187 63 208 89 208 125 c 0
 208 169 173 181 162 181 c 0
 128.5 181 112 167 112 156 c 0
 112 150 112 148 113 145 c 0
 114 140 116 130 116 128 c 0
 116 109 103 97 86 97 c 0
EndSplineSet
EndChar

StartChar: u1D7D1.inferior
Encoding: 1114119 -1 129
Width: 332
VWidth: 406
Flags: W
HStem: -118 30<108.56 191.459> 45 27<107.222 148.854> 184 28<124.37 189.369>
VStem: 45 63<114.194 174.317> 197 76<105.679 180.703> 224 75<-64.6157 39.3101>
LayerCount: 2
Fore
SplineSet
197 145 m 0
 197 172 179 184 160 184 c 0
 148 184 110 171 108 150 c 1
 108 137 107 113 78 113 c 0
 46 113 45 135 45 139 c 0
 45 157 69 212 172 212 c 0
 237 212 273 189 273 150 c 0
 273 126 254 102 224 84 c 1
 262 74 299 46 299 -5 c 0
 299 -75 228 -118 138 -118 c 0
 92 -118 36 -105 36 -82 c 0
 36 -66 46 -50 64 -50 c 0
 92 -50 100 -62 106 -71 c 0
 113 -81 131 -88 148 -88 c 0
 162 -88 224 -77 224 -12 c 0
 224 41 190 52 149 52 c 0
 146 52 136 51 108 45 c 1
 105 72 l 1
 149 78 197 105 197 145 c 0
EndSplineSet
EndChar

StartChar: u1D7D2.inferior
Encoding: 1114120 -1 130
Width: 332
VWidth: 407
Flags: W
HStem: -111 29<141.375 184.42 253.689 296> -16 42<91 185 253 305>
VStem: 185 68<-81.9822 -16 26 115.856>
DStem2: 22 -4 91 26 0.577405 0.816458<64.3347 271.906>
LayerCount: 2
Fore
SplineSet
253 127 m 2
 253 26 l 1
 308 26 l 1
 305 -16 l 1
 253 -16 l 1
 253 -57 l 2
 253 -76 257 -82 276 -82 c 2
 292 -82 l 2
 295 -82 296 -84 296 -86 c 2
 296 -111 l 1
 296 -111 246 -110 214 -110 c 0
 185 -110 139 -111 139 -111 c 1
 143 -86 l 2
 143 -84 144 -82 147 -82 c 2
 162 -82 l 2
 180 -82 185 -79 185 -58 c 2
 185 -16 l 1
 34 -16 l 1
 22 -4 l 1
 67 62 138 161 179 218 c 1
 216 208 l 1
 91 26 l 1
 185 26 l 1
 185 99 l 2
 185 105 189 113 191 116 c 0
 199 125 233 137 241 137 c 0
 246 137 253 136 253 127 c 2
EndSplineSet
EndChar

StartChar: u1D7D3.inferior
Encoding: 1114121 -1 131
Width: 332
VWidth: 404
Flags: W
HStem: -117 29<108.965 174.016> 70 32<100.481 171.233> 156 51<108 246>
VStem: 193 79<-65.6136 54.2916>
DStem2: 61 60 100 91 0.141421 0.989949<36.2039 101.682>
LayerCount: 2
Fore
SplineSet
193 -14 m 0
 193 16 188 70 128 70 c 0
 106 70 81 63 66 56 c 1
 61 60 l 1
 82 207 l 1
 250 207 l 1
 246 157 l 1
 246 156 l 1
 108 156 l 1
 100 91 l 1
 108 97 135 102 149 102 c 0
 227 102 272 50 272 -4 c 0
 272 -64 214 -117 145 -117 c 0
 111 -117 48 -104 48 -80 c 0
 48 -67 57 -49 75 -49 c 0
 88 -49 96 -61 104 -69 c 0
 113 -78 119 -88 141 -88 c 0
 178 -88 193 -55 193 -14 c 0
EndSplineSet
EndChar

StartChar: u1D7D4.inferior
Encoding: 1114122 -1 132
Width: 332
Flags: W
HStem: -117 28<134.83 195.989> 55 27<116.491 188.776> 192 20<234.012 273>
VStem: 35 72<-62.3913 48.7988> 213 75<-72.9416 39.8651>
LayerCount: 2
Fore
SplineSet
213 -17 m 0
 213 3 199 55 158 55 c 0
 141 55 129 52 107 35 c 1
 107 30 107 22 107 17 c 0
 107 -62 139 -89 168 -89 c 0
 200 -89 213 -52 213 -17 c 0
288 -12 m 0
 288 -50 259 -117 168 -117 c 0
 112 -117 35 -87 35 19 c 0
 35 102 98 199 273 212 c 1
 273 192 l 1
 180 176 131 124 115 74 c 1
 129 79 154 82 169 82 c 0
 280 82 288 6 288 -12 c 0
EndSplineSet
EndChar

StartChar: u1D7D5.inferior
Encoding: 1114123 -1 133
Width: 332
Flags: W
HStem: 129 88<59 92.3572> 165 48<90.2526 208>
VStem: 38 49<129 158.333> 94 67<-109 -46.8995>
LayerCount: 2
Fore
SplineSet
110 165 m 2
 96 165 94 161 87 129 c 1
 38 129 l 1
 59 217 l 1
 98 217 l 1
 101 214 102 213 108 213 c 2
 303 213 l 1
 250 123 193 0 161 -109 c 1
 94 -109 l 1
 127 -9 174 105 208 165 c 1
 110 165 l 2
EndSplineSet
EndChar

StartChar: u1D7D6.inferior
Encoding: 1114124 -1 134
Width: 332
Flags: W
HStem: -117 26<130.582 205.447> 188 24<136.516 194.281>
VStem: 42 67<-77.9121 11.6823> 57 67<105.508 181.028> 209 63<97.0655 182.115> 225 72<-76.605 11.5862>
DStem2: 165 92 118 59 0.873635 -0.486582<-58.5183 -21.4096 54.5856 108.442>
LayerCount: 2
Fore
SplineSet
166 188 m 0
 140 188 124 169 124 143 c 0
 124 127 136 108 165 92 c 0
 171 89 168 90 175 86 c 1
 188 97 209 116 209 141 c 0
 209 164 194 188 166 188 c 0
179 28 m 1
 159 37 l 1
 144 26 109 -2 109 -31 c 0
 109 -72 141 -91 167 -91 c 0
 200 -91 225 -71 225 -34 c 0
 225 -9 211 12 179 28 c 1
272 141 m 0
 272 127 270 100 213 66 c 1
 244 48 l 1
 280 29 297 6 297 -24 c 0
 297 -58 267 -117 166 -117 c 0
 116 -117 42 -100 42 -31 c 0
 42 2 82 35 121 57 c 1
 119 58 119 58 118 59 c 0
 72 81 57 105 57 134 c 0
 57 181 109 212 169 212 c 0
 222 212 272 183 272 141 c 0
EndSplineSet
EndChar

StartChar: u1D41A.superior
Encoding: 1114125 -1 135
Width: 297
VWidth: 999
Flags: W
HStem: 358 34<95.5667 151.725 208.5 269.718> 610 27<94.9603 164.155>
VStem: 27 64<393.87 471.347 542.342 599.299> 176 66<406.05 501 530 600.379>
LayerCount: 2
Fore
SplineSet
176 501 m 1
 102 480 91 451 91 431 c 0
 91 410 98 392 124 392 c 0
 145 392 149 402 176 426 c 1
 176 501 l 1
224 358 m 0
 193 358 180 379 177 397 c 1
 143 367 137 358 104 358 c 0
 62 358 27 385 27 428 c 0
 27 470 67 499 130 515 c 1
 176 530 l 1
 176 604 157 610 134 610 c 0
 101 610 92 601 92 585 c 0
 92 578 93 574 94 572 c 0
 96 570 97 565 97 560 c 0
 97 552 83 539 64 539 c 0
 49 539 32 549 32 564 c 0
 32 604 94 637 136 637 c 0
 185 637 242 617 242 523 c 2
 242 453 l 2
 242 412 247 396 256 396 c 0
 260 396 265 398 268 400 c 1
 278 380 l 1
 261 365 243 358 224 358 c 0
EndSplineSet
EndChar

StartChar: u1D41B.superior
Encoding: 1114126 -1 136
Width: 297
VWidth: 917
Flags: W
HStem: 358 31<121.019 191.387> 595 36<119.423 190.381> 690 27<-0.518519 26.6697>
VStem: 42 65<397.18 588.593 606 693.993> 212 71<422.837 577.671>
LayerCount: 2
Fore
SplineSet
42 668 m 2
 42 684 41 694 27 694 c 0
 20 694 10 693 0 690 c 1
 -2 717 l 1
 30 721 62 727 86 739 c 1
 107 739 l 1
 107 606 l 1
 132 622 158 631 184 631 c 0
 246 631 283 569 283 501 c 0
 283 427 229 358 164 358 c 0
 134 358 99 368 83 382 c 1
 77 374 59 365 53 358 c 1
 40 362 l 1
 42 377 42 388 42 414 c 2
 42 668 l 2
107 573 m 1
 107 454 l 2
 107 402 133 389 155 389 c 0
 178 389 212 396 212 489 c 0
 212 562 189 595 159 595 c 0
 133 595 128 589 107 573 c 1
EndSplineSet
EndChar

StartChar: u1D41C.superior
Encoding: 1114127 -1 137
Width: 332
VWidth: 609
Flags: W
HStem: 358 37<140.109 233.172> 418 20G<248.5 277.048> 605 32<141.468 217.113>
VStem: 42 71<417.948 575.751> 224 54<536.995 600.605>
LayerCount: 2
Fore
SplineSet
172 637 m 0
 234 637 278 604 278 570 c 0
 278 550 266 536 252 536 c 0
 239 536 226 548 224 564 c 0
 221 586 217 605 178 605 c 0
 147 605 113 577 113 496 c 0
 113 408 161 395 181 395 c 0
 219 395 239 416 258 438 c 1
 278 417 l 1
 252 382 212 358 167 358 c 0
 82 358 42 419 42 492 c 0
 42 565 86 637 172 637 c 0
EndSplineSet
EndChar

StartChar: u1D41D.superior
Encoding: 1114128 -1 138
Width: 332
VWidth: 917
Flags: W
HStem: 362 30<116.215 184.349> 380 27<285.33 312.519> 601 30<113.03 181.709> 690 27<161.481 188.716>
VStem: 23 71<409.949 573.76> 204 66<403.366 585.92 610 693.993>
LayerCount: 2
Fore
SplineSet
204 423 m 1
 204 561 l 1
 188 580 174 601 148 601 c 0
 114 601 94 578 94 504 c 0
 94 414 118 392 153 392 c 0
 174 392 184 402 204 423 c 1
204 391 m 1
 186 375 160 362 137 362 c 0
 70 362 23 412 23 489 c 0
 23 553 60 631 137 631 c 0
 163 631 189 624 204 610 c 1
 204 668 l 2
 204 684 204 694 189 694 c 0
 183 694 173 693 162 690 c 1
 160 717 l 1
 193 721 215 727 239 739 c 1
 270 739 l 1
 270 429 l 2
 270 414 271 403 285 403 c 0
 292 403 301 404 312 407 c 1
 314 380 l 1
 281 376 252 371 228 358 c 1
 204 358 l 1
 204 391 l 1
EndSplineSet
EndChar

StartChar: u1D41E.superior
Encoding: 1114129 -1 139
Width: 307
Flags: W
HStem: 359 36<115.322 213.689> 513 33<93 187> 607 30<114.122 176.636>
VStem: 17 72<418.552 512.677> 187 75<546 595.547>
LayerCount: 2
Fore
SplineSet
157 395 m 0
 195 395 224 416 244 438 c 1
 264 417 l 1
 238 382 202 359 152 359 c 0
 57 359 17 419 17 492 c 0
 17 566 65 637 147 637 c 0
 241 637 259 575 262 513 c 1
 89 513 l 1
 89 509 89 499 89 497 c 0
 89 408 137 395 157 395 c 0
187 546 m 1
 187 599 170 607 146 607 c 0
 115 607 97 575 93 546 c 1
 187 546 l 1
EndSplineSet
EndChar

StartChar: u1D41F.superior
Encoding: 1114130 -1 140
Width: 332
VWidth: 999
Flags: W
HStem: 364 28<45 85.2043 154.796 204> 564 34<42 87 153 226> 709 30<167.902 223.726>
VStem: 87 66<392.182 564 598 682.018>
LayerCount: 2
Fore
SplineSet
87 419 m 2
 87 564 l 1
 44 564 l 2
 42 564 42 565 42 567 c 2
 42 586 l 2
 42 591 44 598 55 598 c 2
 87 598 l 1
 87 694 149 739 201 739 c 0
 225 739 247 737 264 725 c 0
 277 715 285 697 285 686 c 0
 285 672 273 661 260 661 c 0
 247 661 236 669 230 681 c 1
 221 703 215 709 197 709 c 0
 176 709 153 703 153 608 c 2
 153 598 l 1
 221 598 l 2
 224 598 226 597 226 595 c 2
 226 572 l 2
 226 566 217 564 211 564 c 2
 153 564 l 1
 153 419 l 2
 153 402 159 392 179 392 c 2
 200 392 l 2
 202 392 205 391 205 387 c 2
 205 365 l 1
 204 364 l 1
 204 364 140 365 116 365 c 0
 94 365 45 364 45 364 c 1
 44 365 l 1
 44 387 l 2
 44 391 46 392 49 392 c 2
 61 392 l 2
 81 392 87 402 87 419 c 2
EndSplineSet
EndChar

StartChar: u1D420.superior
Encoding: 1114131 -1 141
Width: 333
VWidth: 999
Flags: W
HStem: 230 35<95.3461 231.542> 356 43<101.572 234.585> 452 27<120.958 191.093> 610 27<115.403 186.56> 620 32<230.352 280.736>
VStem: 29 55<274.823 346.486> 45 62<493.378 599.615> 48 48<399.598 461.436> 200 64<487.67 595.42> 253 50<277.754 336.975>
LayerCount: 2
Fore
SplineSet
283 597 m 0
 273 597 266 604 263 611 c 0
 260 617 253 620 244 620 c 0
 236 620 232 613 230 607 c 1
 249 592 264 572 264 543 c 0
 264 483 206 452 155 452 c 0
 134 452 117 455 104 462 c 1
 100 455 96 444 96 430 c 0
 96 404 109 399 126 399 c 0
 129 399 137 400 146 401 c 0
 159 402 175 404 185 404 c 0
 207 404 252 400 277 378 c 0
 294 363 303 348 303 328 c 0
 303 261 211 230 131 230 c 0
 86 230 29 244 29 298 c 0
 29 324 48 350 80 370 c 1
 64 377 48 393 48 415 c 0
 48 447 81 479 81 479 c 1
 64 495 45 514 45 545 c 0
 45 602 103 637 155 637 c 0
 183 637 202 628 212 622 c 1
 228 640 242 652 267 652 c 0
 294 652 309 637 309 623 c 0
 309 609 296 597 283 597 c 0
101 365 m 1
 86 352 84 331 84 310 c 0
 84 271 127 265 148 265 c 0
 201 265 253 268 253 312 c 0
 253 331 206 356 164 356 c 0
 138 356 113 361 101 365 c 1
200 541 m 0
 200 591 187 610 150 610 c 0
 117 610 107 599 107 551 c 0
 107 519 108 479 158 479 c 0
 179 479 200 479 200 541 c 0
EndSplineSet
EndChar

StartChar: u1D421.superior
Encoding: 1114132 -1 142
Width: 307
VWidth: 917
Flags: W
TeX: 57 0
HStem: 364 23<18 53.8998 106.374 145 174 213.23 265.602 301> 597 34<142.496 202.047> 695 22<12.3636 39.6697>
VStem: 55 49<387.195 575.435 580 698.992> 215 49<387.263 588.012>
LayerCount: 2
Fore
SplineSet
11 717 m 1
 43 721 65 727 90 739 c 1
 104 739 l 1
 104 580 l 1
 118 596 153 631 189 631 c 0
 234 631 264 606 264 539 c 2
 264 414 l 2
 264 389 270 388 290 387 c 1
 296 387 l 2
 300 387 301 384 301 382 c 2
 301 364 l 1
 301 364 263 365 239 365 c 0
 214 365 174 364 174 364 c 1
 174 382 l 2
 174 384 175 387 179 387 c 2
 190 387 l 1
 209 388 215 390 215 414 c 2
 215 529 l 2
 215 580 195 597 165 597 c 0
 144 597 123 575 104 552 c 1
 104 414 l 2
 104 392 112 387 129 387 c 2
 140 387 l 2
 142 387 145 386 145 382 c 2
 145 364 l 1
 145 364 105 365 79 365 c 0
 55 365 18 364 18 364 c 1
 18 382 l 2
 18 384 18 387 22 387 c 2
 30 387 l 1
 54 388 55 393 55 414 c 2
 55 673 l 2
 55 688 54 699 40 699 c 0
 33 699 23 698 13 695 c 1
 11 717 l 1
EndSplineSet
Comment: "Anfang{Spacing modifying letters}" 
Colour: ff00ff
EndChar

StartChar: u1D422.superior
Encoding: 1114133 -1 143
Width: 218
Flags: W
HStem: 358 32<30 77.9793 160.035 208> 526 33<29.1515 78.7701> 621 66<69.735 157.117>
VStem: 67 93<626.255 682.579> 78 82<390.003 538.993>
LayerCount: 2
Fore
SplineSet
114 687 m 0
 147 687 160 669 160 654 c 0
 160 636 140 621 114 621 c 0
 87 621 67 636 67 654 c 0
 67 672 83 687 114 687 c 0
160 409 m 2
 160 390 163 390 168 390 c 2
 186 390 l 2
 196 390 208 386 208 379 c 2
 208 358 l 1
 118 360 l 1
 94 359 53 358 30 358 c 1
 30 379 l 2
 30 386 33 390 52 390 c 2
 70 390 l 2
 77 390 78 394 78 409 c 2
 78 517 l 2
 78 529 78 539 80 539 c 1
 70 539 52 534 30 526 c 1
 26 559 l 1
 70 567 98 575 124 586 c 1
 160 586 l 1
 160 409 l 2
EndSplineSet
EndChar

StartChar: u1D423.superior
Encoding: 1114134 -1 144
Width: 207
VWidth: 952
Flags: W
TeX: 57 0
HStem: 263 19<48.7053 77.8634> 592 20<44.95 80.4375> 682 57<85.7942 144.254>
VStem: 0 48<282.406 320.328> 85 60<683.096 738.086> 96 49<300.871 598.991>
LayerCount: 2
Fore
SplineSet
115 739 m 0
 137 739 145 724 145 710 c 0
 145 695 132 682 115 682 c 0
 98 682 85 695 85 710 c 0
 85 726 96 739 115 739 c 0
96 410 m 2
 96 572 l 2
 96 586 92 599 81 599 c 0
 69 599 57 596 46 592 c 1
 43 612 l 1
 83 620 106 626 131 637 c 1
 145 637 l 1
 145 430 l 2
 145 345 140 318 113 288 c 0
 97 270 77 263 61 263 c 0
 34 263 0 276 0 296 c 0
 0 312 9 321 21 321 c 0
 36 321 44 306 48 292 c 0
 49 286 53 282 58 282 c 0
 87 282 96 317 96 410 c 2
EndSplineSet
Colour: ff00ff
EndChar

StartChar: u1D424.superior
Encoding: 1114135 -1 145
Width: 332
VWidth: 917
Flags: W
HStem: 364 28<21 57.6094 124.301 155 271.234 318> 604 26<186 207.992 251.544 306> 690 27<15.4815 42.7158>
VStem: 58 66<392.168 490 510 693.993> 103 21<490 510>
DStem2: 192 516 153 468 0.560848 -0.827919<-8.18906 132.329>
LayerCount: 2
Fore
SplineSet
124 490 m 1
 124 418 l 2
 124 396 125 392 142 392 c 2
 150 392 l 2
 152 392 155 391 155 387 c 2
 155 364 l 1
 155 364 111 365 82 365 c 0
 58 365 21 364 21 364 c 1
 21 387 l 2
 21 389 21 392 26 392 c 2
 33 392 l 1
 58 393 58 398 58 418 c 2
 58 668 l 2
 58 684 58 694 43 694 c 0
 37 694 27 693 16 690 c 1
 14 717 l 1
 47 721 79 727 103 739 c 1
 124 739 l 1
 124 518.4 l 1
 146.1 528 163.6 539.7 193 573 c 0
 201 582 208 590 208 594 c 0
 208 602 197 604 189 604 c 0
 186 604 184 606 184 608 c 2
 184 630 l 1
 186 631 l 1
 186 631 220 630 242 630 c 0
 266 630 306 631 306 631 c 1
 308 630 l 1
 308 608 l 2
 308 605 304 604 302 604 c 0
 278 604 250 597 229 573 c 2
 191 531 l 2
 189 529 189 526 189 524 c 0
 189 521 190 518 192 516 c 2
 255 423 l 2
 262 413 279 392 312 392 c 0
 316 392 320 390 320 387 c 2
 320 366 l 1
 318 364 l 1
 318 364 276 365 252 365 c 0
 230 365 209 364 209 364 c 1
 207 366 l 1
 207 387 l 2
 207 388 200 399 193 409 c 2
 153 468 l 2
 145.2 479.7 137.4 489.5 124 490 c 1
EndSplineSet
EndChar

StartChar: u1D425.superior
Encoding: 1114136 -1 146
Width: 161
VWidth: 917
Flags: W
HStem: 364 23<18 53.8998 106.374 145> 695 22<12.3636 39.6697>
VStem: 55 49<387.195 698.992>
LayerCount: 2
Fore
SplineSet
104 739 m 1
 104 414 l 2
 104 392 112 387 129 387 c 2
 140 387 l 2
 142 387 145 386 145 382 c 2
 145 364 l 1
 145 364 105 365 79 365 c 0
 55 365 18 364 18 364 c 1
 18 382 l 2
 18 384 18 387 22 387 c 2
 30 387 l 1
 54 388 55 393 55 414 c 2
 55 673 l 2
 55 688 54 699 40 699 c 0
 33 699 23 698 13 695 c 1
 11 717 l 1
 43 721 65 727 90 739 c 1
 104 739 l 1
EndSplineSet
Colour: ff00ff
EndChar

StartChar: u1D426.superior
Encoding: 1114137 -1 147
Width: 485
VWidth: 917
Flags: MW
HStem: 364 28<19 56 123 156 186 218 284 312 341 374 442 468> 583 32<14 41> 598 39<149 207 306 367>
VStem: 56 66<392 583> 218 65<392 590> 270 14<553 602> 375 66<392 592>
LayerCount: 2
Fore
SplineSet
12 615 m 1
 45 619 77 625 101 637 c 1
 115 637 l 1
 115 585 l 1
 129 602 164 637 200 637 c 0
 232.3 637 260.6 622.2 274.6 590.3 c 1
 290.9 608.4 323.5 637 356 637 c 0
 401 637 441 607 441 540 c 2
 441 418 l 2
 441 396 444 392 457 392 c 2
 463 392 l 2
 467 392 468 389 468 387 c 2
 468 364 l 1
 468 364 430 365 406 365 c 0
 381 365 341 364 341 364 c 1
 341 387 l 2
 341 389 342 392 346 392 c 2
 357 392 l 2
 370 392 375 395 375 418 c 2
 375 530 l 2
 375 581 362 598 332 598 c 0
 314.9 598 297.9 583.5 281.9 565.7 c 1
 283.3 557.8 284 549.3 284 540 c 2
 284 418 l 2
 284 399 286 392 301 392 c 2
 307 392 l 2
 312 392 312 389 312 387 c 2
 312 364 l 1
 312 364 274 365 250 365 c 0
 225 365 186 364 186 364 c 1
 186 387 l 2
 186 389 187 392 190 392 c 2
 201 392 l 2
 215 392 218 396 218 418 c 2
 218 530 l 2
 218 581 198 598 168 598 c 0
 147 598 141 576 122 553 c 1
 122 418 l 2
 122 396 124 392 140 392 c 2
 151 392 l 2
 153 392 156 391 156 387 c 2
 156 364 l 1
 156 364 110 365 80 365 c 0
 56 365 19 364 19 364 c 1
 19 387 l 2
 19 389 20 392 24 392 c 2
 31 392 l 1
 56 393 56 398 56 418 c 2
 56 562 l 2
 56 577 56 587 42 587 c 0
 35 587 25 586 14 583 c 1
 12 615 l 1
EndSplineSet
EndChar

StartChar: u1D427.superior
Encoding: 1114138 -1 148
Width: 332
Flags: W
HStem: 358 30<15 50.9733 133.22 171.763 172.143 209.876 292.073 328> 577 35<23 52.759> 590 43<147.673 203.963>
VStem: 51 82<388.049 551> 210 82<388.048 586.829>
LayerCount: 2
Fore
SplineSet
152 388 m 2
 159 388 167 387 172 384 c 1
 175 386 181 388 191 388 c 2
 202 388 l 1
 208 389 210 391 210 410 c 2
 210 528 l 2
 210 575 197 590 177 590 c 0
 167 590 147 569 129 548 c 1
 133 551 l 1
 133 410 l 2
 133 392 136 388 142 388 c 2
 152 388 l 2
8 607 m 1
 23 612 l 1
 51 615 71 621 96 633 c 1
 133 633 l 1
 133 609 l 1
 151 622 175 633 201 633 c 0
 255 633 292 608 292 538 c 2
 292 410 l 2
 292 390 293 389 300 388 c 1
 306 388 l 2
 325 388 328 383 328 378 c 2
 328 358 l 1
 328 358 274 360 250 360 c 0
 229 360 187 359 174 358 c 1
 172 358 l 1
 169 358 l 1
 157 359 114 360 92 360 c 0
 68 360 15 358 15 358 c 1
 15 379 l 2
 15 383 17 388 37 388 c 2
 44 388 l 1
 51 389 51 393 51 410 c 2
 51 564 l 2
 51 576 51 583 53 584 c 1
 48 584 34 582 11 577 c 1
 8 607 l 1
EndSplineSet
EndChar

StartChar: u1D428.superior
Encoding: 1114139 -1 149
Width: 307
Flags: W
HStem: 359 30<124.605 192.246> 607 30<112.463 177.995>
VStem: 17 75<415.434 574.409> 212 76<417.902 577.147>
LayerCount: 2
Fore
SplineSet
152 637 m 0
 261 637 288 548 288 494 c 0
 288 429 245 359 151 359 c 0
 57 359 17 427 17 491 c 0
 17 548 48 637 152 637 c 0
212 475 m 0
 212 554 188 607 146 607 c 0
 116 607 92 587 92 503 c 0
 92 425 121 389 162 389 c 0
 188 389 212 412 212 475 c 0
EndSplineSet
EndChar

StartChar: u1D429.superior
Encoding: 1114140 -1 150
Width: 329
VWidth: 917
Flags: W
HStem: 233 28<24 60.5315 128.656 168> 364 31<138.357 212.894> 588 27<18.4815 45.7158> 595 36<146.144 211.113>
VStem: 61 66<261.195 384 400.808 582.895> 231 72<424.543 580.772>
LayerCount: 2
Fore
SplineSet
61 566 m 2
 61 582 61 592 46 592 c 0
 40 592 30 591 19 588 c 1
 17 615 l 1
 50 619 72 625 96 637 c 1
 127 637 l 1
 127 632 l 1
 127 601 l 1
 148 616 175 631 205 631 c 0
 262 631 303 569 303 501 c 0
 303 427 248 364 183 364 c 0
 164 364 141 372 127 384 c 1
 127 288 l 2
 127 266 136 261 152 261 c 2
 163 261 l 2
 166 261 168 260 168 256 c 2
 168 233 l 1
 168 233 111 234 85 234 c 0
 61 234 24 233 24 233 c 1
 24 257 l 2
 24 259 24 261 29 261 c 2
 36 261 l 1
 61 262 61 268 61 288 c 2
 61 566 l 2
127 455 m 2
 127 403 153 395 174 395 c 0
 197 395 231 396 231 489 c 0
 231 562 210 595 183 595 c 0
 157 595 146 581 127 563 c 1
 127 455 l 2
EndSplineSet
EndChar

StartChar: u1D42A.superior
Encoding: 1114141 -1 151
Width: 324
VWidth: 917
Flags: W
HStem: 233 28<169 208.484 276.624 313> 364 31<125.385 194.767> 601 30<121.816 187.131>
VStem: 29 76<413.027 573.76> 210 66<261.195 391 401.976 585.92>
LayerCount: 2
Fore
SplineSet
210 423 m 1
 210 561 l 1
 194 580 180 601 154 601 c 0
 121 601 105 578 105 504 c 0
 105 414 128 395 163 395 c 0
 185 395 190 402 210 423 c 1
258 629 m 2
 261 632 268 637 271 637 c 0
 274 637 276 634 276 628 c 2
 276 288 l 2
 276 268 277 262 301 261 c 1
 309 261 l 2
 313 261 313 259 313 257 c 2
 313 233 l 1
 313 233 259 234 235 234 c 0
 209 234 169 233 169 233 c 1
 169 256 l 2
 169 260 172 261 174 261 c 2
 185 261 l 2
 202 261 210 266 210 288 c 2
 210 391 l 1
 192 375 170 364 147 364 c 0
 81 364 29 412 29 489 c 0
 29 553 66 631 143 631 c 0
 172 631 208 622 223 605 c 1
 258 629 l 2
EndSplineSet
EndChar

StartChar: u1D42B.superior
Encoding: 1114142 -1 152
Width: 246
VWidth: 952
Flags: W
TeX: 57 0
HStem: 365 24<25 73.2733 125.331 172> 592 20<23.3 59.3921> 597 40<157.475 221.466>
VStem: 74 50<389.044 598.991>
LayerCount: 2
Fore
SplineSet
124 540 m 2
 124 414 l 2
 124 390 132 389 149 389 c 2
 167 389 l 2
 169 389 172 387 172 384 c 2
 172 365 l 1
 98 366 l 1
 25 365 l 1
 25 384 l 2
 25 387 26 389 31 389 c 2
 49 389 l 2
 73 389 74 395 74 414 c 2
 74 572 l 2
 74 586 71 599 60 599 c 0
 47 599 36 596 24 592 c 1
 22 612 l 1
 61 620 85 626 109 637 c 1
 124 637 l 1
 122 578 l 1
 124 578 l 1
 141 603 169 637 200 637 c 0
 227 637 237 624 237 606 c 0
 237 589 226 580 208 580 c 0
 196 580 188 584 182 591 c 0
 178 595 173 597 169 597 c 0
 162 597 147 585 131 562 c 0
 127 557 124 548 124 540 c 2
EndSplineSet
Colour: ff00ff
EndChar

StartChar: u1D42C.superior
Encoding: 1114143 -1 153
Width: 253
VWidth: 625
Flags: W
HStem: 358 25<80.9729 158.544> 612 25<95.0438 164.113>
VStem: 28 22<418.49 458> 35 48<535.6 606.623> 170 54<388.398 462.244> 196 23<545 573.721>
LayerCount: 2
Fore
SplineSet
28 458 m 1
 50 458 l 1
 51 444 57 417 73 401 c 0
 80 395 99 383 122 383 c 0
 146 383 170 394 170 421 c 0
 170 442 162 462 112 483 c 0
 66 502 35 518 35 563 c 0
 35 605 80 637 129 637 c 0
 160 637 199 627 210 620 c 1
 219 545 l 1
 196 544 l 1
 182 602 148 612 129 612 c 0
 104 612 83 599 83 572 c 0
 83 548 93 539 127 525 c 0
 178 504 224 485 224 435 c 0
 224 374 158 358 124 358 c 0
 94 358 72 372 52 372 c 0
 49 372 39 371 33 370 c 1
 34 394 31 426 28 458 c 1
EndSplineSet
Colour: ff00ff
EndChar

StartChar: u1D42D.superior
Encoding: 1114144 -1 154
Width: 228
VWidth: 999
Flags: W
HStem: 358 39<105.5 187.894> 597 34<15 59.5279 128 201>
VStem: 62 66<397.032 597> 73 55<640.252 713>
LayerCount: 2
Fore
SplineSet
128 597 m 1
 128 454 l 2
 128 416 132 397 149 397 c 0
 165 397 175 403 191 415 c 1
 207 393 l 1
 181 366 148 358 120 358 c 0
 91 358 62 375 62 419 c 2
 62 597 l 1
 18 597 l 2
 16 597 15 597 15 599 c 2
 15 628 l 2
 15 630 15 631 17 631 c 0
 58 631 73 655 73 702 c 2
 73 713 l 1
 128 726 l 1
 128 631 l 1
 196 631 l 2
 199 631 201 629 201 627 c 2
 201 604 l 2
 201 599 192 597 187 597 c 2
 128 597 l 1
EndSplineSet
EndChar

StartChar: u1D42E.superior
Encoding: 1114145 -1 155
Width: 329
VWidth: 917
Flags: W
HStem: 358 39<123.267 180.466> 380 27<283.33 311> 604 27<23 57.9211 172 210.484>
VStem: 22 93<604.001 630> 59 56<403.057 603.807> 171 98<603.742 630> 212 57<415.872 603.938>
LayerCount: 2
Fore
SplineSet
115 630 m 1
 115 465 l 2
 115 414 128 397 158 397 c 0
 179 397 193 419 212 442 c 1
 212 577 l 2
 212 599 204 604 187 604 c 2
 176 604 l 2
 174 604 171 604 171 608 c 2
 171 630 l 1
 172 631 l 1
 172 631 216 630 245 630 c 0
 254 630 268 631 268 631 c 1
 269 630 l 1
 269 429 l 2
 269 414 269 403 283 403 c 0
 290 403 300 404 311 407 c 1
 312 380 l 1
 280 376 258 371 233 358 c 1
 212 358 l 1
 212 410 l 1
 198 393 170 358 134 358 c 0
 89 358 59 383 59 450 c 2
 59 577 l 2
 59 602 53 603 34 604 c 1
 27 604 l 2
 23 604 22 606 22 608 c 2
 22 630 l 1
 23 631 l 1
 23 631 60 630 84 630 c 0
 96 630 114 631 114 631 c 1
 115 630 l 1
EndSplineSet
EndChar

StartChar: u1D42F.superior
Encoding: 1114146 -1 156
Width: 334
VWidth: 633
Flags: W
HStem: 604 27<13 45.2829 107.004 136 215 248.993 286.875 321>
VStem: 12 309
DStem2: 177 424 56 568 0.380277 -0.924872<-183.631 0> 177 424 190 372 0.398894 0.916997<0 184.394>
LayerCount: 2
Fore
SplineSet
137 371 m 2
 56 568 l 2
 42 603 37 604 17 604 c 0
 14 604 12 604 12 608 c 2
 12 630 l 1
 13 631 l 1
 13 631 62 630 81 630 c 2
 136 631 l 1
 138 630 l 1
 138 608 l 2
 138 605 135 604 132 604 c 2
 122 604 l 2
 113 604 107 604 107 594 c 0
 107 589 108 584 111 577 c 2
 177 424 l 1
 243 574 l 2
 247 583 249 589 249 594 c 0
 249 602 239 604 218 604 c 0
 216 604 214 606 214 608 c 2
 214 630 l 1
 215 631 l 1
 215 631 250 630 271 630 c 0
 290 630 321 631 321 631 c 1
 322 630 l 1
 322 608 l 2
 322 604 318 604 315 604 c 0
 301 604 291 604 277 572 c 2
 190 372 l 2
 186 361 167 358 160 358 c 0
 155 358 140 364 137 371 c 2
EndSplineSet
EndChar

StartChar: u1D430.superior
Encoding: 1114147 -1 157
Width: 445
VWidth: 633
Flags: W
TeX: 57 0
HStem: 608 23<13 43.7523 99.5071 126 160 188.731 244.678 272 330 368.025 402.329 432>
DStem2: 161 424 130 371 0.347612 -0.937638<-188.13 0> 161 424 164 372 0.350425 0.936591<0 109.301> 248 577 199 576 0.347612 -0.937638<-24.9938 8.59883 44.3023 163.273> 305 424 309 372 0.367378 0.930072<0 188.463>
LayerCount: 2
Fore
SplineSet
127 613 m 2
 127 610 125 608 123 608 c 2
 114 608 l 2
 95 608 93 603 103 577 c 2
 161 424 l 1
 208 553 l 1
 199 576 l 2
 189 602 182 608 164 608 c 0
 161 608 159 609 159 613 c 2
 159 630 l 1
 160 631 l 1
 160 631 198 630 217 630 c 2
 272 631 l 1
 274 630 l 1
 274 613 l 2
 274 610 272 608 269 608 c 0
 243 608 237 606 248 577 c 2
 305 424 l 1
 364 574 l 2
 374 601 367 608 342 608 c 2
 333 608 l 2
 331 608 329 611 329 613 c 2
 329 630 l 1
 330 631 l 1
 330 631 370 630 391 630 c 0
 410 630 432 631 432 631 c 1
 433 630 l 1
 433 613 l 2
 433 609 429 608 426 608 c 0
 412 608 399 600 388 572 c 2
 309 372 l 2
 304 361 295 358 288 358 c 0
 283 358 278 363 275 371 c 2
 219 519 l 1
 164 372 l 2
 160 361 151 358 143 358 c 0
 138 358 133 363 130 371 c 2
 54 576 l 2
 43 605 35 608 19 608 c 0
 16 608 12 610 12 613 c 2
 12 630 l 1
 13 631 l 1
 13 631 40 630 64 630 c 0
 90 630 126 631 126 631 c 1
 127 630 l 1
 127 613 l 2
EndSplineSet
Colour: ff00ff
EndChar

StartChar: u1D431.superior
Encoding: 1114148 -1 158
Width: 332
VWidth: 608
Flags: W
HStem: 368 32<12 66.7578 130 156 169 191 274.666 328.098> 597 31<10 63.7812 269.922 326.899>
VStem: 12 315
DStem2: 132 493 162 448 0.624695 0.780869<-73.5024 -16.3982 71.8399 127.915>
LayerCount: 2
Fore
SplineSet
12 389 m 2
 12 399 32 400 46 400 c 2
 54 400 l 1
 54 400 58 403 64 412 c 1
 64 412 128 490 132 493 c 1
 108 523 82 559 58 589 c 1
 54 596 53 597 51 597 c 2
 45 597 l 2
 22 597 10 601 10 608 c 2
 10 628 l 1
 173 628 l 1
 173 608 l 2
 173 601 165 598 149 597 c 1
 152 585 177 549 177 549 c 1
 201 580 204 588 204 588 c 2
 205 589 207 593 207 597 c 1
 195 598 183 600 183 608 c 2
 183 628 l 1
 327 628 l 1
 327 610 l 1
 325 601 313 597 292 597 c 0
 282 597 273 585 262 573 c 1
 245 551 227 528 210 506 c 1
 231 476 256 440 279 410 c 0
 284 403 288 401 294 400 c 0
 318 399 329 394 329 389 c 2
 329 367 l 1
 310 369 275 371 256 371 c 0
 233 371 191 369 169 368 c 1
 169 389 l 2
 169 396 176 399 191 400 c 1
 191 403 191 405 190 406 c 2
 190 406 167 440 162 448 c 1
 143 425 131 409 130 400 c 1
 148 400 156 396 156 389 c 2
 156 368 l 1
 137 369 103 370 87 370 c 0
 65 370 29 369 12 368 c 1
 12 389 l 2
EndSplineSet
Colour: ff00ff
EndChar

StartChar: u1D432.superior
Encoding: 1114149 -1 159
Width: 338
VWidth: 617
Flags: W
TeX: 57 0
HStem: 217 41<53.7576 117.985> 608 24<17 54.187 113.006 145 220 252.992 294 329>
VStem: 17 310
DStem2: 182 429 66 573 0.395829 -0.918324<-181.502 0> 147 344 167 315 0.395773 0.918348<-96.4127 18.7738 91.9117 274.162>
LayerCount: 2
Fore
SplineSet
146 614 m 2
 146 610 142 608 139 608 c 0
 121 608 113 605 113 597 c 0
 113 595 114 589 116 585 c 2
 182 429 l 1
 250 583 l 2
 252 587 253 594 253 597 c 0
 253 607 242 608 228 608 c 2
 225 608 l 2
 222 608 219 611 219 613 c 2
 219 630 l 1
 220 632 l 1
 220 632 262 630 284 630 c 0
 301 630 327 632 327 632 c 1
 329 630 l 1
 329 614 l 2
 329 610 327 608 322 608 c 0
 298 608 286 589 278 571 c 0
 244 501 217 436 167 315 c 0
 148 271 125 217 81 217 c 0
 69 217 37 228 37 250 c 0
 37 269 56 278 66 278 c 0
 76 278 82 274 86 270 c 0
 91 263 96 258 102 258 c 0
 112 258 131 306 147 344 c 0
 150 352 151 357 151 363 c 0
 151 370 146 386 141 399 c 2
 66 573 l 2
 55 599 50 608 23 608 c 0
 20 608 17 611 17 613 c 2
 17 630 l 1
 19 632 l 1
 19 632 46 630 65 630 c 0
 94 630 145 632 145 632 c 1
 146 630 l 1
 146 614 l 2
EndSplineSet
Colour: ff00ff
EndChar

StartChar: u1D433.superior
Encoding: 1114150 -1 160
Width: 294
VWidth: 999
Flags: W
HStem: 364 34<107 221.973> 597 34<62.7793 170>
VStem: 23 27<553 580.917>
DStem2: 27 384 107 398 0.557396 0.830247<56.2151 256.55>
LayerCount: 2
Fore
SplineSet
75 631 m 2
 188 631 l 2
 206 631 249 633 251 633 c 0
 254 633 259 633 259 630 c 2
 259 629 l 2
 259 627 258 623 246 604 c 2
 107 398 l 1
 173 398 l 2
 208 398 219 402 233 435 c 1
 241 452 l 1
 268 448 l 1
 256 411 250 382 248 364 c 1
 36 364 l 2
 26 364 22 367 22 371 c 0
 22 375 22 376 27 384 c 2
 170 597 l 1
 102 597 l 2
 83 597 62 596 50 552 c 1
 23 553 l 1
 28 583 32 610 32 638 c 1
 58 638 l 1
 59 635 65 631 75 631 c 2
EndSplineSet
EndChar

StartChar: u1D7CE.superior
Encoding: 1114151 -1 161
Width: 332
VWidth: 407
Flags: W
HStem: 359 24<137.605 193.379> 664 24<141.169 194.65>
VStem: 31 81<425.921 609.741> 220 81<432.794 621.073>
LayerCount: 2
Fore
SplineSet
167 664 m 0
 115 664 112 570 112 517 c 0
 112 461 115 383 165 383 c 0
 217 383 220 460 220 537 c 0
 220 591 215 664 167 664 c 0
164 359 m 0
 94 359 31 412 31 522 c 0
 31 616 98 688 167 688 c 0
 225 688 301 648 301 527 c 0
 301 408 223 359 164 359 c 0
EndSplineSet
EndChar

StartChar: u1D7CF.superior
Encoding: 1114152 -1 162
Width: 332
Flags: W
HStem: 362 26<257 272>
VStem: 141 73<396.694 609.788>
LayerCount: 2
Fore
SplineSet
141 432 m 2
 141 564 l 2
 141 597.8 135.4 609.8 119.1 609.8 c 0
 107.9 609.8 91.8 604.1 69 596 c 1
 59 622 l 1
 108 641 140.7 651.8 189 682 c 0
 193.1 684.6 199.5 688 205.5 688 c 0
 212.3 688 216 686.2 216 682 c 2
 216 682 214 653.4 214 625.2 c 2
 214 432 l 2
 214 404 227 396.7 257 390 c 2
 266 388 l 2
 270.9 386.9 274 385 274 380 c 2
 274 364 l 1
 272 362 l 1
 272 362 215 364 176 364 c 0
 141 364 84 362 84 362 c 1
 82 364 l 1
 82 380 l 2
 82 385 85.1 386.8 90 388 c 2
 98 390 l 2
 128.9 397.7 141 404 141 432 c 2
EndSplineSet
EndChar

StartChar: u1D7D0.superior
Encoding: 1114153 -1 163
Width: 332
Flags: W
HStem: 360 39<125 258.289> 426 20G<263 298> 573 21G<74 94.5> 657 30<116.886 192.312>
VStem: 47 69<576.699 653.497> 208 78<546.832 647.638> 266 32<402.133 440.531>
LayerCount: 2
Fore
SplineSet
86 573 m 0
 62 573 47 592 47 608 c 0
 47 635 72 687 167 687 c 0
 226 687 286 668 286 603 c 0
 286 568 261 537 226 507 c 1
 145 445 128 425 125 399 c 1
 251 399 l 1
 257 414 260 421 266 446 c 1
 298 439 l 1
 283 360 l 1
 37 360 l 1
 37 409 64 433 156 512 c 0
 187 539 208 565 208 601 c 0
 208 645 173 657 162 657 c 0
 128.5 657 112 643 112 632 c 0
 112 626 112 624 113 621 c 0
 114 616 116 606 116 604 c 0
 116 585 103 573 86 573 c 0
EndSplineSet
EndChar

StartChar: u1D7D1.superior
Encoding: 1114154 -1 164
Width: 332
Flags: W
HStem: 358 30<108.56 191.459> 521 27<107.222 148.854> 660 28<124.37 189.369>
VStem: 45 63<590.194 650.317> 197 76<581.679 656.703> 224 75<411.384 515.31>
LayerCount: 2
Fore
SplineSet
197 621 m 0
 197 648 179 660 160 660 c 0
 148 660 110 647 108 626 c 1
 108 613 107 589 78 589 c 0
 46 589 45 611 45 615 c 0
 45 633 69 688 172 688 c 0
 237 688 273 665 273 626 c 0
 273 602 254 578 224 560 c 1
 262 550 299 522 299 471 c 0
 299 401 228 358 138 358 c 0
 92 358 36 371 36 394 c 0
 36 410 46 426 64 426 c 0
 92 426 100 414 106 405 c 0
 113 395 131 388 148 388 c 0
 162 388 224 399 224 464 c 0
 224 517 190 528 149 528 c 0
 146 528 136 527 108 521 c 1
 105 548 l 1
 149 554 197 581 197 621 c 0
EndSplineSet
EndChar

StartChar: u1D7D2.superior
Encoding: 1114155 -1 165
Width: 332
VWidth: 407
Flags: W
HStem: 365 29<141.375 184.42 253.689 296> 460 42<91 185 253 305>
VStem: 185 68<394.018 460 502 591.856>
DStem2: 22 472 91 502 0.577405 0.816458<64.3347 271.906>
LayerCount: 2
Fore
SplineSet
253 603 m 2
 253 502 l 1
 308 502 l 1
 305 460 l 1
 253 460 l 1
 253 419 l 2
 253 400 257 394 276 394 c 2
 292 394 l 2
 295 394 296 392 296 390 c 2
 296 365 l 1
 296 365 246 366 214 366 c 0
 185 366 139 365 139 365 c 1
 143 390 l 2
 143 392 144 394 147 394 c 2
 162 394 l 2
 180 394 185 397 185 418 c 2
 185 460 l 1
 34 460 l 1
 22 472 l 1
 67 538 138 637 179 694 c 1
 216 684 l 1
 91 502 l 1
 185 502 l 1
 185 575 l 2
 185 581 189 589 191 592 c 0
 199 601 233 613 241 613 c 0
 246 613 253 612 253 603 c 2
EndSplineSet
EndChar

StartChar: u1D7D3.superior
Encoding: 1114156 -1 166
Width: 332
VWidth: 404
Flags: W
HStem: 359 29<108.965 174.016> 546 32<100.481 171.233> 632 51<108 246>
VStem: 193 79<410.386 530.292>
DStem2: 61 536 100 567 0.141421 0.989949<36.2039 101.682>
LayerCount: 2
Fore
SplineSet
193 462 m 0
 193 492 188 546 128 546 c 0
 106 546 81 539 66 532 c 1
 61 536 l 1
 82 683 l 1
 250 683 l 1
 246 633 l 1
 246 632 l 1
 108 632 l 1
 100 567 l 1
 108 573 135 578 149 578 c 0
 227 578 272 526 272 472 c 0
 272 412 214 359 145 359 c 0
 111 359 48 372 48 396 c 0
 48 409 57 427 75 427 c 0
 88 427 96 415 104 407 c 0
 113 398 119 388 141 388 c 0
 178 388 193 421 193 462 c 0
EndSplineSet
EndChar

StartChar: u1D7D4.superior
Encoding: 1114157 -1 167
Width: 332
VWidth: 407
Flags: W
HStem: 359 28<141.83 202.989> 531 27<123.491 195.776> 668 20<241.012 280>
VStem: 42 72<413.609 524.799> 220 75<403.058 515.865>
LayerCount: 2
Fore
SplineSet
220 459 m 0
 220 479 206 531 165 531 c 0
 148 531 136 528 114 511 c 1
 114 506 114 498 114 493 c 0
 114 414 146 387 175 387 c 0
 207 387 220 424 220 459 c 0
295 464 m 0
 295 426 266 359 175 359 c 0
 119 359 42 389 42 495 c 0
 42 578 105 675 280 688 c 1
 280 668 l 1
 187 652 138 600 122 550 c 1
 136 555 161 558 176 558 c 0
 287 558 295 482 295 464 c 0
EndSplineSet
EndChar

StartChar: u1D7D5.superior
Encoding: 1114158 -1 168
Width: 332
VWidth: 407
Flags: W
HStem: 605 88<55 88.3572> 641 48<86.2526 204>
VStem: 34 49<605 634.333> 90 67<367 429.101>
LayerCount: 2
Fore
SplineSet
106 641 m 2
 92 641 90 637 83 605 c 1
 34 605 l 1
 55 693 l 1
 94 693 l 1
 97 690 98 689 104 689 c 2
 299 689 l 1
 246 599 189 476 157 367 c 1
 90 367 l 1
 123 467 170 581 204 641 c 1
 106 641 l 2
EndSplineSet
EndChar

StartChar: u1D7D6.superior
Encoding: 1114159 -1 169
Width: 332
VWidth: 407
Flags: W
HStem: 359 26<136.582 211.447> 664 24<142.516 200.281>
VStem: 48 67<398.088 487.682> 63 67<581.508 657.028> 215 63<573.065 658.115> 231 72<399.395 487.586>
DStem2: 171 568 124 535 0.873635 -0.486582<-58.5183 -21.4096 54.5856 108.442>
LayerCount: 2
Fore
SplineSet
172 664 m 0
 146 664 130 645 130 619 c 0
 130 603 142 584 171 568 c 0
 177 565 174 566 181 562 c 1
 194 573 215 592 215 617 c 0
 215 640 200 664 172 664 c 0
185 504 m 1
 165 513 l 1
 150 502 115 474 115 445 c 0
 115 404 147 385 173 385 c 0
 206 385 231 405 231 442 c 0
 231 467 217 488 185 504 c 1
278 617 m 0
 278 603 276 576 219 542 c 1
 250 524 l 1
 286 505 303 482 303 452 c 0
 303 418 273 359 172 359 c 0
 122 359 48 376 48 445 c 0
 48 478 88 511 127 533 c 1
 125 534 125 534 124 535 c 0
 78 557 63 581 63 610 c 0
 63 657 115 688 175 688 c 0
 228 688 278 659 278 617 c 0
EndSplineSet
EndChar
